<svg width="423" height="182" viewBox="0 0 423 182" fill="none" xmlns="http://www.w3.org/2000/svg">
<g style="mix-blend-mode:luminosity">
<path d="M27.8902 140.67C27.9908 141.11 29.0092 141.11 29.1098 140.67C29.7051 138.068 30.8083 134.634 32.7212 132.721C34.6341 130.808 38.068 129.705 40.6701 129.11C41.11 129.009 41.11 127.991 40.6701 127.89C38.068 127.295 34.6341 126.192 32.7212 124.279C30.8083 122.366 29.7051 118.932 29.1098 116.33C29.0092 115.89 27.9908 115.89 27.8902 116.33C27.2949 118.932 26.1917 122.366 24.2788 124.279C22.3659 126.192 18.932 127.295 16.3299 127.89C15.89 127.991 15.89 129.009 16.3299 129.11C18.932 129.705 22.3659 130.808 24.2788 132.721C26.1917 134.634 27.2949 138.068 27.8902 140.67Z" fill="#A7A7A7"/>
<path d="M52.8902 159.499C52.9908 160.167 54.0092 160.167 54.1098 159.499C54.7051 155.543 55.8083 150.324 57.7212 147.416C59.6341 144.509 63.068 142.832 65.6701 141.927C66.11 141.774 66.11 140.226 65.6701 140.073C63.068 139.168 59.6341 137.491 57.7212 134.584C55.8083 131.676 54.7051 126.457 54.1098 122.501C54.0092 121.833 52.9908 121.833 52.8902 122.501C52.2949 126.457 51.1917 131.676 49.2788 134.584C47.3659 137.491 43.932 139.168 41.3299 140.073C40.89 140.226 40.89 141.774 41.3299 141.927C43.932 142.832 47.3659 144.509 49.2788 147.416C51.1917 150.324 52.2949 155.543 52.8902 159.499Z" fill="#636363"/>
<path d="M176.085 88.0688C240.387 42.1953 310.795 9.00023 332.817 14.6207C349.569 18.8962 320.355 52.387 320.355 52.387C320.355 52.387 336.032 26.6057 320.355 23.9354C304.678 21.2652 243.475 44.328 179.636 89.8707C115.798 135.413 90.524 167.026 112.031 172.516C125.698 176.004 188.391 149.33 188.391 149.33C188.391 149.33 113.042 185.429 98.5685 181.735C76.5468 176.114 111.783 133.942 176.085 88.0688Z" fill="#C4C4C4"/>
<path d="M318.682 151.928C310.775 166.88 292.244 172.59 277.293 164.682L123.722 83.4612C108.771 75.5537 103.061 57.023 110.968 42.0717V42.0717C118.876 27.1204 137.406 21.4103 152.358 29.3178L305.928 110.539C320.88 118.446 326.59 136.977 318.682 151.928V151.928Z" fill="#C4C4C4"/>
<path fill-rule="evenodd" clip-rule="evenodd" d="M276.358 166.45L122.787 85.2292C106.859 76.8053 100.776 57.0644 109.2 41.1367C117.624 25.209 137.365 19.1259 153.293 27.5498L306.863 108.771C322.791 117.195 328.874 136.936 320.45 152.863C312.026 168.791 292.285 174.874 276.358 166.45ZM277.293 164.682C292.244 172.59 310.775 166.88 318.682 151.928C326.59 136.977 320.88 118.446 305.928 110.539L152.358 29.3178C137.406 21.4103 118.876 27.1204 110.968 42.0717C103.061 57.023 108.771 75.5537 123.722 83.4612L277.293 164.682Z" fill="#C4C4C4"/>
<g clip-path="url(#clip0_41_4692)">
<rect x="223.641" y="136.307" width="143.658" height="61.2496" rx="30.6248" transform="rotate(-152.126 223.641 136.307)" fill="white"/>
<path fill-rule="evenodd" clip-rule="evenodd" d="M225.216 105.467C219.471 115.432 209.851 122.329 198.219 125.381L197.966 124.413C209.368 121.422 218.753 114.677 224.349 104.967C229.945 95.2597 231.78 82.5427 227.997 67.5606L228.966 67.3158C232.803 82.5083 230.961 95.4992 225.216 105.467ZM209.714 97.2678C203.969 107.233 194.349 114.13 182.717 117.182L182.464 116.215C193.866 113.223 203.251 106.478 208.847 96.7684C214.443 87.0609 216.278 74.344 212.495 59.3619L213.464 59.117C217.301 74.3095 215.459 87.3004 209.714 97.2678ZM191.111 87.4292C185.367 97.3948 175.747 104.291 164.115 107.343L163.861 106.376C175.263 103.384 184.648 96.6391 190.245 86.9298C195.84 77.2223 197.676 64.5053 193.892 49.5232L194.862 49.2784C198.698 64.4709 196.856 77.4618 191.111 87.4292Z" fill="#C4C4C4"/>
<path fill-rule="evenodd" clip-rule="evenodd" d="M121.181 50.4444C116.177 60.8015 115.891 72.6349 119.916 83.9671L120.858 83.6324C116.913 72.5239 117.206 60.9703 122.082 50.8794C126.956 40.7905 136.434 32.1158 150.948 26.8106L150.604 25.8714C135.887 31.2511 126.186 40.0854 121.181 50.4444ZM136.683 58.6431C131.679 69.0003 131.393 80.8336 135.418 92.1658L136.36 91.8311C132.415 80.7226 132.708 69.169 137.584 59.0782C142.458 48.9892 151.936 40.3145 166.45 35.0093L166.106 34.0701C151.389 39.4498 141.688 48.2841 136.683 58.6431ZM155.286 68.4818C150.282 78.8389 149.996 90.6723 154.02 102.004L154.963 101.67C151.018 90.5613 151.311 79.0077 156.186 68.9168C161.061 58.8279 170.539 50.1532 185.052 44.848L184.709 43.9088C169.992 49.2885 160.291 58.1228 155.286 68.4818Z" fill="#C4C4C4"/>
<path fill-rule="evenodd" clip-rule="evenodd" d="M93.5192 52.2254C138.83 66.2226 208.992 103.101 242.443 130.991L241.803 131.759C208.465 103.963 138.425 67.1438 93.2241 53.1808L93.5192 52.2254ZM100.065 39.8496C145.376 53.8469 215.537 90.725 248.988 118.615L248.348 119.384C215.01 91.5876 144.97 54.7681 99.7694 40.8051L100.065 39.8496ZM106.376 27.9159C151.687 41.9131 221.849 78.7913 255.3 106.682L254.66 107.45C221.321 79.6539 151.281 42.8343 106.081 28.8713L106.376 27.9159Z" fill="#C4C4C4"/>
</g>
<path d="M399.762 72.04C400.602 71.24 401.542 70.5 402.582 69.82C403.502 69.26 404.582 68.74 405.822 68.26C407.062 67.78 408.442 67.54 409.962 67.54C412.042 67.54 413.762 68.08 415.122 69.16C416.482 70.2 417.162 71.64 417.162 73.48C417.162 74 417.102 74.64 416.982 75.4C416.862 76.12 416.722 76.88 416.562 77.68C416.402 78.48 416.222 79.3 416.022 80.14C415.862 80.94 415.722 81.66 415.602 82.3L413.082 94H400.902L404.202 78.34C404.282 77.82 404.382 77.3 404.502 76.78C404.622 76.22 404.682 75.72 404.682 75.28C404.682 74.68 404.522 74.2 404.202 73.84C403.922 73.44 403.482 73.24 402.882 73.24C402.162 73.24 401.462 73.5 400.782 74.02C400.142 74.54 399.642 74.98 399.282 75.34L395.322 94H383.082L388.542 68.2H398.322L399.402 72.04H399.762Z" fill="#595959"/>
<path d="M368.07 67.54C372.83 67.54 376.29 68.38 378.45 70.06C380.73 71.82 381.87 74.74 381.87 78.82C381.87 81.34 381.45 83.62 380.61 85.66C379.77 87.66 378.59 89.32 377.07 90.64C374.03 93.2 369.63 94.48 363.87 94.48C358.95 94.48 355.43 93.54 353.31 91.66C351.03 89.7 349.89 86.76 349.89 82.84C349.89 80.24 350.41 77.88 351.45 75.76C352.53 73.64 354.07 71.88 356.07 70.48C358.99 68.52 362.99 67.54 368.07 67.54ZM363.99 90.4C364.99 90.4 365.85 89.84 366.57 88.72C367.33 87.6 367.93 86.24 368.37 84.64C368.81 83 369.13 81.32 369.33 79.6C369.57 77.84 369.69 76.32 369.69 75.04C369.69 73.92 369.57 73.08 369.33 72.52C369.13 71.92 368.67 71.62 367.95 71.62C366.87 71.62 365.93 72.2 365.13 73.36C364.37 74.52 363.75 75.9 363.27 77.5C362.79 79.1 362.43 80.74 362.19 82.42C361.99 84.1 361.89 85.46 361.89 86.5C361.89 89.1 362.59 90.4 363.99 90.4Z" fill="#595959"/>
<path d="M343.172 94H330.992L336.452 68.2H348.752L343.172 94ZM350.312 60.34C350.312 61.26 350.112 62.06 349.712 62.74C349.352 63.42 348.852 64 348.212 64.48C347.612 64.96 346.912 65.32 346.112 65.56C345.312 65.8 344.492 65.92 343.652 65.92C342.052 65.92 340.712 65.54 339.632 64.78C338.552 64.02 338.012 62.82 338.012 61.18C338.012 60.3 338.192 59.52 338.552 58.84C338.912 58.12 339.392 57.54 339.992 57.1C340.632 56.62 341.352 56.26 342.152 56.02C342.992 55.78 343.852 55.66 344.732 55.66C346.292 55.66 347.612 56.04 348.692 56.8C349.772 57.56 350.312 58.74 350.312 60.34Z" fill="#595959"/>
<path d="M310.856 68.2C312.336 67.88 313.636 67.52 314.756 67.12C315.876 66.72 316.896 66.22 317.816 65.62C318.776 65.02 319.676 64.28 320.516 63.4C321.396 62.52 322.336 61.44 323.336 60.16H329.516L327.776 68.2H332.456L331.676 72.22H326.936L324.476 83.92C324.276 84.84 324.116 85.66 323.996 86.38C323.876 87.1 323.816 87.66 323.816 88.06C323.816 88.86 324.096 89.36 324.656 89.56C325.256 89.76 326.356 89.86 327.956 89.86L327.056 94C326.776 94.08 326.336 94.14 325.736 94.18C325.176 94.22 324.536 94.26 323.816 94.3C323.136 94.38 322.416 94.42 321.656 94.42C320.936 94.46 320.296 94.48 319.736 94.48C318.736 94.48 317.756 94.4 316.796 94.24C315.836 94.12 314.976 93.86 314.216 93.46C313.456 93.02 312.836 92.4 312.356 91.6C311.916 90.8 311.696 89.72 311.696 88.36C311.696 87.88 311.716 87.28 311.756 86.56C311.836 85.84 311.976 85.04 312.176 84.16L314.696 72.22H310.016L310.856 68.2Z" fill="#595959"/>
<path d="M283.181 104.08H270.941L278.501 68.2H288.281L289.361 72.04H289.721C291.161 70.52 292.761 69.44 294.521 68.8C296.321 68.12 298.081 67.78 299.801 67.78C301.201 67.78 302.361 68 303.281 68.44C304.241 68.84 305.001 69.4 305.561 70.12C306.121 70.84 306.521 71.7 306.761 72.7C307.001 73.7 307.121 74.76 307.121 75.88C307.121 76.44 307.081 77.28 307.001 78.4C306.921 79.52 306.741 80.78 306.461 82.18C306.181 83.54 305.781 84.96 305.261 86.44C304.741 87.88 304.041 89.2 303.161 90.4C302.321 91.6 301.241 92.58 299.921 93.34C298.641 94.1 297.101 94.48 295.301 94.48C294.301 94.48 293.321 94.36 292.361 94.12C291.441 93.88 290.601 93.56 289.841 93.16C289.081 92.76 288.401 92.3 287.801 91.78C287.241 91.22 286.821 90.66 286.541 90.1H286.181L283.181 104.08ZM289.541 88.66C290.501 88.66 291.301 88.16 291.941 87.16C292.581 86.12 293.101 84.92 293.501 83.56C293.901 82.16 294.181 80.78 294.341 79.42C294.541 78.02 294.641 76.98 294.641 76.3C294.641 75.5 294.501 74.84 294.221 74.32C293.981 73.8 293.521 73.54 292.841 73.54C292.081 73.54 291.361 73.82 290.681 74.38C290.001 74.9 289.501 75.36 289.181 75.76L286.841 86.74C287.161 87.18 287.541 87.62 287.981 88.06C288.421 88.46 288.941 88.66 289.541 88.66Z" fill="#595959"/>
<path d="M267.703 94H255.523L260.983 68.2H273.283L267.703 94ZM274.843 60.34C274.843 61.26 274.643 62.06 274.243 62.74C273.883 63.42 273.383 64 272.743 64.48C272.143 64.96 271.443 65.32 270.643 65.56C269.843 65.8 269.023 65.92 268.183 65.92C266.583 65.92 265.243 65.54 264.163 64.78C263.083 64.02 262.543 62.82 262.543 61.18C262.543 60.3 262.723 59.52 263.083 58.84C263.443 58.12 263.923 57.54 264.523 57.1C265.163 56.62 265.883 56.26 266.683 56.02C267.523 55.78 268.383 55.66 269.263 55.66C270.823 55.66 272.143 56.04 273.223 56.8C274.303 57.56 274.843 58.74 274.843 60.34Z" fill="#595959"/>
<path d="M231.979 68.2H241.759L242.659 72.7H243.079C243.999 71.26 245.179 70.04 246.619 69.04C248.059 68.04 249.959 67.54 252.319 67.54C252.479 67.54 252.719 67.56 253.039 67.6C253.399 67.6 253.779 67.66 254.179 67.78C254.619 67.86 255.059 68 255.499 68.2C255.979 68.36 256.439 68.6 256.879 68.92L254.239 81.28H247.699C247.619 78.8 247.399 77.08 247.039 76.12C246.679 75.12 246.099 74.62 245.299 74.62C244.899 74.62 244.459 74.72 243.979 74.92C243.539 75.08 243.079 75.46 242.599 76.06L238.759 94H226.519L231.979 68.2Z" fill="#595959"/>
<path d="M222.47 92.56C220.79 93.24 219.01 93.72 217.13 94C215.29 94.32 213.19 94.48 210.83 94.48C208.75 94.48 206.83 94.28 205.07 93.88C203.35 93.44 201.85 92.76 200.57 91.84C199.29 90.92 198.29 89.74 197.57 88.3C196.85 86.82 196.49 85.04 196.49 82.96C196.49 80.8 196.85 78.8 197.57 76.96C198.33 75.08 199.45 73.44 200.93 72.04C202.45 70.64 204.37 69.54 206.69 68.74C209.01 67.94 211.77 67.54 214.97 67.54C217.57 67.54 219.83 67.76 221.75 68.2C223.67 68.6 225.25 69.54 226.49 71.02L224.81 78.7H216.65C216.69 78.02 216.73 77.42 216.77 76.9C216.81 76.38 216.83 75.8 216.83 75.16C216.83 73.88 216.69 72.98 216.41 72.46C216.13 71.9 215.67 71.62 215.03 71.62C213.91 71.62 212.93 72.18 212.09 73.3C211.25 74.38 210.55 75.7 209.99 77.26C209.47 78.78 209.07 80.4 208.79 82.12C208.55 83.8 208.43 85.24 208.43 86.44C208.43 86.88 208.45 87.34 208.49 87.82C208.53 88.26 208.61 88.68 208.73 89.08C208.89 89.48 209.09 89.8 209.33 90.04C209.57 90.28 209.91 90.4 210.35 90.4C210.75 90.4 211.21 90.28 211.73 90.04C212.25 89.8 212.75 89.44 213.23 88.96C213.71 88.44 214.17 87.78 214.61 86.98C215.05 86.18 215.39 85.22 215.63 84.1H224.21L222.47 92.56Z" fill="#595959"/>
<path d="M185.246 75.76C185.286 75.56 185.326 75.36 185.366 75.16C185.406 74.96 185.426 74.74 185.426 74.5C185.426 73.78 185.286 73.12 185.006 72.52C184.766 71.88 184.266 71.56 183.506 71.56C182.826 71.56 182.146 71.86 181.466 72.46C180.786 73.02 180.446 73.78 180.446 74.74C180.446 75.38 180.606 75.9 180.926 76.3C181.286 76.66 181.746 76.96 182.306 77.2C182.866 77.44 183.486 77.64 184.166 77.8C184.886 77.96 185.586 78.12 186.266 78.28C187.226 78.52 188.126 78.82 188.966 79.18C189.846 79.5 190.626 79.94 191.306 80.5C191.986 81.06 192.526 81.76 192.926 82.6C193.326 83.4 193.526 84.4 193.526 85.6C193.526 87.28 193.126 88.7 192.326 89.86C191.566 90.98 190.486 91.9 189.086 92.62C187.726 93.3 186.106 93.78 184.226 94.06C182.386 94.34 180.406 94.48 178.286 94.48C175.046 94.48 172.366 94.24 170.246 93.76C168.126 93.28 166.646 92.82 165.806 92.38L167.066 86.38H175.166C175.126 86.58 175.106 86.78 175.106 86.98C175.106 87.14 175.106 87.32 175.106 87.52C175.106 88.44 175.306 89.18 175.706 89.74C176.146 90.26 176.886 90.52 177.926 90.52C179.086 90.52 179.906 90.2 180.386 89.56C180.906 88.88 181.166 88.26 181.166 87.7C181.166 87.14 180.946 86.66 180.506 86.26C180.106 85.82 179.586 85.46 178.946 85.18C178.306 84.86 177.586 84.6 176.786 84.4C176.026 84.16 175.286 83.94 174.566 83.74C174.046 83.62 173.446 83.42 172.766 83.14C172.126 82.86 171.506 82.46 170.906 81.94C170.306 81.42 169.806 80.76 169.406 79.96C169.006 79.12 168.806 78.08 168.806 76.84C168.806 75.08 169.226 73.62 170.066 72.46C170.946 71.26 172.066 70.3 173.426 69.58C174.826 68.86 176.386 68.34 178.106 68.02C179.866 67.7 181.626 67.54 183.386 67.54C185.586 67.54 187.666 67.74 189.626 68.14C191.586 68.54 193.186 69.06 194.426 69.7L193.046 75.76H185.246Z" fill="#595959"/>
<path d="M147.094 81.94C146.934 82.82 146.814 83.66 146.734 84.46C146.694 85.26 146.674 85.98 146.674 86.62C146.674 86.98 146.694 87.38 146.734 87.82C146.774 88.26 146.854 88.68 146.974 89.08C147.134 89.44 147.334 89.76 147.574 90.04C147.854 90.28 148.234 90.4 148.714 90.4C149.074 90.4 149.474 90.28 149.914 90.04C150.394 89.8 150.854 89.46 151.294 89.02C151.774 88.58 152.214 88.04 152.614 87.4C153.054 86.76 153.394 86.04 153.634 85.24H163.474L161.914 91.66C161.114 92.18 160.194 92.62 159.154 92.98C158.114 93.34 157.014 93.64 155.854 93.88C154.694 94.08 153.514 94.22 152.314 94.3C151.114 94.42 149.974 94.48 148.894 94.48C146.894 94.48 145.034 94.3 143.314 93.94C141.594 93.58 140.094 92.96 138.814 92.08C137.534 91.2 136.514 90.04 135.754 88.6C135.034 87.12 134.674 85.3 134.674 83.14C134.674 81.18 134.974 79.26 135.574 77.38C136.214 75.5 137.254 73.84 138.694 72.4C140.174 70.92 142.134 69.74 144.574 68.86C147.054 67.98 150.134 67.54 153.814 67.54C157.814 67.54 160.814 68.16 162.814 69.4C164.854 70.64 165.874 72.58 165.874 75.22C165.874 76.3 165.714 77.48 165.394 78.76C165.074 80 164.594 81.06 163.954 81.94H147.094ZM155.074 74.8C155.074 73.56 154.874 72.72 154.474 72.28C154.074 71.84 153.594 71.62 153.034 71.62C152.394 71.62 151.794 71.84 151.234 72.28C150.714 72.68 150.234 73.24 149.794 73.96C149.354 74.64 148.954 75.44 148.594 76.36C148.234 77.24 147.934 78.18 147.694 79.18H154.534C154.614 78.7 154.694 78.2 154.774 77.68C154.854 77.24 154.914 76.76 154.954 76.24C155.034 75.72 155.074 75.24 155.074 74.8Z" fill="#595959"/>
<path d="M109.87 68.2H119.65L120.55 72.7H120.97C121.89 71.26 123.07 70.04 124.51 69.04C125.95 68.04 127.85 67.54 130.21 67.54C130.37 67.54 130.61 67.56 130.93 67.6C131.29 67.6 131.67 67.66 132.07 67.78C132.51 67.86 132.95 68 133.39 68.2C133.87 68.36 134.33 68.6 134.77 68.92L132.13 81.28H125.59C125.51 78.8 125.29 77.08 124.93 76.12C124.57 75.12 123.99 74.62 123.19 74.62C122.79 74.62 122.35 74.72 121.87 74.92C121.43 75.08 120.97 75.46 120.49 76.06L116.65 94H104.41L109.87 68.2Z" fill="#595959"/>
<path d="M88.2932 77.56C89.4932 77.56 90.4932 77.06 91.2932 76.06C92.1332 75.06 92.8132 73.84 93.3332 72.4C93.8932 70.96 94.2932 69.46 94.5332 67.9C94.7732 66.34 94.8932 64.98 94.8932 63.82C94.8932 62.74 94.7132 61.84 94.3532 61.12C93.9932 60.36 93.2132 59.98 92.0132 59.98H89.3132L85.5332 77.56H88.2932ZM84.6932 81.4L81.9932 94H69.0332L77.1332 55.9H90.9932C93.2732 55.9 95.3532 56.02 97.2332 56.26C99.1132 56.5 100.733 56.98 102.093 57.7C103.453 58.42 104.513 59.46 105.273 60.82C106.033 62.14 106.413 63.92 106.413 66.16C106.413 68.24 106.073 70.22 105.393 72.1C104.753 73.94 103.693 75.56 102.213 76.96C100.773 78.32 98.8932 79.4 96.5732 80.2C94.2532 81 91.4332 81.4 88.1132 81.4H84.6932Z" fill="#595959"/>
<path d="M62.2724 60.46H52.6124L45.4724 94H32.5124L39.6524 60.46H30.1124L31.1924 55.9H63.2924L62.2724 60.46Z" fill="#595959"/>
<path d="M19.1221 94H6.16211L14.2621 55.9H27.2821L19.1221 94Z" fill="#595959"/>
<path fill-rule="evenodd" clip-rule="evenodd" d="M399.594 75.04C399.648 74.9902 399.704 74.9392 399.762 74.8869C400.049 74.628 400.389 74.3391 400.782 74.02C400.957 73.8856 401.135 73.7686 401.313 73.6689C401.825 73.383 402.348 73.24 402.882 73.24C402.906 73.24 402.93 73.2403 402.954 73.241C403.517 73.2566 403.933 73.4562 404.202 73.84C404.522 74.2 404.682 74.68 404.682 75.28C404.682 75.72 404.622 76.22 404.502 76.78C404.382 77.3 404.282 77.82 404.202 78.34L400.902 94H413.082L415.602 82.3C415.722 81.66 415.862 80.94 416.022 80.14C416.222 79.3 416.402 78.48 416.562 77.68C416.722 76.88 416.862 76.12 416.982 75.4C417.102 74.64 417.162 74 417.162 73.48C417.162 71.64 416.482 70.2 415.122 69.16C413.762 68.08 412.042 67.54 409.962 67.54C408.442 67.54 407.062 67.78 405.822 68.26C404.582 68.74 403.502 69.26 402.582 69.82C402.385 69.9483 402.193 70.0787 402.004 70.2113C401.946 70.2515 401.889 70.2919 401.833 70.3325C401.145 70.8247 400.506 71.3457 399.915 71.8956C399.864 71.9435 399.812 71.9917 399.762 72.04H399.402L398.322 68.2H388.542L383.082 94H395.322L399.282 75.34C399.376 75.2455 399.48 75.1455 399.594 75.04ZM379.38 97L380.571 91.3737C380.097 91.9171 379.586 92.4281 379.037 92.9051L379.02 92.9201L379.002 92.9347C375.224 96.1167 370.027 97.48 363.87 97.48C358.72 97.48 354.288 96.5249 351.338 93.9206C349.466 92.3062 348.24 90.262 347.558 87.9126L345.592 97H327.393C326.919 97.0925 326.412 97.1414 325.942 97.1729C325.388 97.2124 324.764 97.2516 324.071 97.2904C323.319 97.3751 322.541 97.4171 321.74 97.4199C321.012 97.4592 320.342 97.48 319.736 97.48C318.595 97.48 317.469 97.3903 316.361 97.2088C315.11 97.046 313.918 96.6932 312.818 96.1148L312.765 96.0866L312.713 96.0563C311.485 95.3457 310.508 94.3512 309.783 93.1435L309.754 93.0952L309.727 93.0458C308.953 91.6382 308.696 89.9967 308.696 88.36C308.696 87.8045 308.719 87.1445 308.76 86.3936L308.765 86.311L308.774 86.2287C308.868 85.3804 309.028 84.4749 309.245 83.5191C309.247 83.5111 309.248 83.5031 309.25 83.4951L309.35 83.0224C309.043 84.4554 308.621 85.9266 308.092 87.4345L308.087 87.4467L308.083 87.4589C307.472 89.1504 306.645 90.7172 305.6 92.1479C304.504 93.7045 303.103 94.9666 301.435 95.93C299.608 97.0102 297.52 97.48 295.301 97.48C294.058 97.48 292.834 97.3306 291.634 97.0304L291.619 97.0267L291.604 97.0229C290.485 96.731 289.427 96.3324 288.444 95.8148C288.317 95.748 288.191 95.6796 288.067 95.6096L285.606 107.08H267.243L269.367 97H251.822L254.514 84.28H244.794L244.701 81.3767C244.693 81.14 244.684 80.9143 244.674 80.6993L241.185 97H222.818L223.13 95.5239C221.371 96.1957 219.528 96.6734 217.608 96.9619C215.57 97.3136 213.305 97.48 210.83 97.48C208.559 97.48 206.413 97.2618 204.405 96.8054L204.366 96.7964L204.327 96.7864C202.29 96.2654 200.439 95.44 198.819 94.2761C197.422 93.2715 196.277 92.0265 195.395 90.5654C195.22 90.9041 195.022 91.234 194.802 91.5541C193.718 93.1483 192.228 94.3777 190.458 95.2879L190.443 95.2957L190.428 95.3033C188.725 96.1546 186.789 96.7111 184.672 97.0267C182.665 97.3317 180.535 97.48 178.286 97.48C174.921 97.48 171.999 97.2328 169.584 96.686C167.451 96.2031 165.632 95.6753 164.414 95.0375L163.194 94.3982C162.256 94.9674 161.231 95.4356 160.135 95.815C158.964 96.2203 157.739 96.5536 156.461 96.8178L156.413 96.8279L156.363 96.8364C155.115 97.0517 153.848 97.2027 152.563 97.29C151.293 97.4156 150.069 97.48 148.894 97.48C146.715 97.48 144.647 97.284 142.699 96.8764C140.641 96.4456 138.762 95.6849 137.114 94.5521C135.415 93.3839 134.076 91.848 133.101 90.0003L133.078 89.9567L133.056 89.9124C132.236 88.2261 131.815 86.3242 131.704 84.28H122.685L122.591 81.3767C122.584 81.1399 122.575 80.9142 122.565 80.6992L119.076 97H100.708L104.543 78.8798C104.455 78.9671 104.365 79.0537 104.275 79.1394L104.273 79.141C102.458 80.855 100.181 82.1295 97.5512 83.0361C94.8274 83.9754 91.6565 84.4 88.1132 84.4H87.1185L84.4185 97H65.3284L74.704 52.9H90.9932C93.3757 52.9 95.5849 53.0252 97.6131 53.2842C99.771 53.5596 101.754 54.1257 103.497 55.0486C105.369 56.0398 106.845 57.4897 107.883 59.3399C108.851 61.0296 109.294 63.0374 109.392 65.2H122.109L122.436 66.8347C122.555 66.7471 122.676 66.6608 122.799 66.5759C124.888 65.1248 127.446 64.54 130.21 64.54C130.509 64.54 130.835 64.5685 131.138 64.6035C131.701 64.6221 132.247 64.7149 132.771 64.86C133.364 64.9805 133.938 65.166 134.491 65.4067C135.226 65.6688 135.907 66.0379 136.534 66.4938L138.111 67.6403L137.779 69.1941C139.418 67.8682 141.364 66.8286 143.556 66.0379L143.563 66.0353L143.57 66.0327C146.473 65.0028 149.918 64.54 153.814 64.54C158.021 64.54 161.684 65.1738 164.384 66.8438C165.929 67.7858 167.065 69.0195 167.807 70.4722C168.939 68.9942 170.356 67.811 172.023 66.9286L172.038 66.9203L172.054 66.9121C173.74 66.0449 175.582 65.4381 177.557 65.0706L177.57 65.0684C179.504 64.7167 181.443 64.54 183.386 64.54C185.768 64.54 188.05 64.7565 190.226 65.2006C192.35 65.634 194.237 66.2261 195.802 67.0341L197.867 68.1001L196.99 71.951C197.553 71.2099 198.179 70.5127 198.868 69.8606L198.883 69.8469L198.898 69.8334C200.774 68.1056 203.073 66.8139 205.712 65.9039C208.426 64.9681 211.533 64.54 214.97 64.54C217.717 64.54 220.202 64.7704 222.392 65.2694C224.921 65.8027 227.07 67.0687 228.737 69.0308L229.548 65.2H244.219L244.546 66.8347C244.665 66.7471 244.786 66.6608 244.908 66.5759C246.998 65.1248 249.555 64.54 252.319 64.54C252.619 64.54 252.945 64.5685 253.248 64.6035C253.81 64.6221 254.356 64.7149 254.88 64.86C255.473 64.9805 256.047 65.166 256.601 65.4067C257.212 65.625 257.787 65.9174 258.325 66.2724L258.551 65.2H260.552C259.847 64.0015 259.543 62.6106 259.543 61.18C259.543 59.8934 259.807 58.6306 260.415 57.4682C260.967 56.3751 261.736 55.4269 262.736 54.6904C263.667 53.9943 264.703 53.4819 265.821 53.1465L265.84 53.1409L265.859 53.1354C266.969 52.8183 268.106 52.66 269.263 52.66C271.326 52.66 273.278 53.17 274.95 54.3466C277.002 55.7909 277.843 57.9979 277.843 60.34C277.843 61.6828 277.552 63.0046 276.863 64.2018C276.674 64.5528 276.461 64.8855 276.227 65.2H290.554L291.093 67.1167C291.852 66.6686 292.647 66.2907 293.478 65.9872C295.571 65.1984 297.684 64.78 299.801 64.78C301.464 64.78 303.076 65.0337 304.504 65.7C305.786 66.2452 306.919 67.0402 307.807 68.1246L308.318 65.6795L310.222 65.2678C311.607 64.9682 312.777 64.6411 313.747 64.2948C314.663 63.9674 315.469 63.5686 316.177 63.1072L316.201 63.0914L316.226 63.076C316.958 62.6182 317.666 62.0409 318.346 61.3286L318.37 61.3033L318.394 61.2787C319.167 60.5066 320.026 59.524 320.972 58.3131L321.872 57.16H333.234L331.494 65.2H336.021C335.316 64.0015 335.012 62.6106 335.012 61.18C335.012 59.8934 335.276 58.6305 335.884 57.4682C336.436 56.3751 337.205 55.4269 338.205 54.6904C339.136 53.9943 340.172 53.4819 341.29 53.1465L341.309 53.1409L341.328 53.1354C342.438 52.8183 343.575 52.66 344.732 52.66C346.795 52.66 348.746 53.17 350.418 54.3466C352.471 55.7909 353.312 57.9979 353.312 60.34C353.312 61.6828 353.021 63.0046 352.332 64.2018C352.143 64.5528 351.93 64.8855 351.695 65.2H352.47L351.27 70.7464C352.174 69.7344 353.202 68.8256 354.35 68.0223L354.374 68.0055L354.398 67.9891C357.987 65.5801 362.647 64.54 368.07 64.54C373.052 64.54 377.335 65.3944 380.288 67.6889C382.325 69.2634 383.598 71.3981 384.271 73.8899L386.11 65.2H400.594L401.151 67.1795C402.221 66.5405 403.423 65.9715 404.739 65.4623C406.37 64.8309 408.124 64.54 409.962 64.54C412.571 64.54 414.98 65.2254 416.965 66.7933C419.115 68.4474 420.162 70.7953 420.162 73.48C420.162 74.2117 420.079 75.0192 419.945 75.8679L419.943 75.8806L419.941 75.8932C419.815 76.6484 419.669 77.4403 419.503 78.2684C419.339 79.0889 419.156 79.9266 418.953 80.7813C418.799 81.5509 418.665 82.2412 418.55 82.8529L418.543 82.8924L415.504 97H379.38ZM378.45 70.06C376.29 68.38 372.83 67.54 368.07 67.54C362.99 67.54 358.99 68.52 356.07 70.48C354.07 71.88 352.53 73.64 351.45 75.76C350.41 77.88 349.89 80.24 349.89 82.84C349.89 86.76 351.03 89.7 353.31 91.66C355.43 93.54 358.95 94.48 363.87 94.48C369.63 94.48 374.03 93.2 377.07 90.64C378.59 89.32 379.77 87.66 380.61 85.66C381.45 83.62 381.87 81.34 381.87 78.82C381.87 74.74 380.73 71.82 378.45 70.06ZM369.33 79.6C369.13 81.32 368.81 83 368.37 84.64C367.93 86.24 367.33 87.6 366.57 88.72C365.85 89.84 364.99 90.4 363.99 90.4C362.59 90.4 361.89 89.1 361.89 86.5C361.89 85.46 361.99 84.1 362.19 82.42C362.43 80.74 362.79 79.1 363.27 77.5C363.75 75.9 364.37 74.52 365.13 73.36C365.93 72.2 366.87 71.62 367.95 71.62C368.67 71.62 369.13 71.92 369.33 72.52C369.57 73.08 369.69 73.92 369.69 75.04C369.69 76.32 369.57 77.84 369.33 79.6ZM366.597 77.0485C366.436 77.4559 366.284 77.8932 366.143 78.3621C365.71 79.8055 365.384 81.2875 365.165 82.8096C365.04 83.8606 364.961 84.7447 364.921 85.4726C365.124 84.99 365.31 84.4519 365.475 83.8535C365.875 82.3606 366.167 80.8277 366.35 79.2535L366.353 79.224L366.357 79.1947C366.464 78.4161 366.543 77.7014 366.597 77.0485ZM348.212 64.48C348.852 64 349.352 63.42 349.712 62.74C350.112 62.06 350.312 61.26 350.312 60.34C350.312 58.74 349.772 57.56 348.692 56.8C347.612 56.04 346.292 55.66 344.732 55.66C343.852 55.66 342.992 55.78 342.152 56.02C341.352 56.26 340.632 56.62 339.992 57.1C339.392 57.54 338.912 58.12 338.552 58.84C338.192 59.52 338.012 60.3 338.012 61.18C338.012 62.82 338.552 64.02 339.632 64.78C339.854 64.936 340.086 65.076 340.33 65.2C341.273 65.68 342.38 65.92 343.652 65.92C344.492 65.92 345.312 65.8 346.112 65.56C346.443 65.4606 346.757 65.3406 347.054 65.2C347.475 65.0012 347.86 64.7612 348.212 64.48ZM331.9 75.22H329.371L327.409 84.5473L327.407 84.5573C327.218 85.4291 327.069 86.1897 326.96 86.8433C327.251 86.8541 327.583 86.86 327.956 86.86H329.436L331.9 75.22ZM324.656 89.56C324.096 89.36 323.816 88.86 323.816 88.06C323.816 87.66 323.876 87.1 323.996 86.38C324.116 85.66 324.276 84.84 324.476 83.92L326.936 72.22H331.676L332.456 68.2H327.776L329.516 60.16H323.336C322.336 61.44 321.396 62.52 320.516 63.4C319.676 64.28 318.776 65.02 317.816 65.62C316.896 66.22 315.876 66.72 314.756 67.12C313.636 67.52 312.336 67.88 310.856 68.2L310.016 72.22H314.696L312.176 84.16C311.976 85.04 311.836 85.84 311.756 86.56C311.716 87.28 311.696 87.88 311.696 88.36C311.696 89.72 311.916 90.8 312.356 91.6C312.836 92.4 313.456 93.02 314.216 93.46C314.976 93.86 315.836 94.12 316.796 94.24C317.756 94.4 318.736 94.48 319.736 94.48C320.296 94.48 320.936 94.46 321.656 94.42C322.416 94.42 323.136 94.38 323.816 94.3C324.536 94.26 325.176 94.22 325.736 94.18C326.336 94.14 326.776 94.08 327.056 94L327.956 89.86C326.578 89.86 325.57 89.7858 324.934 89.6374C324.832 89.6135 324.739 89.5877 324.656 89.56ZM310.996 75.22L309.403 82.7684C309.701 81.2761 309.903 79.8879 309.994 78.6138C310.075 77.4783 310.121 76.5511 310.121 75.88C310.121 75.6589 310.117 75.4389 310.109 75.22H310.996ZM307.107 75.22C307.072 74.4155 306.972 73.6432 306.808 72.9034C306.793 72.8353 306.777 72.7675 306.761 72.7C306.521 71.7 306.121 70.84 305.561 70.12C305.001 69.4 304.241 68.84 303.281 68.44C302.361 68 301.201 67.78 299.801 67.78C298.081 67.78 296.321 68.12 294.521 68.8C293.619 69.1281 292.759 69.5718 291.941 70.1311C291.629 70.3439 291.324 70.5734 291.025 70.8196C290.624 71.15 290.234 71.5106 289.854 71.9014C289.81 71.9472 289.765 71.9934 289.721 72.04H289.361L288.281 68.2H278.501L270.941 104.08H283.181L286.181 90.1H286.541C286.556 90.1289 286.57 90.1579 286.586 90.1868C286.751 90.502 286.962 90.8173 287.216 91.1325C287.39 91.3484 287.585 91.5642 287.801 91.78C288.093 92.0333 288.405 92.2724 288.735 92.4973C289.083 92.734 289.451 92.9549 289.841 93.16C290.601 93.56 291.441 93.88 292.361 94.12C293.321 94.36 294.301 94.48 295.301 94.48C297.101 94.48 298.641 94.1 299.921 93.34C301.241 92.58 302.321 91.6 303.161 90.4C304.041 89.2 304.741 87.88 305.261 86.44C305.781 84.96 306.181 83.54 306.461 82.18C306.741 80.78 306.921 79.52 307.001 78.4C307.081 77.28 307.121 76.44 307.121 75.88C307.121 75.6576 307.116 75.4376 307.107 75.22ZM289.161 88.6316C289.284 88.6506 289.411 88.66 289.541 88.66C290.501 88.66 291.301 88.16 291.941 87.16C292.581 86.12 293.101 84.92 293.501 83.56C293.901 82.16 294.181 80.78 294.341 79.42C294.541 78.02 294.641 76.98 294.641 76.3C294.641 75.5 294.501 74.84 294.221 74.32C293.981 73.8 293.521 73.54 292.841 73.54C292.706 73.54 292.573 73.5488 292.44 73.5665C292.15 73.6051 291.867 73.6861 291.589 73.8093C291.279 73.9468 290.976 74.1371 290.681 74.38C290.378 74.6119 290.11 74.8319 289.879 75.04C289.591 75.2984 289.358 75.5384 289.181 75.76L286.841 86.74C286.928 86.86 287.02 86.98 287.116 87.1C287.373 87.42 287.661 87.74 287.981 88.06C288.325 88.373 288.719 88.5636 289.161 88.6316ZM336.452 68.2L330.992 94H343.172L348.752 68.2H336.452ZM272.743 64.48C273.383 64 273.883 63.42 274.243 62.74C274.643 62.06 274.843 61.26 274.843 60.34C274.843 58.74 274.303 57.56 273.223 56.8C272.143 56.04 270.823 55.66 269.263 55.66C268.383 55.66 267.523 55.78 266.683 56.02C265.883 56.26 265.163 56.62 264.523 57.1C263.923 57.54 263.443 58.12 263.083 58.84C262.723 59.52 262.543 60.3 262.543 61.18C262.543 62.82 263.083 64.02 264.163 64.78C264.385 64.936 264.617 65.076 264.861 65.2C265.804 65.68 266.911 65.92 268.183 65.92C269.023 65.92 269.843 65.8 270.643 65.56C270.974 65.4606 271.289 65.3406 271.586 65.2C272.006 65.0012 272.392 64.7612 272.743 64.48ZM260.983 68.2L255.523 94H267.703L273.283 68.2H260.983ZM255.499 68.2C255.059 68 254.619 67.86 254.179 67.78C253.779 67.66 253.399 67.6 253.039 67.6C252.719 67.56 252.479 67.54 252.319 67.54C249.959 67.54 248.059 68.04 246.619 69.04C246.118 69.3878 245.649 69.7621 245.211 70.1631C244.644 70.6826 244.129 71.2468 243.668 71.8556C243.484 72.0978 243.308 72.3472 243.141 72.6036C243.14 72.6051 243.139 72.6066 243.138 72.608C243.119 72.6386 243.099 72.6693 243.079 72.7H242.659L241.759 68.2H231.979L226.519 94H238.759L242.599 76.06C242.703 75.9296 242.807 75.8096 242.909 75.7C242.966 75.6391 243.023 75.5814 243.079 75.5269C243.388 75.2282 243.688 75.0259 243.979 74.92C244.459 74.72 244.899 74.62 245.299 74.62C245.337 74.62 245.374 74.6211 245.41 74.6233C246.153 74.6681 246.696 75.167 247.039 76.12C247.399 77.08 247.619 78.8 247.699 81.28H254.239L256.879 68.92C256.439 68.6 255.979 68.36 255.499 68.2ZM213.504 81.1L213.655 78.5238C213.696 77.831 213.737 77.2123 213.779 76.6699C213.793 76.4925 213.804 76.3025 213.812 76.0996C213.454 76.7089 213.121 77.422 212.821 78.2526C212.366 79.5864 212.009 81.0252 211.756 82.5737C211.533 84.1426 211.431 85.4174 211.43 86.4217C211.603 86.1795 211.788 85.8864 211.981 85.5343C212.25 85.0458 212.503 84.3749 212.697 83.4714L213.205 81.1H213.504ZM208.49 87.82C208.45 87.34 208.43 86.88 208.43 86.44C208.43 85.24 208.55 83.8 208.79 82.12C209.07 80.4 209.47 78.78 209.99 77.26C210.55 75.7 211.25 74.38 212.09 73.3C212.93 72.18 213.91 71.62 215.03 71.62C215.67 71.62 216.13 71.9 216.41 72.46C216.69 72.98 216.83 73.88 216.83 75.16C216.83 75.345 216.828 75.525 216.825 75.7C216.817 76.1303 216.799 76.5303 216.77 76.9C216.73 77.42 216.69 78.02 216.65 78.7H224.81L226.49 71.02C225.25 69.54 223.67 68.6 221.75 68.2C219.83 67.76 217.57 67.54 214.97 67.54C211.77 67.54 209.01 67.94 206.69 68.74C204.37 69.54 202.45 70.64 200.93 72.04C199.45 73.44 198.33 75.08 197.57 76.96C196.85 78.8 196.49 80.8 196.49 82.96C196.49 85.04 196.85 86.82 197.57 88.3C198.29 89.74 199.29 90.92 200.57 91.84C201.85 92.76 203.35 93.44 205.07 93.88C206.83 94.28 208.75 94.48 210.83 94.48C213.19 94.48 215.29 94.32 217.13 94C219.01 93.72 220.79 93.24 222.47 92.56L224.21 84.1H215.63C215.39 85.22 215.05 86.18 214.61 86.98C214.17 87.78 213.71 88.44 213.23 88.96C212.75 89.44 212.25 89.8 211.73 90.04C211.21 90.28 210.75 90.4 210.35 90.4C209.91 90.4 209.57 90.28 209.33 90.04C209.09 89.8 208.89 89.48 208.73 89.08C208.61 88.68 208.53 88.26 208.49 87.82ZM193.915 78.76H193.847C193.866 78.7786 193.884 78.7973 193.903 78.816C193.907 78.7973 193.911 78.7787 193.915 78.76ZM192.926 82.6C192.526 81.76 191.986 81.06 191.306 80.5C190.626 79.94 189.846 79.5 188.966 79.18C188.615 79.0295 188.253 78.8895 187.881 78.76C187.363 78.5797 186.825 78.4197 186.266 78.28C185.931 78.2011 185.591 78.1223 185.246 78.0434C184.891 77.9623 184.531 77.8811 184.166 77.8C183.486 77.64 182.866 77.44 182.306 77.2C182.177 77.1445 182.053 77.0859 181.934 77.024C181.539 76.8181 181.203 76.5768 180.926 76.3C180.606 75.9 180.446 75.38 180.446 74.74C180.446 73.78 180.786 73.02 181.466 72.46C182.146 71.86 182.826 71.56 183.506 71.56C184.266 71.56 184.766 71.88 185.006 72.52C185.103 72.7272 185.183 72.9416 185.246 73.1631C185.366 73.583 185.426 74.0287 185.426 74.5C185.426 74.6778 185.415 74.8446 185.393 75.0005C185.386 75.055 185.377 75.1082 185.366 75.16L185.246 75.76H193.046L194.426 69.7C193.186 69.06 191.586 68.54 189.626 68.14C187.666 67.74 185.586 67.54 183.386 67.54C181.626 67.54 179.866 67.7 178.106 68.02C176.386 68.34 174.826 68.86 173.426 69.58C172.066 70.3 170.946 71.26 170.066 72.46C169.406 73.3722 169.005 74.47 168.864 75.7533C168.834 76.0256 168.815 76.3063 168.809 76.5953C168.807 76.6762 168.806 76.7578 168.806 76.84C168.806 78.08 169.006 79.12 169.406 79.96C169.806 80.76 170.306 81.42 170.906 81.94C171.506 82.46 172.126 82.86 172.766 83.14C172.98 83.2279 173.185 83.3079 173.383 83.38C173.815 83.5377 174.209 83.6577 174.566 83.74C174.765 83.7951 174.965 83.8518 175.166 83.91C175.696 84.0628 176.236 84.2262 176.786 84.4C177.408 84.5555 177.981 84.7472 178.507 84.9751C178.657 85.0404 178.804 85.1087 178.946 85.18C179.586 85.46 180.106 85.82 180.506 86.26C180.946 86.66 181.166 87.14 181.166 87.7C181.166 88.26 180.906 88.88 180.386 89.56C179.906 90.2 179.086 90.52 177.926 90.52C176.886 90.52 176.146 90.26 175.706 89.74C175.433 89.3571 175.253 88.89 175.166 88.3388C175.126 88.0838 175.106 87.8109 175.106 87.52V86.98C175.106 86.78 175.126 86.58 175.166 86.38H167.066L165.806 92.38C166.646 92.82 168.126 93.28 170.246 93.76C172.366 94.24 175.046 94.48 178.286 94.48C180.406 94.48 182.386 94.34 184.226 94.06C186.106 93.78 187.726 93.3 189.086 92.62C190.486 91.9 191.566 90.98 192.326 89.86C193.126 88.7 193.526 87.28 193.526 85.6C193.526 84.4 193.326 83.4 192.926 82.6ZM168.109 83.38C167.806 83.0352 167.53 82.6677 167.28 82.2806L167.013 83.38H168.109ZM150.557 84.94H149.714C149.691 85.4628 149.678 85.9388 149.675 86.3693C149.804 86.2089 149.936 86.0237 150.07 85.81L150.104 85.7544L150.142 85.7004C150.297 85.475 150.436 85.2232 150.557 84.94ZM146.974 89.08C146.854 88.68 146.774 88.26 146.734 87.82C146.694 87.38 146.674 86.98 146.674 86.62C146.674 85.98 146.694 85.26 146.734 84.46C146.806 83.733 146.912 82.973 147.051 82.18C147.065 82.1003 147.079 82.0203 147.094 81.94H163.954C164.594 81.06 165.074 80 165.394 78.76C165.6 77.9356 165.739 77.1527 165.813 76.4113C165.842 76.1177 165.861 75.8307 165.869 75.5501C165.872 75.4391 165.874 75.329 165.874 75.22C165.874 72.58 164.854 70.64 162.814 69.4C160.814 68.16 157.814 67.54 153.814 67.54C150.134 67.54 147.054 67.98 144.574 68.86C142.134 69.74 140.174 70.92 138.694 72.4C137.794 73.3001 137.05 74.286 136.462 75.358C136.11 76.0011 135.814 76.6751 135.574 77.38C135.108 78.8402 134.823 80.3245 134.719 81.833C134.689 82.2666 134.674 82.7023 134.674 83.14C134.674 83.3273 134.676 83.512 134.682 83.6941C134.739 85.613 135.096 87.2483 135.754 88.6C136.514 90.04 137.534 91.2 138.814 92.08C140.094 92.96 141.594 93.58 143.314 93.94C145.034 94.3 146.894 94.48 148.894 94.48C149.974 94.48 151.114 94.42 152.314 94.3C153.514 94.22 154.694 94.08 155.854 93.88C157.014 93.64 158.114 93.34 159.154 92.98C160.194 92.62 161.114 92.18 161.914 91.66L163.474 85.24H153.634C153.394 86.04 153.054 86.76 152.614 87.4C152.214 88.04 151.774 88.58 151.294 89.02C150.854 89.46 150.394 89.8 149.914 90.04C149.474 90.28 149.074 90.4 148.714 90.4C148.234 90.4 147.854 90.28 147.574 90.04C147.334 89.76 147.134 89.44 146.974 89.08ZM147.694 79.18C147.713 79.0996 147.733 79.0196 147.753 78.94C147.982 78.0293 148.263 77.1693 148.594 76.36C148.617 76.2995 148.641 76.2395 148.665 76.18C149.006 75.3353 149.383 74.5953 149.794 73.96C150.234 73.24 150.714 72.68 151.234 72.28C151.794 71.84 152.394 71.62 153.034 71.62C153.594 71.62 154.074 71.84 154.474 72.28C154.874 72.72 155.074 73.56 155.074 74.8C155.074 75.24 155.034 75.72 154.954 76.24C154.914 76.76 154.854 77.24 154.774 77.68C154.707 78.1139 154.64 78.5339 154.573 78.94C154.56 79.0206 154.547 79.1006 154.534 79.18H147.694ZM134.77 68.92C134.33 68.6 133.87 68.36 133.39 68.2C132.95 68 132.51 67.86 132.07 67.78C131.67 67.66 131.29 67.6 130.93 67.6C130.61 67.56 130.37 67.54 130.21 67.54C127.85 67.54 125.95 68.04 124.51 69.04C124.009 69.3878 123.54 69.7621 123.102 70.1631C122.534 70.6826 122.02 71.2468 121.558 71.8556C121.374 72.0978 121.199 72.3472 121.032 72.6036C121.031 72.6051 121.03 72.6066 121.029 72.6081C121.009 72.6386 120.989 72.6693 120.97 72.7H120.55L119.65 68.2H109.87L104.41 94H116.65L120.49 76.06C120.594 75.9296 120.697 75.8096 120.8 75.7C120.857 75.6391 120.913 75.5814 120.97 75.5269C121.279 75.2282 121.579 75.0259 121.87 74.92C122.35 74.72 122.79 74.62 123.19 74.62C123.227 74.62 123.264 74.6211 123.301 74.6233C124.044 74.6681 124.587 75.167 124.93 76.12C125.29 77.08 125.51 78.8 125.59 81.28H132.13L134.77 68.92ZM105.393 72.1C106.073 70.22 106.413 68.24 106.413 66.16C106.413 63.92 106.033 62.14 105.273 60.82C104.513 59.46 103.453 58.42 102.093 57.7C100.733 56.98 99.1132 56.5 97.2332 56.26C95.3532 56.02 93.2732 55.9 90.9932 55.9H77.1332L69.0332 94H81.9932L84.6932 81.4H88.1132C91.4332 81.4 94.2532 81 96.5732 80.2C98.8932 79.4 100.773 78.32 102.213 76.96C103.693 75.56 104.753 73.94 105.393 72.1ZM93.3332 72.4C92.8132 73.84 92.1332 75.06 91.2932 76.06C90.5633 76.9723 89.667 77.4685 88.6042 77.5485C88.5021 77.5562 88.3984 77.56 88.2932 77.56H85.5332L89.3132 59.98H92.0132C93.2132 59.98 93.9932 60.36 94.3532 61.12C94.7132 61.84 94.8932 62.74 94.8932 63.82C94.8932 64.98 94.7732 66.34 94.5332 67.9C94.2932 69.46 93.8932 70.96 93.3332 72.4ZM91.7367 62.98L89.4781 73.4846C89.863 72.9051 90.212 72.2107 90.5115 71.3811L90.5239 71.3467L90.5372 71.3127C91.0163 70.0806 91.3606 68.7926 91.5681 67.4438C91.7925 65.9849 91.8932 64.784 91.8932 63.82C91.8932 63.4689 91.8659 63.1934 91.8273 62.98H91.7367ZM64.6755 63.46H55.041L47.901 97H28.8066L35.9466 63.46H28.731L21.5476 97H2.45727L11.8329 52.9H67.0376L64.6755 63.46ZM39.6524 60.46L32.5124 94H45.4724L52.6124 60.46H62.2724L63.2924 55.9H31.1924L30.1124 60.46H39.6524ZM14.2621 55.9H27.2821L19.1221 94H6.16211L14.2621 55.9Z" fill="#F2F2F2"/>
<path d="M352.5 120V118H358.5V120H352.5ZM356.5 126V124H352.5V122H350.5V120H352.5V122H356.5V124H358.5V126H356.5ZM350.5 128V126H356.5V128H350.5Z" fill="#595959"/>
<path d="M336.5 128V118H338.5V120H340.5V122H342.5V124H344.5V118H346.5V128H344.5V126H342.5V124H340.5V122H338.5V128H336.5Z" fill="#595959"/>
<path d="M326.5 128V126H324.5V120H326.5V118H330.5V120H332.5V126H330.5V128H326.5ZM326.5 125.92H330.5V120.08H326.5V125.92Z" fill="#595959"/>
<path d="M318.5 128V118H320.5V128H318.5Z" fill="#595959"/>
<path d="M310.5 128V120H308.5V118H314.5V120H312.5V128H310.5Z" fill="#595959"/>
<path d="M298.5 128V126H296.5V118H298.5V126H302.5V128H298.5ZM302.5 126V118H304.5V126H302.5Z" fill="#595959"/>
<path d="M286.5 128V118H288.5V126H292.5V128H286.5Z" fill="#595959"/>
<path d="M276.5 128V126H274.5V120H276.5V118H280.5V120H282.5V126H280.5V128H276.5ZM276.5 125.92H280.5V120.08H276.5V125.92Z" fill="#595959"/>
<path d="M264.5 120V118H270.5V120H264.5ZM268.5 126V124H264.5V122H262.5V120H264.5V122H268.5V124H270.5V126H268.5ZM262.5 128V126H268.5V128H262.5Z" fill="#595959"/>
<path d="M246.5 128V120H244.5V118H250.5V120H248.5V128H246.5Z" fill="#595959"/>
<path d="M238.5 128V118H240.5V128H238.5Z" fill="#595959"/>
<path d="M218.5 128V118H224.5V120H226.5V126H224.5V128H218.5ZM220.5 126H224.42V120H220.5V126Z" fill="#595959"/>
<path d="M208.5 128V118H214.5V120H210.5V122H214.5V124H210.5V126H214.5V128H208.5Z" fill="#595959"/>
<path d="M198.5 120V118H204.5V120H198.5ZM202.5 126V124H198.5V122H196.5V120H198.5V122H202.5V124H204.5V126H202.5ZM196.5 128V126H202.5V128H196.5Z" fill="#595959"/>
<path d="M184.5 128V120H186.5V118H190.5V120H192.5V128H190.5V124H186.5V128H184.5ZM186.5 122H190.5V120.08H186.5V122Z" fill="#595959"/>
<path d="M172.5 128V118H178.5V120H180.5V126H178.5V128H172.5ZM174.5 122H178.42V120H174.5V122ZM174.5 126H178.42V124H174.5V126Z" fill="#595959"/>
<path d="M162.5 124V122H168.5V124H162.5Z" fill="#595959"/>
<path d="M148.5 128V118H150.5V120H152.5V122H154.5V124H156.5V118H158.5V128H156.5V126H154.5V124H152.5V122H150.5V128H148.5Z" fill="#595959"/>
<path d="M138.5 128V126H136.5V120H138.5V118H142.5V120H144.5V126H142.5V128H138.5ZM138.5 125.92H142.5V120.08H138.5V125.92Z" fill="#595959"/>
<path d="M128.5 128V120H126.5V118H132.5V120H130.5V128H128.5Z" fill="#595959"/>
<path d="M116.5 120V118H122.5V120H116.5ZM120.5 126V124H116.5V122H114.5V120H116.5V122H120.5V124H122.5V126H120.5ZM114.5 128V126H120.5V128H114.5Z" fill="#595959"/>
<path d="M104.5 128V126H102.5V118H104.5V126H108.5V128H104.5ZM108.5 126V118H110.5V126H108.5Z" fill="#595959"/>
<path d="M92.5 128V126H90.5V120H92.5V118H96.5V120H98.5V126H96.5V128H92.5ZM92.5 125.92H96.5V120.08H92.5V125.92Z" fill="#595959"/>
<path d="M78.5 128V118H80.5V122H84.5V118H86.5V128H84.5V124H80.5V128H78.5Z" fill="#595959"/>
<path fill-rule="evenodd" clip-rule="evenodd" d="M350 115.5H361V128.5H359V130.5H342V128.5H341V130.5H334V128.5H333V130.5H324V128.5H323V130.5H316V122.5H315V130.5H308V122.5H307V128.5H305V130.5H296V128.5H295V130.5H284V128.5H283V130.5H274V128.5H271V130.5H260V117.5H262V115.5H273V117.5H274V115.5H283V117.5H284V115.5H291V123.5H294V115.5H323V117.5H324V115.5H333V117.5H334V115.5H341V117.5H342V115.5H349V117.5H350V115.5ZM358.5 118H352.5V120H350.5V122H352.5V124H356.5V126H350.5V128H356.5V126H358.5V124H356.5V122H352.5V120H358.5V118ZM338.5 120V118H336.5V128H338.5V122H340.5V124H342.5V126H344.5V128H346.5V118H344.5V124H342.5V122H340.5V120H338.5ZM298.5 118H296.5V126H298.5V128H302.5V126H304.5V118H302.5V126H298.5V118ZM288.5 118H286.5V128H292.5V126H288.5V118ZM270.5 118H264.5V120H262.5V122H264.5V124H268.5V126H262.5V128H268.5V126H270.5V124H268.5V122H264.5V120H270.5V118ZM310.5 128H312.5V120H314.5V118H308.5V120H310.5V128ZM330.5 125.92V120.08H326.5V125.92H330.5ZM276.5 125.92V120.08H280.5V125.92H276.5ZM244 130.5V122.5H243V130.5H236V115.5H253V122.5H251V130.5H244ZM248.5 120H250.5V118H244.5V120H246.5V128H248.5V120ZM214.5 126H210.5V124H214.5V122H210.5V120H214.5V118H208.5V128H214.5V126ZM227 115.5V117.5H229V128.5H227V130.5H206V128.5H205V130.5H182V128.5H181V130.5H170V126.5H161V130.5H154V128.5H153V130.5H146V128.5H145V130.5H136V128.5H134V122.5H133V130.5H126V122.5H125V128.5H123V130.5H112V128.5H111V130.5H102V128.5H99V130.5H90V128.5H89V130.5H76V115.5H89V117.5H90V115.5H99V117.5H100V115.5H113V117.5H114V115.5H135V117.5H136V115.5H145V117.5H146V115.5H153V117.5H154V115.5H161V119.5H170V115.5H181V117.5H184V115.5H193V117.5H196V115.5H227ZM204.5 118H198.5V120H196.5V122H198.5V124H202.5V126H196.5V128H202.5V126H204.5V124H202.5V122H198.5V120H204.5V118ZM150.5 120V118H148.5V128H150.5V122H152.5V124H154.5V126H156.5V128H158.5V118H156.5V124H154.5V122H152.5V120H150.5ZM122.5 118H116.5V120H114.5V122H116.5V124H120.5V126H114.5V128H120.5V126H122.5V124H120.5V122H116.5V120H122.5V118ZM104.5 118H102.5V126H104.5V128H108.5V126H110.5V118H108.5V126H104.5V118ZM80.5 118H78.5V128H80.5V124H84.5V128H86.5V118H84.5V122H80.5V118ZM128.5 128H130.5V120H132.5V118H126.5V120H128.5V128ZM180.5 120H178.5V118H172.5V128H178.5V126H180.5V120ZM178.42 126V124H174.5V126H178.42ZM178.42 122V120H174.5V122H178.42ZM224.42 120H220.5V126H224.42V120ZM186.5 124V128H184.5V120H186.5V118H190.5V120H192.5V128H190.5V124H186.5ZM186.5 120.08V122H190.5V120.08H186.5ZM142.5 125.92V120.08H138.5V125.92H142.5ZM96.5 125.92V120.08H92.5V125.92H96.5ZM318.5 118V128H320.5V118H318.5ZM238.5 118V128H240.5V118H238.5ZM162.5 124V122H168.5V124H162.5ZM92.5 128V126H90.5V120H92.5V118H96.5V120H98.5V126H96.5V128H92.5ZM138.5 128V126H136.5V120H138.5V118H142.5V120H144.5V126H142.5V128H138.5ZM218.5 128H224.5V126H226.5V120H224.5V118H218.5V128ZM276.5 126V128H280.5V126H282.5V120H280.5V118H276.5V120H274.5V126H276.5ZM326.5 128V126H324.5V120H326.5V118H330.5V120H332.5V126H330.5V128H326.5Z" fill="#F2F2F2"/>
<path d="M366.354 9.62018C366.543 8.79327 368.457 8.79327 368.646 9.62018C369.766 14.5121 371.84 20.968 375.436 24.5642C379.032 28.1604 385.488 30.2343 390.38 31.3535C391.207 31.5427 391.207 33.4573 390.38 33.6465C385.488 34.7657 379.032 36.8396 375.436 40.4358C371.84 44.032 369.766 50.4879 368.646 55.3798C368.457 56.2067 366.543 56.2067 366.354 55.3798C365.234 50.4879 363.16 44.032 359.564 40.4358C355.968 36.8396 349.512 34.7657 344.62 33.6465C343.793 33.4573 343.793 31.5427 344.62 31.3535C349.512 30.2343 355.968 28.1604 359.564 24.5642C363.16 20.968 365.234 14.5121 366.354 9.62018Z" fill="#666666"/>
<path d="M399.463 0.435443C399.552 -0.145148 400.448 -0.145148 400.537 0.435444C401.061 3.87022 402.031 8.40303 403.715 10.928C405.398 13.453 408.42 14.9092 410.71 15.695C411.097 15.8279 411.097 17.1721 410.71 17.305C408.42 18.0908 405.398 19.547 403.715 22.072C402.031 24.597 401.061 29.1298 400.537 32.5646C400.448 33.1451 399.552 33.1451 399.463 32.5646C398.939 29.1298 397.969 24.597 396.285 22.072C394.602 19.547 391.58 18.0908 389.29 17.305C388.903 17.1721 388.903 15.8279 389.29 15.695C391.58 14.9092 394.602 13.453 396.285 10.928C397.969 8.40303 398.939 3.87022 399.463 0.435443Z" fill="#C4C4C4"/>
</g>
<defs>
<clipPath id="clip0_41_4692">
<rect x="223.641" y="136.307" width="143.658" height="61.2496" rx="30.6248" transform="rotate(-152.126 223.641 136.307)" fill="white"/>
</clipPath>
</defs>
</svg>
