<svg width="102" height="75" viewBox="0 0 102 75" fill="none" xmlns="http://www.w3.org/2000/svg">
<path d="M50.974 37.4074C64.8129 20.3088 81.0774 6.53093 87.2085 6.86663C91.8725 7.122 80.5 24.4725 80.5 24.4725C80.5 24.4725 88.8322 10.1562 84.5544 10.3035C80.2765 10.4508 66.7391 20.4321 53 37.4074C39.2609 54.3826 33.384 65.7171 39.3719 66.0449C43.177 66.2533 58.1922 54.465 58.1922 54.465C58.1922 54.465 40.824 69.3763 36.7943 69.1557C30.6632 68.82 37.1351 54.506 50.974 37.4074Z" fill="#A3D2D5"/>
<path fill-rule="evenodd" clip-rule="evenodd" d="M79.9742 25.3231C79.5132 25.0382 79.3631 24.4379 79.6357 23.9695L79.6368 23.9676L79.6408 23.9606L79.6577 23.9315C79.6727 23.9055 79.6952 23.8664 79.7246 23.8151C79.7832 23.7125 79.8693 23.5613 79.9775 23.3683C80.1941 22.9823 80.4994 22.43 80.8526 21.7674C81.5605 20.4396 82.4549 18.6804 83.2143 16.934C83.9846 15.1627 84.5751 13.4952 84.7347 12.3206C84.816 11.722 84.7598 11.4191 84.7098 11.3091C84.6876 11.3051 84.649 11.3008 84.5888 11.3029C83.7918 11.3304 82.3339 11.8595 80.2568 13.0763C78.23 14.2637 75.7514 16.0218 72.9603 18.3173C67.3807 22.9062 60.6085 29.5962 53.7773 38.0365C46.918 46.5115 42.0734 53.5169 39.687 58.4075C38.4774 60.8864 37.9804 62.6644 38.0415 63.7636C38.0702 64.2804 38.2165 64.5487 38.3715 64.6992C38.5307 64.8538 38.8328 65.0139 39.4265 65.0464C39.6779 65.0602 40.1613 64.9676 40.9094 64.6756C41.6265 64.3957 42.482 63.9754 43.4334 63.4486C45.3339 62.3962 47.5365 60.9635 49.6407 59.5103C51.741 58.0597 53.7255 56.6011 55.1861 55.5041C55.916 54.9559 56.5142 54.4987 56.9294 54.1788C57.137 54.019 57.2989 53.8934 57.4086 53.8081L57.5332 53.7109L57.5742 53.6788L58.1922 54.465C58.1922 54.465 50.1249 60.7985 44.3183 64.0987C42.2031 65.3009 40.3879 66.1005 39.3719 66.0449C33.384 65.7171 39.2609 54.3826 53 37.4074C66.7391 20.4321 80.2765 10.4508 84.5543 10.3035C85.9911 10.254 86.0054 11.8361 85.3907 13.9593C84.1752 18.1578 80.5 24.4725 80.5 24.4725L81.3363 25.0207C81.0392 25.474 80.4352 25.6081 79.9742 25.3231ZM86.3267 14.321C84.0064 19.1229 80.5 24.4725 80.5 24.4725C81.3363 25.0207 81.3362 25.0209 81.3363 25.0207L81.337 25.0196L81.3454 25.0068L81.3705 24.9683C81.3925 24.9345 81.4247 24.8849 81.4665 24.8203C81.5499 24.6912 81.6711 24.5026 81.8235 24.2629C82.1282 23.7835 82.5576 23.0993 83.0581 22.2777C84.0577 20.6368 85.3466 18.4382 86.4914 16.2248C87.626 14.0312 88.6583 11.7497 89.0988 9.96489C89.3132 9.09588 89.4292 8.18917 89.2244 7.43453C89.1153 7.0327 88.9041 6.63369 88.534 6.33169C88.163 6.02889 87.7173 5.893 87.2631 5.86813C85.4136 5.76686 83.024 6.70648 80.4042 8.22773C77.7329 9.7789 74.6435 12.0434 71.3366 14.835C64.7193 20.4212 57.15 28.1872 50.1967 36.7782C43.25 45.3612 38.1138 53.2903 35.4829 59.1585C34.1791 62.0665 33.4328 64.592 33.4775 66.4815C33.5002 67.4393 33.7287 68.3458 34.3091 69.0386C34.9093 69.7551 35.7653 70.1008 36.7396 70.1542C37.5013 70.1959 38.404 69.8937 39.2805 69.4999C40.1988 69.0874 41.2504 68.4971 42.3664 67.8022C44.6011 66.4105 47.1791 64.545 49.6113 62.6879C52.0473 60.8277 54.3545 58.9623 56.0516 57.563C56.9005 56.863 57.5976 56.279 58.0829 55.8696C58.3255 55.6649 58.5152 55.5039 58.6445 55.3938L58.7922 55.2678L58.8303 55.2352L58.8426 55.2246C58.8428 55.2244 58.8436 55.2237 58.1922 54.465L58.8436 55.2237C59.2562 54.8695 59.3101 54.2506 58.965 53.8304C58.62 53.4102 58.0019 53.3431 57.5742 53.6788L58.1922 54.465C58.1922 54.465 51.043 60.6028 44.854 64.9444C41.3965 67.3699 38.2386 69.2347 36.7943 69.1557C30.6632 68.82 37.1351 54.506 50.974 37.4074C64.8129 20.3088 81.0773 6.53093 87.2085 6.86663C89.2827 6.98021 88.1851 10.475 86.3267 14.321Z" fill="#A3D2D5"/>
<path d="M88.3935 30.2935C88.4488 30.0517 89.0085 30.0517 89.0638 30.2935C89.391 31.7237 89.9973 33.611 91.0487 34.6624C92.1001 35.7137 93.9874 36.3201 95.4176 36.6473C95.6593 36.7026 95.6593 37.2623 95.4176 37.3176C93.9874 37.6448 92.1001 38.2511 91.0487 39.3025C89.9973 40.3538 89.391 42.2412 89.0638 43.6714C89.0085 43.9131 88.4488 43.9131 88.3935 43.6714C88.0663 42.2412 87.46 40.3538 86.4086 39.3025C85.3572 38.2511 83.4699 37.6448 82.0397 37.3176C81.798 37.2623 81.798 36.7026 82.0397 36.6473C83.4699 36.3201 85.3572 35.7137 86.4086 34.6624C87.46 33.611 88.0663 31.7237 88.3935 30.2935Z" fill="#A3D2D5"/>
<path d="M39.7598 30.4897C39.7598 33.025 39.0578 35.3669 37.6537 37.5154C36.2497 39.6639 33.9309 41.2967 30.6974 42.414L38.1005 61.6861H23.8686L18.2525 43.832H17.5505L13.7851 61.6861H0L8.61569 20.757H25.4003C27.3575 20.757 29.2082 20.8859 30.9526 21.1437C32.6971 21.3585 34.2075 21.8312 35.4839 22.5617C36.8028 23.2492 37.8452 24.2375 38.611 25.5267C39.3768 26.7728 39.7598 28.4272 39.7598 30.4897ZM21.3797 39.7068C22.4859 39.7068 23.4219 39.3416 24.1877 38.6111C24.9961 37.8376 25.6343 36.9138 26.1023 35.8395C26.6129 34.7653 26.9745 33.6266 27.1873 32.4234C27.4 31.1772 27.5064 30.103 27.5064 29.2006C27.5064 28.0834 27.3149 27.138 26.932 26.3646C26.5491 25.5481 25.7194 25.1399 24.443 25.1399H21.5711L18.3801 39.7068H21.3797Z" fill="#45625D"/>
<path d="M78.4856 27.6083C78.5115 27.4386 78.7735 27.4386 78.7994 27.6083C78.9525 28.6125 79.2364 29.9377 79.7285 30.6758C80.2206 31.414 81.1041 31.8397 81.7735 32.0695C81.8867 32.1083 81.8867 32.5013 81.7735 32.5401C81.1041 32.7699 80.2206 33.1956 79.7285 33.9338C79.2364 34.672 78.9525 35.9971 78.7994 37.0013C78.7735 37.171 78.5115 37.171 78.4856 37.0013C78.3325 35.9971 78.0486 34.672 77.5565 33.9338C77.0644 33.1956 76.1809 32.7699 75.5115 32.5401C75.3983 32.5013 75.3983 32.1083 75.5115 32.0695C76.1809 31.8397 77.0644 31.414 77.5565 30.6758C78.0486 29.9377 78.3325 28.6125 78.4856 27.6083Z" fill="#6AA5A9"/>
<path d="M79.738 65.5562C75.6637 68.3581 70.0895 67.3265 67.2877 63.2522L38.5091 21.4034C35.7073 17.3291 36.7389 11.7549 40.8132 8.9531C44.8875 6.15128 50.4617 7.18283 53.2635 11.2571L82.0421 53.1059C84.8439 57.1802 83.8123 62.7544 79.738 65.5562Z" fill="#A3D2D5"/>
<path fill-rule="evenodd" clip-rule="evenodd" d="M66.8059 63.5835L38.0273 21.7347C35.0425 17.3944 36.1414 11.4561 40.4818 8.47132C44.8222 5.48653 50.7604 6.58545 53.7452 10.9258L82.5238 52.7746C85.5086 57.115 84.4097 63.0532 80.0693 66.038C75.7289 69.0228 69.7907 67.9239 66.8059 63.5835ZM67.2877 63.2522C70.0895 67.3265 75.6637 68.3581 79.738 65.5562C83.8123 62.7544 84.8438 57.1802 82.042 53.1059L53.2634 11.2571C50.4616 7.18283 44.8874 6.15128 40.8131 8.9531C36.7388 11.7549 35.7072 17.3291 38.5091 21.4034L67.2877 63.2522Z" fill="#6AA5A9"/>
<g clip-path="url(#clip0_2_635)">
<rect x="57.2336" y="48.632" width="41.9986" height="17.9064" rx="8.95319" transform="rotate(-124.516 57.2336 48.632)" fill="white"/>
<path fill-rule="evenodd" clip-rule="evenodd" d="M61.8201 40.8558C58.9817 42.6592 55.5551 43.1424 52.1283 42.3569L52.1936 42.0719C55.5528 42.8419 58.8979 42.3661 61.6633 40.6091C64.4282 38.8525 66.6268 35.8067 67.6766 31.4128L67.9609 31.4808C66.8964 35.9364 64.659 39.0522 61.8201 40.8558ZM58.9151 36.6315C56.0767 38.4348 52.6501 38.918 49.2233 38.1325L49.2886 37.8475C52.6478 38.6175 55.9929 38.1417 58.7583 36.3847C61.5232 34.6281 63.7218 31.5824 64.7716 27.1885L65.0559 27.2564C63.9914 31.712 61.754 34.8278 58.9151 36.6315ZM55.429 31.5621C52.5906 33.3655 49.164 33.8487 45.7372 33.0632L45.8025 32.7782C49.1617 33.5482 52.5068 33.0724 55.2722 31.3154C58.0371 29.5588 60.2357 26.513 61.2855 22.1191L61.5698 22.1871C60.5053 26.6427 58.2679 29.7585 55.429 31.5621Z" fill="#A3D2D5"/>
<path fill-rule="evenodd" clip-rule="evenodd" d="M42.3244 12.5059C39.6248 14.511 37.9473 17.5377 37.4545 21.0187L37.7439 21.0597C38.2271 17.6474 39.8685 14.6941 42.4987 12.7406C45.1285 10.7874 48.7593 9.82444 53.2379 10.4166L53.2762 10.1267C48.7347 9.52629 45.0246 10.5004 42.3244 12.5059ZM45.2294 16.7303C42.5298 18.7353 40.8523 21.7621 40.3595 25.2431L40.649 25.2841C41.1321 21.8718 42.7735 18.9185 45.4037 16.965C48.0335 15.0118 51.6643 14.0488 56.1429 14.6409L56.1812 14.3511C51.6397 13.7507 47.9296 14.7248 45.2294 16.7303ZM48.7155 21.7996C46.0158 23.8047 44.3384 26.8314 43.8456 30.3124L44.135 30.3534C44.6181 26.9411 46.2596 23.9878 48.8898 22.0343C51.5196 20.0811 55.1504 19.1181 59.629 19.7103L59.6673 19.4204C55.1258 18.82 51.4157 19.7941 48.7155 21.7996Z" fill="#A3D2D5"/>
<path fill-rule="evenodd" clip-rule="evenodd" d="M34.9171 9.21922C44.7587 18.9847 57.9377 38.0447 62.8246 49.8024L62.5546 49.9146C57.6843 38.1967 44.5287 19.1684 34.7111 9.42675L34.9171 9.21922ZM38.2895 6.90005C48.1312 16.6655 61.3102 35.7255 66.197 47.4832L65.9271 47.5954C61.0567 35.8776 47.9012 16.8492 38.0836 7.10758L38.2895 6.90005ZM41.5415 4.66371C51.3832 14.4292 64.5622 33.4892 69.449 45.2469L69.1791 45.3591C64.3088 33.6412 51.1532 14.6128 41.3356 4.87124L41.5415 4.66371Z" fill="#A3D2D5"/>
</g>
<defs>
<clipPath id="clip0_2_635">
<rect x="57.2336" y="48.632" width="41.9986" height="17.9064" rx="8.95319" transform="rotate(-124.516 57.2336 48.632)" fill="white"/>
</clipPath>
</defs>
</svg>
