<svg width="119" height="88" viewBox="0 0 119 88" fill="none" xmlns="http://www.w3.org/2000/svg">
<ellipse cx="53.7243" cy="42.7919" rx="49.5" ry="24.9101" transform="rotate(-26.2234 53.7243 42.7919)" fill="#F2F2F2"/>
<path d="M67.974 37.4074C81.8129 20.3088 98.0773 6.53093 104.208 6.86663C108.872 7.12201 97.5 24.4725 97.5 24.4725C97.5 24.4725 105.832 10.1562 101.554 10.3035C97.2765 10.4508 83.7391 20.4321 70 37.4074C56.2609 54.3826 50.384 65.7171 56.3719 66.0449C60.177 66.2533 75.1922 54.465 75.1922 54.465C75.1922 54.465 57.8239 69.3763 53.7943 69.1557C47.6632 68.82 54.1351 54.506 67.974 37.4074Z" fill="#A3D2D5"/>
<path fill-rule="evenodd" clip-rule="evenodd" d="M96.9742 25.3231C96.5132 25.0382 96.3631 24.4379 96.6357 23.9695L96.6408 23.9606L96.6577 23.9315C96.6695 23.9111 96.6859 23.8826 96.7066 23.8465L96.7246 23.8151C96.7832 23.7125 96.8693 23.5613 96.9775 23.3683C97.1941 22.9823 97.4994 22.43 97.8526 21.7674C98.5605 20.4396 99.4549 18.6804 100.214 16.934C100.985 15.1627 101.575 13.4952 101.735 12.3206C101.816 11.722 101.76 11.4191 101.71 11.3091C101.688 11.3051 101.649 11.3008 101.589 11.3029C100.792 11.3304 99.3339 11.8595 97.2568 13.0763C95.2301 14.2637 92.7514 16.0218 89.9603 18.3173C84.3807 22.9062 77.6085 29.5962 70.7773 38.0365C63.918 46.5115 59.0734 53.5169 56.687 58.4075C55.4774 60.8864 54.9804 62.6644 55.0415 63.7636C55.0702 64.2804 55.2165 64.5487 55.3715 64.6992C55.5307 64.8538 55.8328 65.0139 56.4265 65.0464C56.6779 65.0602 57.1613 64.9676 57.9094 64.6756C58.6265 64.3957 59.482 63.9754 60.4334 63.4486C62.3339 62.3961 64.5365 60.9635 66.6407 59.5103C68.741 58.0597 70.7255 56.6011 72.1861 55.5041C72.916 54.9559 73.5142 54.4987 73.9294 54.1788C74.137 54.019 74.2989 53.8934 74.4086 53.8081L74.5332 53.7109L74.5742 53.6788L75.1922 54.465C75.1922 54.465 67.1249 60.7985 61.3183 64.0987C59.2031 65.3009 57.3879 66.1005 56.3719 66.0449C50.384 65.7171 56.2609 54.3826 70 37.4074C83.7391 20.4321 97.2765 10.4508 101.554 10.3035C102.991 10.254 103.005 11.8361 102.391 13.9593C101.175 18.1579 97.5 24.4725 97.5 24.4725L98.3363 25.0207C98.0392 25.474 97.4352 25.6081 96.9742 25.3231ZM103.327 14.321C101.006 19.1229 97.5 24.4725 97.5 24.4725C98.3363 25.0207 98.3362 25.0209 98.3363 25.0207L98.3454 25.0068L98.3705 24.9683C98.3925 24.9345 98.4247 24.8849 98.4664 24.8203C98.5499 24.6912 98.6711 24.5026 98.8235 24.2629C99.1282 23.7835 99.5576 23.0993 100.058 22.2777C101.058 20.6368 102.347 18.4382 103.491 16.2248C104.626 14.0312 105.658 11.7497 106.099 9.96489C106.313 9.09588 106.429 8.18917 106.224 7.43453C106.115 7.0327 105.904 6.63369 105.534 6.33169C105.163 6.02889 104.717 5.893 104.263 5.86813C102.414 5.76686 100.024 6.70648 97.4042 8.22773C94.7329 9.7789 91.6435 12.0434 88.3366 14.835C81.7193 20.4212 74.15 28.1872 67.1967 36.7782C60.25 45.3612 55.1138 53.2903 52.4829 59.1585C51.1791 62.0665 50.4328 64.592 50.4775 66.4815C50.5002 67.4393 50.7287 68.3458 51.3091 69.0386C51.9093 69.7551 52.7653 70.1008 53.7396 70.1542C54.5013 70.1959 55.404 69.8937 56.2805 69.4999C57.1988 69.0874 58.2504 68.4971 59.3664 67.8022C61.6011 66.4105 64.1791 64.545 66.6113 62.6879C69.0473 60.8277 71.3545 58.9623 73.0516 57.563C73.9005 56.863 74.5976 56.279 75.0829 55.8696C75.3255 55.6649 75.5152 55.5039 75.6445 55.3938L75.7922 55.2678L75.8426 55.2246C75.8428 55.2244 75.8436 55.2237 75.1922 54.465L75.8436 55.2237C76.2562 54.8695 76.3101 54.2506 75.965 53.8304C75.62 53.4102 75.0019 53.343 74.5742 53.6788L75.1922 54.465C75.1922 54.465 68.043 60.6028 61.854 64.9444C58.3965 67.3699 55.2386 69.2347 53.7943 69.1557C47.6632 68.82 54.1351 54.506 67.974 37.4074C81.8129 20.3088 98.0773 6.53093 104.208 6.86663C106.283 6.98021 105.185 10.475 103.327 14.321Z" fill="#A3D2D5"/>
<path d="M105.393 30.2935C105.449 30.0517 106.009 30.0517 106.064 30.2935C106.391 31.7237 106.997 33.611 108.049 34.6624C109.1 35.7137 110.987 36.3201 112.418 36.6473C112.659 36.7026 112.659 37.2623 112.418 37.3176C110.987 37.6448 109.1 38.2511 108.049 39.3025C106.997 40.3538 106.391 42.2412 106.064 43.6714C106.009 43.9131 105.449 43.9131 105.393 43.6714C105.066 42.2412 104.46 40.3538 103.409 39.3025C102.357 38.2511 100.47 37.6448 99.0397 37.3176C98.798 37.2623 98.798 36.7026 99.0397 36.6473C100.47 36.3201 102.357 35.7137 103.409 34.6624C104.46 33.611 105.066 31.7237 105.393 30.2935Z" fill="#A3D2D5"/>
<path d="M56.7598 30.4897C56.7598 33.025 56.0578 35.3669 54.6537 37.5154C53.2497 39.6639 50.9309 41.2967 47.6974 42.414L55.1005 61.6861H40.8686L35.2525 43.832H34.5505L30.7851 61.6861H17L25.6157 20.757H42.4003C44.3575 20.757 46.2082 20.8859 47.9526 21.1437C49.6971 21.3585 51.2075 21.8312 52.4839 22.5617C53.8028 23.2492 54.8452 24.2375 55.611 25.5267C56.3768 26.7728 56.7598 28.4272 56.7598 30.4897ZM38.3797 39.7068C39.4859 39.7068 40.4219 39.3416 41.1877 38.6111C41.9961 37.8376 42.6343 36.9138 43.1023 35.8395C43.6129 34.7653 43.9745 33.6266 44.1873 32.4234C44.4 31.1772 44.5064 30.103 44.5064 29.2006C44.5064 28.0834 44.3149 27.138 43.932 26.3646C43.5491 25.5481 42.7194 25.1399 41.443 25.1399H38.5711L35.3801 39.7068H38.3797Z" fill="#45625D"/>
<path d="M95.4856 27.6083C95.5115 27.4386 95.7735 27.4386 95.7994 27.6083C95.9525 28.6125 96.2364 29.9377 96.7285 30.6758C97.2206 31.414 98.1041 31.8397 98.7735 32.0695C98.8867 32.1083 98.8867 32.5013 98.7735 32.5401C98.1041 32.7699 97.2206 33.1956 96.7285 33.9338C96.2364 34.672 95.9525 35.9971 95.7994 37.0013C95.7735 37.171 95.5115 37.171 95.4856 37.0013C95.3325 35.9971 95.0486 34.672 94.5565 33.9338C94.0644 33.1956 93.1809 32.7699 92.5115 32.5401C92.3983 32.5013 92.3983 32.1083 92.5115 32.0695C93.1809 31.8397 94.0644 31.414 94.5565 30.6758C95.0486 29.9377 95.3325 28.6125 95.4856 27.6083Z" fill="#6AA5A9"/>
<path d="M96.738 65.5562C92.6637 68.3581 87.0895 67.3265 84.2877 63.2522L55.5091 21.4034C52.7073 17.3291 53.7389 11.7549 57.8132 8.9531C61.8875 6.15128 67.4617 7.18283 70.2635 11.2571L99.0421 53.1059C101.844 57.1802 100.812 62.7544 96.738 65.5562Z" fill="#A3D2D5"/>
<path fill-rule="evenodd" clip-rule="evenodd" d="M83.8059 63.5835L55.0273 21.7347C52.0425 17.3944 53.1414 11.4561 57.4818 8.47132C61.8222 5.48653 67.7604 6.58545 70.7452 10.9258L99.5238 52.7746C102.509 57.115 101.41 63.0532 97.0693 66.038C92.7289 69.0228 86.7907 67.9239 83.8059 63.5835ZM84.2877 63.2522C87.0895 67.3265 92.6637 68.3581 96.738 65.5562C100.812 62.7544 101.844 57.1802 99.042 53.1059L70.2634 11.2571C67.4616 7.18283 61.8874 6.15128 57.8131 8.9531C53.7388 11.7549 52.7072 17.3291 55.5091 21.4034L84.2877 63.2522Z" fill="#6AA5A9"/>
<g clip-path="url(#clip0_2_701)">
<rect x="74.2336" y="48.632" width="41.9986" height="17.9064" rx="8.95319" transform="rotate(-124.516 74.2336 48.632)" fill="white"/>
<path fill-rule="evenodd" clip-rule="evenodd" d="M78.8201 40.8558C75.9817 42.6592 72.5551 43.1424 69.1283 42.3569L69.1936 42.0719C72.5528 42.8419 75.8979 42.3661 78.6633 40.6091C81.4282 38.8525 83.6268 35.8067 84.6766 31.4128L84.9609 31.4808C83.8964 35.9364 81.659 39.0522 78.8201 40.8558ZM75.9151 36.6315C73.0767 38.4348 69.6501 38.918 66.2233 38.1325L66.2886 37.8475C69.6478 38.6175 72.9929 38.1417 75.7583 36.3847C78.5232 34.6281 80.7218 31.5824 81.7716 27.1885L82.0559 27.2564C80.9914 31.712 78.754 34.8278 75.9151 36.6315ZM72.429 31.5621C69.5906 33.3655 66.164 33.8487 62.7372 33.0632L62.8025 32.7782C66.1617 33.5482 69.5068 33.0724 72.2722 31.3154C75.0371 29.5588 77.2357 26.513 78.2855 22.1191L78.5698 22.1871C77.5053 26.6427 75.2679 29.7585 72.429 31.5621Z" fill="#A3D2D5"/>
<path fill-rule="evenodd" clip-rule="evenodd" d="M59.3244 12.5059C56.6248 14.511 54.9473 17.5377 54.4545 21.0187L54.7439 21.0597C55.2271 17.6474 56.8685 14.6941 59.4987 12.7406C62.1285 10.7874 65.7593 9.82444 70.2379 10.4166L70.2762 10.1267C65.7347 9.52629 62.0246 10.5004 59.3244 12.5059ZM62.2294 16.7303C59.5298 18.7353 57.8523 21.7621 57.3595 25.2431L57.649 25.2841C58.1321 21.8718 59.7735 18.9185 62.4037 16.965C65.0335 15.0118 68.6643 14.0488 73.1429 14.6409L73.1812 14.3511C68.6397 13.7507 64.9296 14.7248 62.2294 16.7303ZM65.7155 21.7996C63.0158 23.8047 61.3384 26.8314 60.8456 30.3124L61.135 30.3534C61.6181 26.9411 63.2596 23.9878 65.8898 22.0343C68.5196 20.0811 72.1504 19.1181 76.629 19.7103L76.6673 19.4204C72.1258 18.82 68.4157 19.7941 65.7155 21.7996Z" fill="#A3D2D5"/>
<path fill-rule="evenodd" clip-rule="evenodd" d="M51.9171 9.21922C61.7587 18.9847 74.9377 38.0447 79.8246 49.8024L79.5546 49.9146C74.6843 38.1967 61.5287 19.1684 51.7111 9.42675L51.9171 9.21922ZM55.2895 6.90005C65.1312 16.6655 78.3102 35.7255 83.197 47.4832L82.9271 47.5954C78.0567 35.8776 64.9012 16.8492 55.0836 7.10758L55.2895 6.90005ZM58.5415 4.66371C68.3832 14.4292 81.5622 33.4892 86.449 45.2469L86.1791 45.3591C81.3088 33.6412 68.1532 14.6128 58.3356 4.87124L58.5415 4.66371Z" fill="#A3D2D5"/>
</g>
<defs>
<clipPath id="clip0_2_701">
<rect x="74.2336" y="48.632" width="41.9986" height="17.9064" rx="8.95319" transform="rotate(-124.516 74.2336 48.632)" fill="white"/>
</clipPath>
</defs>
</svg>
