<svg width="119" height="88" viewBox="0 0 119 88" fill="none" xmlns="http://www.w3.org/2000/svg">
<path d="M12 33.5V23.5H9.5V21H17V23.5H14.5V33.5H12Z" fill="#3F7856"/>
<path d="M2 33.5V21H4.5V33.5H2Z" fill="#3F7856"/>
<path d="M66.9741 37.4074C80.813 20.3088 97.0775 6.53096 103.209 6.86667C107.873 7.12204 96.5001 24.4725 96.5001 24.4725C96.5001 24.4725 104.832 10.1562 100.554 10.3035C96.2766 10.4509 82.7392 20.4321 69.0001 37.4074C55.261 54.3827 49.3841 65.7171 55.372 66.0449C59.1771 66.2533 74.1923 54.465 74.1923 54.465C74.1923 54.465 56.8241 69.3763 52.7944 69.1557C46.6633 68.82 53.1352 54.506 66.9741 37.4074Z" fill="#A3D2D5"/>
<path fill-rule="evenodd" clip-rule="evenodd" d="M95.9743 25.3231C95.5133 25.0382 95.3632 24.4379 95.6358 23.9695L95.641 23.9606L95.6578 23.9315C95.6728 23.9055 95.6953 23.8664 95.7247 23.8151C95.7834 23.7126 95.8694 23.5613 95.9777 23.3683C96.1942 22.9823 96.4995 22.4301 96.8527 21.7675C97.5607 20.4396 98.455 18.6805 99.2144 16.934C99.9847 15.1627 100.575 13.4953 100.735 12.3206C100.816 11.722 100.76 11.4191 100.71 11.3092C100.688 11.3051 100.649 11.3009 100.589 11.303C99.7919 11.3304 98.334 11.8595 96.2569 13.0764C94.2302 14.2637 91.7516 16.0218 88.9604 18.3173C83.3808 22.9062 76.6086 29.5962 69.7774 38.0365C62.9181 46.5115 58.0735 53.517 55.6871 58.4075C54.4775 60.8864 53.9805 62.6644 54.0416 63.7636C54.0704 64.2805 54.2167 64.5487 54.3716 64.6992C54.5308 64.8538 54.8329 65.0139 55.4266 65.0464C55.6781 65.0602 56.1614 64.9676 56.9095 64.6756C57.6266 64.3958 58.4822 63.9755 59.4335 63.4487C61.3341 62.3962 63.5366 60.9635 65.6408 59.5103C67.7411 58.0597 69.7256 56.6011 71.1862 55.5041C71.9161 54.9559 72.5143 54.4987 72.9295 54.1789C73.1372 54.019 73.299 53.8935 73.4087 53.8081L73.5333 53.711L73.5743 53.6789L74.1923 54.465C74.1923 54.465 66.125 60.7986 60.3184 64.0987C58.2032 65.3009 56.388 66.1006 55.372 66.0449C49.3841 65.7171 55.261 54.3827 69.0001 37.4074C82.7392 20.4321 96.2766 10.4509 100.554 10.3035C101.991 10.2541 102.006 11.8361 101.391 13.9593C100.175 18.1579 96.5001 24.4725 96.5001 24.4725L97.3364 25.0207C97.0393 25.474 96.4353 25.6081 95.9743 25.3231ZM102.327 14.321C100.007 19.123 96.5001 24.4725 96.5001 24.4725C97.3364 25.0207 97.3363 25.0209 97.3364 25.0207L97.3372 25.0196L97.3455 25.0069L97.3706 24.9683C97.3926 24.9346 97.4249 24.8849 97.4666 24.8203C97.55 24.6913 97.6712 24.5026 97.8236 24.2629C98.1283 23.7835 98.5577 23.0993 99.0582 22.2778C100.058 20.6368 101.347 18.4382 102.492 16.2248C103.626 14.0312 104.658 11.7498 105.099 9.96492C105.313 9.09591 105.429 8.1892 105.225 7.43456C105.115 7.03273 104.904 6.63372 104.534 6.33172C104.163 6.02892 103.717 5.89303 103.263 5.86816C101.414 5.76689 99.0241 6.70651 96.4043 8.22776C93.733 9.77893 90.6436 12.0434 87.3367 14.835C80.7194 20.4212 73.1501 28.1872 66.1968 36.7783C59.2501 45.3612 54.114 53.2904 51.483 59.1585C50.1792 62.0665 49.4329 64.592 49.4776 66.4816C49.5003 67.4393 49.7288 68.3458 50.3092 69.0386C50.9095 69.7551 51.7654 70.1008 52.7397 70.1542C53.5015 70.1959 54.4041 69.8938 55.2806 69.5C56.1989 69.0874 57.2505 68.4972 58.3665 67.8022C60.6012 66.4105 63.1793 64.5451 65.6114 62.6879C68.0474 60.8277 70.3547 58.9623 72.0518 57.563C72.9007 56.8631 73.5978 56.279 74.083 55.8696C74.3256 55.665 74.5153 55.5039 74.6446 55.3938L74.7923 55.2678L74.8428 55.2246C74.8429 55.2244 74.8437 55.2238 74.1923 54.465L74.8437 55.2238C75.2563 54.8696 75.3102 54.2506 74.9652 53.8304C74.6201 53.4102 74.002 53.3431 73.5743 53.6789L74.1923 54.465C74.1923 54.465 67.0431 60.6029 60.8541 64.9445C57.3966 67.3699 54.2387 69.2348 52.7944 69.1557C46.6633 68.82 53.1352 54.506 66.9741 37.4074C80.813 20.3088 97.0775 6.53096 103.209 6.86667C105.283 6.98024 104.185 10.475 102.327 14.321Z" fill="#A3D2D5"/>
<path d="M105.393 30.2935C105.449 30.0517 106.009 30.0517 106.064 30.2935C106.391 31.7237 106.997 33.611 108.049 34.6624C109.1 35.7137 110.987 36.3201 112.418 36.6473C112.659 36.7026 112.659 37.2623 112.418 37.3176C110.987 37.6448 109.1 38.2511 108.049 39.3025C106.997 40.3538 106.391 42.2412 106.064 43.6714C106.009 43.9131 105.449 43.9131 105.393 43.6714C105.066 42.2412 104.46 40.3538 103.409 39.3025C102.357 38.2511 100.47 37.6448 99.0397 37.3176C98.798 37.2623 98.798 36.7026 99.0397 36.6473C100.47 36.3201 102.357 35.7137 103.409 34.6624C104.46 33.611 105.066 31.7237 105.393 30.2935Z" fill="#A3D2D5"/>
<path d="M56.7598 30.4897C56.7598 33.025 56.0578 35.3669 54.6537 37.5154C53.2497 39.6639 50.9309 41.2967 47.6974 42.414L55.1005 61.6861H40.8686L35.2525 43.832H34.5505L30.7851 61.6861H17L25.6157 20.757H42.4003C44.3575 20.757 46.2082 20.8859 47.9526 21.1437C49.6971 21.3585 51.2075 21.8312 52.4839 22.5617C53.8028 23.2492 54.8452 24.2375 55.611 25.5267C56.3768 26.7728 56.7598 28.4272 56.7598 30.4897ZM38.3797 39.7068C39.4859 39.7068 40.4219 39.3416 41.1877 38.6111C41.9961 37.8376 42.6343 36.9138 43.1023 35.8395C43.6129 34.7653 43.9745 33.6266 44.1873 32.4234C44.4 31.1772 44.5064 30.103 44.5064 29.2006C44.5064 28.0834 44.3149 27.138 43.932 26.3646C43.5491 25.5481 42.7194 25.1399 41.443 25.1399H38.5711L35.3801 39.7068H38.3797Z" fill="#45625D"/>
<path d="M95.4856 27.6083C95.5115 27.4386 95.7735 27.4386 95.7994 27.6083C95.9525 28.6125 96.2364 29.9377 96.7285 30.6758C97.2206 31.414 98.1041 31.8397 98.7735 32.0695C98.8867 32.1083 98.8867 32.5013 98.7735 32.5401C98.1041 32.7699 97.2206 33.1956 96.7285 33.9338C96.2364 34.672 95.9525 35.9971 95.7994 37.0013C95.7735 37.171 95.5115 37.171 95.4856 37.0013C95.3325 35.9971 95.0486 34.672 94.5565 33.9338C94.0644 33.1956 93.1809 32.7699 92.5115 32.5401C92.3983 32.5013 92.3983 32.1083 92.5115 32.0695C93.1809 31.8397 94.0644 31.414 94.5565 30.6758C95.0486 29.9377 95.3325 28.6125 95.4856 27.6083Z" fill="#6AA5A9"/>
<path d="M96.738 65.5562C92.6637 68.3581 87.0895 67.3265 84.2876 63.2522L55.5091 21.4034C52.7072 17.3291 53.7388 11.7549 57.8131 8.95311C61.8874 6.15129 67.4616 7.18285 70.2634 11.2572L99.042 53.1059C101.844 57.1802 100.812 62.7544 96.738 65.5562Z" fill="#A3D2D5"/>
<path fill-rule="evenodd" clip-rule="evenodd" d="M83.8059 63.5835L55.0273 21.7347C52.0425 17.3944 53.1414 11.4561 57.4818 8.47132C61.8222 5.48653 67.7604 6.58545 70.7452 10.9258L99.5238 52.7746C102.509 57.115 101.41 63.0532 97.0693 66.038C92.7289 69.0228 86.7907 67.9239 83.8059 63.5835ZM84.2877 63.2522C87.0895 67.3265 92.6637 68.3581 96.738 65.5562C100.812 62.7544 101.844 57.1802 99.042 53.1059L70.2634 11.2571C67.4616 7.18283 61.8874 6.15128 57.8131 8.9531C53.7388 11.7549 52.7072 17.3291 55.5091 21.4034L84.2877 63.2522Z" fill="#6AA5A9"/>
<g clip-path="url(#clip0_2_700)">
<rect x="74.2336" y="48.632" width="41.9986" height="17.9064" rx="8.95319" transform="rotate(-124.516 74.2336 48.632)" fill="white"/>
<path fill-rule="evenodd" clip-rule="evenodd" d="M78.8201 40.8558C75.9817 42.6592 72.5551 43.1424 69.1283 42.3569L69.1936 42.0719C72.5528 42.8419 75.8979 42.3661 78.6633 40.6091C81.4282 38.8525 83.6268 35.8067 84.6766 31.4128L84.9609 31.4808C83.8964 35.9364 81.659 39.0522 78.8201 40.8558ZM75.9151 36.6315C73.0767 38.4348 69.6501 38.918 66.2233 38.1325L66.2886 37.8475C69.6478 38.6175 72.9929 38.1417 75.7583 36.3847C78.5232 34.6281 80.7218 31.5824 81.7716 27.1885L82.0559 27.2564C80.9914 31.712 78.754 34.8278 75.9151 36.6315ZM72.429 31.5621C69.5906 33.3655 66.164 33.8487 62.7372 33.0632L62.8025 32.7782C66.1617 33.5482 69.5068 33.0724 72.2722 31.3154C75.0371 29.5588 77.2357 26.513 78.2855 22.1191L78.5698 22.1871C77.5053 26.6427 75.2679 29.7585 72.429 31.5621Z" fill="#A3D2D5"/>
<path fill-rule="evenodd" clip-rule="evenodd" d="M59.3244 12.5059C56.6248 14.511 54.9473 17.5377 54.4545 21.0187L54.7439 21.0597C55.2271 17.6474 56.8685 14.6941 59.4987 12.7406C62.1285 10.7874 65.7593 9.82444 70.2379 10.4166L70.2762 10.1267C65.7347 9.52629 62.0246 10.5004 59.3244 12.5059ZM62.2294 16.7303C59.5298 18.7353 57.8523 21.7621 57.3595 25.2431L57.649 25.2841C58.1321 21.8718 59.7735 18.9185 62.4037 16.965C65.0335 15.0118 68.6643 14.0488 73.1429 14.6409L73.1812 14.3511C68.6397 13.7507 64.9296 14.7248 62.2294 16.7303ZM65.7155 21.7996C63.0158 23.8047 61.3384 26.8314 60.8456 30.3124L61.135 30.3534C61.6181 26.9411 63.2596 23.9878 65.8898 22.0343C68.5196 20.0811 72.1504 19.1181 76.629 19.7103L76.6673 19.4204C72.1258 18.82 68.4157 19.7941 65.7155 21.7996Z" fill="#A3D2D5"/>
<path fill-rule="evenodd" clip-rule="evenodd" d="M51.9171 9.21922C61.7587 18.9847 74.9377 38.0447 79.8246 49.8024L79.5546 49.9146C74.6843 38.1967 61.5287 19.1684 51.7111 9.42675L51.9171 9.21922ZM55.2895 6.90005C65.1312 16.6655 78.3102 35.7255 83.197 47.4832L82.9271 47.5954C78.0567 35.8776 64.9012 16.8492 55.0836 7.10758L55.2895 6.90005ZM58.5415 4.66371C68.3832 14.4292 81.5622 33.4892 86.449 45.2469L86.1791 45.3591C81.3088 33.6412 68.1532 14.6128 58.3356 4.87124L58.5415 4.66371Z" fill="#A3D2D5"/>
</g>
<defs>
<clipPath id="clip0_2_700">
<rect x="74.2336" y="48.632" width="41.9986" height="17.9064" rx="8.95319" transform="rotate(-124.516 74.2336 48.632)" fill="white"/>
</clipPath>
</defs>
</svg>
