<svg width="120" height="88" viewBox="0 0 120 88" fill="none" xmlns="http://www.w3.org/2000/svg">
<path d="M17.3333 32.6667V15.3333H13V11H26V15.3333H21.6667V32.6667H17.3333Z" fill="#3F7856"/>
<path d="M0 32.6667V11H4.33333V32.6667H0Z" fill="#3F7856"/>
<ellipse cx="55.0421" cy="43.437" rx="49.5" ry="24.191" transform="rotate(-26.2234 55.0421 43.437)" fill="#F2F2F2"/>
<path d="M68.974 37.4074C82.8129 20.3088 99.0773 6.53093 105.208 6.86663C109.872 7.12201 98.5 24.4725 98.5 24.4725C98.5 24.4725 106.832 10.1562 102.554 10.3035C98.2765 10.4508 84.7391 20.4321 71 37.4074C57.2609 54.3826 51.384 65.7171 57.3719 66.0449C61.177 66.2533 76.1922 54.465 76.1922 54.465C76.1922 54.465 58.8239 69.3763 54.7943 69.1557C48.6632 68.82 55.1351 54.506 68.974 37.4074Z" fill="#A3D2D5"/>
<path fill-rule="evenodd" clip-rule="evenodd" d="M97.9742 25.3231C97.5132 25.0382 97.3631 24.4379 97.6357 23.9695L97.6408 23.9606L97.6577 23.9315C97.6695 23.9111 97.6859 23.8826 97.7066 23.8465L97.7246 23.8151C97.7832 23.7125 97.8693 23.5613 97.9775 23.3683C98.1941 22.9823 98.4994 22.43 98.8526 21.7674C99.5605 20.4396 100.455 18.6804 101.214 16.934C101.985 15.1627 102.575 13.4952 102.735 12.3206C102.816 11.722 102.76 11.4191 102.71 11.3091C102.688 11.3051 102.649 11.3008 102.589 11.3029C101.792 11.3304 100.334 11.8595 98.2568 13.0763C96.2301 14.2637 93.7514 16.0218 90.9603 18.3173C85.3807 22.9062 78.6085 29.5962 71.7773 38.0365C64.918 46.5115 60.0734 53.5169 57.687 58.4075C56.4774 60.8864 55.9804 62.6644 56.0415 63.7636C56.0702 64.2804 56.2165 64.5487 56.3715 64.6992C56.5307 64.8538 56.8328 65.0139 57.4265 65.0464C57.6779 65.0602 58.1613 64.9676 58.9094 64.6756C59.6265 64.3957 60.482 63.9754 61.4334 63.4486C63.3339 62.3961 65.5365 60.9635 67.6407 59.5103C69.741 58.0597 71.7255 56.6011 73.1861 55.5041C73.916 54.9559 74.5142 54.4987 74.9294 54.1788C75.137 54.019 75.2989 53.8934 75.4086 53.8081L75.5332 53.7109L75.5742 53.6788L76.1922 54.465C76.1922 54.465 68.1249 60.7985 62.3183 64.0987C60.2031 65.3009 58.3879 66.1005 57.3719 66.0449C51.384 65.7171 57.2609 54.3826 71 37.4074C84.7391 20.4321 98.2765 10.4508 102.554 10.3035C103.991 10.254 104.005 11.8361 103.391 13.9593C102.175 18.1579 98.5 24.4725 98.5 24.4725L99.3363 25.0207C99.0392 25.474 98.4352 25.6081 97.9742 25.3231ZM104.327 14.321C102.006 19.1229 98.5 24.4725 98.5 24.4725C99.3363 25.0207 99.3362 25.0209 99.3363 25.0207L99.3454 25.0068L99.3705 24.9683C99.3925 24.9345 99.4247 24.8849 99.4664 24.8203C99.5499 24.6912 99.6711 24.5026 99.8235 24.2629C100.128 23.7835 100.558 23.0993 101.058 22.2777C102.058 20.6368 103.347 18.4382 104.491 16.2248C105.626 14.0312 106.658 11.7497 107.099 9.96489C107.313 9.09588 107.429 8.18917 107.224 7.43453C107.115 7.0327 106.904 6.63369 106.534 6.33169C106.163 6.02889 105.717 5.893 105.263 5.86813C103.414 5.76686 101.024 6.70648 98.4042 8.22773C95.7329 9.7789 92.6435 12.0434 89.3366 14.835C82.7193 20.4212 75.15 28.1872 68.1967 36.7782C61.25 45.3612 56.1138 53.2903 53.4829 59.1585C52.1791 62.0665 51.4328 64.592 51.4775 66.4815C51.5002 67.4393 51.7287 68.3458 52.3091 69.0386C52.9093 69.7551 53.7653 70.1008 54.7396 70.1542C55.5013 70.1959 56.404 69.8937 57.2805 69.4999C58.1988 69.0874 59.2504 68.4971 60.3664 67.8022C62.6011 66.4105 65.1791 64.545 67.6113 62.6879C70.0473 60.8277 72.3545 58.9623 74.0516 57.563C74.9005 56.863 75.5976 56.279 76.0829 55.8696C76.3255 55.6649 76.5152 55.5039 76.6445 55.3938L76.7922 55.2678L76.8426 55.2246C76.8428 55.2244 76.8436 55.2237 76.1922 54.465L76.8436 55.2237C77.2562 54.8695 77.3101 54.2506 76.965 53.8304C76.62 53.4102 76.0019 53.343 75.5742 53.6788L76.1922 54.465C76.1922 54.465 69.043 60.6028 62.854 64.9444C59.3965 67.3699 56.2386 69.2347 54.7943 69.1557C48.6632 68.82 55.1351 54.506 68.974 37.4074C82.8129 20.3088 99.0773 6.53093 105.208 6.86663C107.283 6.98021 106.185 10.475 104.327 14.321Z" fill="#A3D2D5"/>
<path d="M106.393 30.2935C106.449 30.0517 107.009 30.0517 107.064 30.2935C107.391 31.7237 107.997 33.611 109.049 34.6624C110.1 35.7137 111.987 36.3201 113.418 36.6473C113.659 36.7026 113.659 37.2623 113.418 37.3176C111.987 37.6448 110.1 38.2511 109.049 39.3025C107.997 40.3538 107.391 42.2412 107.064 43.6714C107.009 43.9131 106.449 43.9131 106.393 43.6714C106.066 42.2412 105.46 40.3538 104.409 39.3025C103.357 38.2511 101.47 37.6448 100.04 37.3176C99.798 37.2623 99.798 36.7026 100.04 36.6473C101.47 36.3201 103.357 35.7137 104.409 34.6624C105.46 33.611 106.066 31.7237 106.393 30.2935Z" fill="#A3D2D5"/>
<path d="M57.7598 30.4897C57.7598 33.025 57.0578 35.3669 55.6537 37.5154C54.2497 39.6639 51.9309 41.2967 48.6974 42.414L56.1005 61.6861H41.8686L36.2525 43.832H35.5505L31.7851 61.6861H18L26.6157 20.757H43.4003C45.3575 20.757 47.2082 20.8859 48.9526 21.1437C50.6971 21.3585 52.2075 21.8312 53.4839 22.5617C54.8028 23.2492 55.8452 24.2375 56.611 25.5267C57.3768 26.7728 57.7598 28.4272 57.7598 30.4897ZM39.3797 39.7068C40.4859 39.7068 41.4219 39.3416 42.1877 38.6111C42.9961 37.8376 43.6343 36.9138 44.1023 35.8395C44.6129 34.7653 44.9745 33.6266 45.1873 32.4234C45.4 31.1772 45.5064 30.103 45.5064 29.2006C45.5064 28.0834 45.3149 27.138 44.932 26.3646C44.5491 25.5481 43.7194 25.1399 42.443 25.1399H39.5711L36.3801 39.7068H39.3797Z" fill="#45625D"/>
<path d="M96.4856 27.6083C96.5115 27.4386 96.7735 27.4386 96.7994 27.6083C96.9525 28.6125 97.2364 29.9377 97.7285 30.6758C98.2206 31.414 99.1041 31.8397 99.7735 32.0695C99.8867 32.1083 99.8867 32.5013 99.7735 32.5401C99.1041 32.7699 98.2206 33.1956 97.7285 33.9338C97.2364 34.672 96.9525 35.9971 96.7994 37.0013C96.7735 37.171 96.5115 37.171 96.4856 37.0013C96.3325 35.9971 96.0486 34.672 95.5565 33.9338C95.0644 33.1956 94.1809 32.7699 93.5115 32.5401C93.3983 32.5013 93.3983 32.1083 93.5115 32.0695C94.1809 31.8397 95.0644 31.414 95.5565 30.6758C96.0486 29.9377 96.3325 28.6125 96.4856 27.6083Z" fill="#6AA5A9"/>
<path d="M97.738 65.5562C93.6637 68.3581 88.0895 67.3265 85.2877 63.2522L56.5091 21.4034C53.7073 17.3291 54.7389 11.7549 58.8132 8.95311C62.8875 6.15129 68.4617 7.18285 71.2635 11.2572L100.042 53.1059C102.844 57.1802 101.812 62.7544 97.738 65.5562Z" fill="#A3D2D5"/>
<path fill-rule="evenodd" clip-rule="evenodd" d="M84.8059 63.5835L56.0273 21.7347C53.0425 17.3944 54.1414 11.4561 58.4818 8.47132C62.8222 5.48653 68.7604 6.58545 71.7452 10.9258L100.524 52.7746C103.509 57.115 102.41 63.0532 98.0693 66.038C93.7289 69.0228 87.7907 67.9239 84.8059 63.5835ZM85.2877 63.2522C88.0895 67.3265 93.6637 68.3581 97.738 65.5562C101.812 62.7544 102.844 57.1802 100.042 53.1059L71.2634 11.2571C68.4616 7.18283 62.8874 6.15128 58.8131 8.9531C54.7388 11.7549 53.7072 17.3291 56.5091 21.4034L85.2877 63.2522Z" fill="#6AA5A9"/>
<g clip-path="url(#clip0_2_621)">
<rect x="75.2336" y="48.632" width="41.9986" height="17.9064" rx="8.95319" transform="rotate(-124.516 75.2336 48.632)" fill="white"/>
<path fill-rule="evenodd" clip-rule="evenodd" d="M79.8201 40.8558C76.9817 42.6592 73.5551 43.1424 70.1283 42.3569L70.1936 42.0719C73.5528 42.8419 76.8979 42.3661 79.6633 40.6091C82.4282 38.8525 84.6268 35.8067 85.6766 31.4128L85.9609 31.4808C84.8964 35.9364 82.659 39.0522 79.8201 40.8558ZM76.9151 36.6315C74.0767 38.4348 70.6501 38.918 67.2233 38.1325L67.2886 37.8475C70.6478 38.6175 73.9929 38.1417 76.7583 36.3847C79.5232 34.6281 81.7218 31.5824 82.7716 27.1885L83.0559 27.2564C81.9914 31.712 79.754 34.8278 76.9151 36.6315ZM73.429 31.5621C70.5906 33.3655 67.164 33.8487 63.7372 33.0632L63.8025 32.7782C67.1617 33.5482 70.5068 33.0724 73.2722 31.3154C76.0371 29.5588 78.2357 26.513 79.2855 22.1191L79.5698 22.1871C78.5053 26.6427 76.2679 29.7585 73.429 31.5621Z" fill="#A3D2D5"/>
<path fill-rule="evenodd" clip-rule="evenodd" d="M60.3244 12.5059C57.6248 14.511 55.9473 17.5377 55.4545 21.0187L55.7439 21.0597C56.2271 17.6474 57.8685 14.6941 60.4987 12.7406C63.1285 10.7874 66.7593 9.82444 71.2379 10.4166L71.2762 10.1267C66.7347 9.52629 63.0246 10.5004 60.3244 12.5059ZM63.2294 16.7303C60.5298 18.7353 58.8523 21.7621 58.3595 25.2431L58.649 25.2841C59.1321 21.8718 60.7735 18.9185 63.4037 16.965C66.0335 15.0118 69.6643 14.0488 74.1429 14.6409L74.1812 14.3511C69.6397 13.7507 65.9296 14.7248 63.2294 16.7303ZM66.7155 21.7996C64.0158 23.8047 62.3384 26.8314 61.8456 30.3124L62.135 30.3534C62.6181 26.9411 64.2596 23.9878 66.8898 22.0343C69.5196 20.0811 73.1504 19.1181 77.629 19.7103L77.6673 19.4204C73.1258 18.82 69.4157 19.7941 66.7155 21.7996Z" fill="#A3D2D5"/>
<path fill-rule="evenodd" clip-rule="evenodd" d="M52.9171 9.21922C62.7587 18.9847 75.9377 38.0447 80.8246 49.8024L80.5546 49.9146C75.6843 38.1967 62.5287 19.1684 52.7111 9.42675L52.9171 9.21922ZM56.2895 6.90005C66.1312 16.6655 79.3102 35.7255 84.197 47.4832L83.9271 47.5954C79.0567 35.8776 65.9012 16.8492 56.0836 7.10758L56.2895 6.90005ZM59.5415 4.66371C69.3832 14.4292 82.5622 33.4892 87.449 45.2469L87.1791 45.3591C82.3088 33.6412 69.1532 14.6128 59.3356 4.87124L59.5415 4.66371Z" fill="#A3D2D5"/>
</g>
<defs>
<clipPath id="clip0_2_621">
<rect x="75.2336" y="48.632" width="41.9986" height="17.9064" rx="8.95319" transform="rotate(-124.516 75.2336 48.632)" fill="white"/>
</clipPath>
</defs>
</svg>
