<svg width="700" height="401" viewBox="0 0 700 401" fill="none" xmlns="http://www.w3.org/2000/svg">
<g clip-path="url(#clip0_126_2070)">
<path fill-rule="evenodd" clip-rule="evenodd" d="M279.064 331.93C228.107 352.367 186.583 356.154 170.138 334.952C149.398 308.215 173.648 252.409 226.22 194.446C212.918 239.784 216.417 281.779 237.576 307.672C238.06 308.537 238.613 309.372 239.238 310.178C241.977 313.709 245.769 317.115 250.545 319.886C250.999 320.213 251.457 320.535 251.921 320.851C260.067 326.411 269.213 330.062 279.064 331.93ZM471.045 42.3092C498.17 38.2446 519.051 42.4148 529.652 56.0815C551.23 83.8995 524.108 143.183 467.058 203.624C472.467 193.27 477.046 182.876 480.783 172.587C483.892 165.506 485.95 158.882 486.954 152.877C498.772 107.866 493.755 66.7585 471.045 42.3092Z" fill="#546E70"/>
<path fill-rule="evenodd" clip-rule="evenodd" d="M243.989 175.859C260.081 159.852 278.187 143.899 297.959 128.562C354.698 84.5498 412.945 55.0859 457.778 44.8378C472.274 57.027 480.055 75.8053 481.886 97.8896C482.635 106.921 482.397 116.484 481.193 126.408C461.632 106.854 400.245 132.891 331.548 186.179C280.491 225.783 245.789 261.026 237.144 286.118C233.032 277.026 230.56 266.647 229.628 255.411C227.65 231.55 232.557 203.971 243.989 175.859Z" fill="#243B3D"/>
<path fill-rule="evenodd" clip-rule="evenodd" d="M399.024 167.417C398.396 165.703 399.075 163.786 400.641 162.848C402.207 161.911 404.218 162.219 405.431 163.582C426.682 187.445 451.291 215.082 451.291 215.082C482.405 250.023 483.359 300.034 453.421 326.693C423.483 353.351 373.917 346.626 342.804 311.685C342.804 311.685 316.841 282.529 295.223 258.252C294.013 256.892 293.936 254.866 295.04 253.418C296.143 251.971 298.118 251.508 299.749 252.315C324.572 264.685 352.108 263.456 377.21 241.105C403.708 217.509 407.95 192.008 399.024 167.417Z" fill="#546E70"/>
<path fill-rule="evenodd" clip-rule="evenodd" d="M318.291 76.2454L363.564 127.828L363.437 127.667L363.577 127.843C390.958 159.041 384.969 196.06 358.186 219.567C331.402 243.074 293.919 244.209 266.525 212.997L221.252 161.414C193.799 130.134 193.104 85.6158 219.945 62.0581C246.786 38.5005 290.838 44.9659 318.291 76.2454Z" fill="#F3F3F3"/>
<path d="M314.238 79.8027C288.199 50.135 247.526 45.0267 223.503 66.1113C199.479 87.1961 199.267 128.188 225.305 157.856L270.578 209.439C283.407 224.057 298.291 230.802 312.811 231.414C327.392 232.027 342.139 226.476 354.629 215.514C367.118 204.552 374.536 190.65 375.821 176.114C377.091 161.752 372.42 146.254 359.823 131.743L359.524 131.401C359.519 131.396 359.515 131.391 359.511 131.386L314.238 79.8027ZM367.249 123.851C367.394 123.997 367.532 124.151 367.663 124.316L367.723 124.392C382.214 140.952 388.127 159.391 386.565 177.064C385.005 194.714 376.037 211.075 361.743 223.62C347.449 236.166 330.063 242.935 312.357 242.19C294.591 241.442 277.036 233.149 262.471 216.554L217.199 164.971C188.331 132.08 186.729 84.0355 216.388 58.0048C246.046 31.9743 293.476 39.7968 322.344 72.688L367.249 123.851Z" fill="#A3D2D5"/>
<path fill-rule="evenodd" clip-rule="evenodd" d="M249.353 162.312C248.32 161.125 246.724 160.594 245.187 160.925C230.852 164.032 223.356 161.638 220.878 160.521C220.317 160.267 219.817 159.897 219.412 159.434C217.835 157.638 212.981 152.101 209.018 147.58C207.949 146.359 207.653 144.642 208.255 143.135C208.856 141.627 210.251 140.585 211.867 140.435C214.82 140.156 218.344 139.771 222.112 139.261C223.595 139.056 224.866 138.097 225.469 136.728C226.073 135.358 225.924 133.773 225.075 132.54C222.01 127.883 217.899 121.316 215.752 116.658C211.669 107.805 207.745 97.2508 200.599 83.4646C199.688 81.7047 200.094 79.5505 201.581 78.2415C204.224 75.9139 208.399 72.2405 211.52 69.4945C212.52 68.6143 213.871 68.2454 215.18 68.4947C216.488 68.7441 217.609 69.5839 218.216 70.7702C224.629 83.6387 230.948 99.2564 234.423 107.235C237.485 114.265 240.059 120.062 244.475 125.401C245.678 126.856 246.878 128.299 248.073 129.73C249.325 131.228 251.425 131.7 253.197 130.881C263.893 125.881 274.227 118.14 281.504 106.175C282.49 104.537 282.278 102.447 280.985 101.039C279.688 99.6144 278.372 98.1896 277.044 96.7586C272.331 91.6816 266.926 88.3746 260.363 84.4232C252.908 79.9343 238.724 71.2065 226.922 63.0641C225.835 62.3051 225.158 61.0894 225.085 59.7662C225.011 58.443 225.549 57.1597 226.544 56.2846C229.498 53.6866 233.387 50.2684 235.906 48.0537C237.399 46.7415 239.595 46.618 241.225 47.7549C253.941 56.6333 263.876 61.8966 272.109 67.0965C276.683 69.9853 280.82 72.8881 284.665 76.1408C285.858 77.1677 287.517 77.4611 288.991 76.9057C290.464 76.3502 291.516 75.0345 291.735 73.4751C292.276 69.9553 292.817 66.0169 293.179 62.4312C293.272 60.8912 294.181 59.5186 295.562 58.8325C296.944 58.1465 298.587 58.2516 299.87 59.1084C304.478 62.1738 310.426 66.1462 313.416 68.1426C314.61 68.9403 315.33 70.2796 315.335 71.7158C315.361 83.1143 314.018 93.1144 311.618 101.887C311.221 103.297 311.567 104.812 312.537 105.911C317.69 111.752 322.637 117.454 327.39 122.996C328.46 124.244 330.146 124.777 331.739 124.369C333.332 123.961 334.555 122.684 334.893 121.075C335.72 117.153 336.524 112.837 337.03 108.566C337.233 106.874 338.411 105.46 340.039 104.955C341.667 104.451 343.439 104.952 344.562 106.233C349.747 112.148 356.307 119.63 358.779 122.451C359.439 123.203 359.816 124.162 359.848 125.162C360.352 140.154 357.472 141.105 353.57 150.601C352.983 152.024 353.199 153.652 354.136 154.873C362.566 165.707 365.05 170.006 376.176 191.517C376.879 192.871 376.816 194.494 376.01 195.789C374.342 198.469 371.368 203.247 368.923 207.173C368.108 208.482 366.657 209.257 365.116 209.206C363.575 209.155 362.178 208.286 361.451 206.926C355.529 195.915 349.601 185.91 345.117 178.399C344.407 177.204 343.164 176.424 341.778 176.304C340.393 176.184 339.034 176.739 338.129 177.794C331.597 185.4 324.014 191.298 316.152 195.874C314.923 196.589 314.126 197.863 314.02 199.281C313.915 200.698 314.515 202.077 315.624 202.966C322.492 208.435 331.59 215.431 341.809 222.765C343.134 223.713 343.812 225.327 343.562 226.937C343.312 228.547 342.176 229.879 340.626 230.381C335.664 231.987 329.723 233.91 326.669 234.898C325.373 235.317 323.954 235.1 322.843 234.312C302.431 220.092 300.837 218.81 291.249 208.751C290.169 207.614 288.558 207.153 287.04 207.545C276.254 210.451 270.433 211.528 267.686 211.926C266.347 212.016 265.042 211.477 264.157 210.468C261.348 207.276 255.135 200.189 250.609 195.026C249.566 193.836 249.258 192.17 249.806 190.685C250.354 189.201 251.67 188.135 253.237 187.908C255.81 187.536 258.822 187.078 261.981 186.555C263.532 186.293 264.817 185.208 265.336 183.723C265.854 182.238 265.524 180.589 264.474 179.418C259.563 173.937 254.514 168.238 249.353 162.312ZM305.464 128.471C304.606 127.483 303.346 126.938 302.038 126.989C300.731 127.04 299.517 127.681 298.738 128.732C291.487 138.465 282.475 145.547 273.02 150.697C271.865 151.324 271.059 152.442 270.83 153.736C270.601 155.03 270.975 156.357 271.844 157.342C277.732 164.01 283.453 170.363 288.959 176.425C290.232 177.825 292.269 178.234 293.983 177.432C304.547 172.437 314.988 164.901 322.73 153.528C323.806 151.93 323.691 149.812 322.448 148.34C317.072 141.963 311.417 135.328 305.464 128.471Z" fill="#A3D2D5"/>
</g>
<path fill-rule="evenodd" clip-rule="evenodd" d="M550.779 299.226C551.053 298.47 551.77 297.967 552.575 297.967C553.379 297.967 554.097 298.47 554.371 299.226C555.938 303.458 558.497 308.168 561.909 311.58C565.32 314.991 570.03 317.55 574.262 319.118C575.018 319.392 575.521 320.11 575.521 320.913C575.521 321.717 575.018 322.435 574.262 322.709C570.03 324.277 565.32 326.836 561.909 330.247C558.497 333.659 555.938 338.369 554.371 342.6C554.097 343.357 553.379 343.86 552.575 343.86C551.77 343.86 551.053 343.357 550.779 342.6C549.211 338.369 546.652 333.659 543.24 330.247C539.829 326.836 535.12 324.277 530.888 322.709C530.132 322.435 529.628 321.717 529.628 320.913C529.628 320.11 530.132 319.392 530.888 319.118C535.12 317.55 539.829 314.991 543.24 311.58C546.652 308.168 549.211 303.458 550.779 299.226Z" fill="#A6DEAB"/>
<path fill-rule="evenodd" clip-rule="evenodd" d="M112.384 73.3756C112.658 72.6195 113.375 72.1165 114.18 72.1165C114.984 72.1165 115.702 72.6195 115.976 73.3756C117.543 77.607 120.102 82.3172 123.514 85.7287C126.925 89.1402 131.635 91.6988 135.867 93.2667C136.623 93.5409 137.126 94.2589 137.126 95.0626C137.126 95.8664 136.623 96.5843 135.867 96.8586C131.635 98.4264 126.925 100.985 123.514 104.397C120.102 107.808 117.543 112.518 115.976 116.75C115.702 117.506 114.984 118.009 114.18 118.009C113.375 118.009 112.658 117.506 112.384 116.75C110.816 112.518 108.257 107.808 104.845 104.397C101.434 100.985 96.7245 98.4264 92.4933 96.8586C91.7372 96.5843 91.2334 95.8664 91.2334 95.0626C91.2334 94.2589 91.7372 93.5409 92.4933 93.2667C96.7245 91.6988 101.434 89.1402 104.845 85.7287C108.257 82.3172 110.816 77.607 112.384 73.3756Z" fill="#A6DEAB"/>
<path fill-rule="evenodd" clip-rule="evenodd" d="M499.587 315.132C499.773 314.234 500.556 313.591 501.462 313.591C502.37 313.591 503.152 314.234 503.339 315.132C505.072 323.308 507.967 332.52 511.857 339.149C516.477 347.022 523.235 352.503 528.574 355.117C529.234 355.441 529.653 356.118 529.653 356.861C529.653 357.604 529.234 358.282 528.573 358.606C523.235 361.22 516.477 366.701 511.857 374.574C507.967 381.203 505.072 390.415 503.339 398.591C503.152 399.488 502.37 400.131 501.462 400.131C500.556 400.131 499.773 399.488 499.587 398.591C497.853 390.415 494.958 381.203 491.069 374.574C486.449 366.701 479.69 361.22 474.352 358.606C473.691 358.282 473.271 357.604 473.271 356.861C473.271 356.118 473.691 355.441 474.352 355.117C479.69 352.503 486.449 347.022 491.069 339.149C494.958 332.52 497.853 323.308 499.587 315.132Z" fill="#3F7857"/>
<path fill-rule="evenodd" clip-rule="evenodd" d="M163.441 1.54077C163.627 0.643082 164.41 -0.000244141 165.316 -0.000244141C166.224 -0.000244141 167.006 0.643082 167.193 1.54077C168.926 9.71661 171.821 18.9285 175.711 25.5573C180.331 33.4305 187.089 38.9118 192.428 41.5253C193.088 41.8495 193.508 42.5271 193.508 43.27C193.508 44.013 193.088 44.6906 192.427 45.0148C187.089 47.6283 180.331 53.1096 175.711 60.9828C171.821 67.6116 168.926 76.8235 167.193 84.9993C167.006 85.897 166.224 86.5396 165.316 86.5396C164.41 86.5396 163.627 85.897 163.441 84.9993C161.707 76.8235 158.812 67.6116 154.923 60.9828C150.303 53.1096 143.544 47.6283 138.206 45.0148C137.545 44.6906 137.125 44.013 137.125 43.27C137.125 42.5271 137.545 41.8495 138.206 41.5253C143.544 38.9118 150.303 33.4305 154.923 25.5573C158.812 18.9285 161.707 9.71661 163.441 1.54077Z" fill="#3F7857"/>
<path fill-rule="evenodd" clip-rule="evenodd" d="M665.532 183.389C665.622 183.306 665.716 183.22 665.813 183.132C666.295 182.699 666.864 182.214 667.522 181.68C667.817 181.454 668.114 181.258 668.413 181.091C669.271 180.612 670.147 180.373 671.042 180.373C671.082 180.373 671.123 180.373 671.163 180.374C672.107 180.4 672.804 180.735 673.254 181.378C673.79 181.981 674.058 182.786 674.058 183.791C674.058 184.529 673.958 185.367 673.757 186.305C673.555 187.176 673.388 188.048 673.254 188.919L667.724 215.163H688.135L692.358 195.556C692.559 194.483 692.794 193.276 693.062 191.936C693.397 190.528 693.699 189.154 693.967 187.813C694.235 186.473 694.47 185.199 694.671 183.992C694.872 182.719 694.973 181.646 694.973 180.775C694.973 177.691 693.833 175.278 691.554 173.535C689.275 171.725 686.392 170.82 682.907 170.82C680.359 170.82 678.047 171.223 675.969 172.027C673.891 172.831 672.081 173.703 670.539 174.641C670.21 174.856 669.887 175.075 669.57 175.297C669.474 175.364 669.379 175.432 669.284 175.5C668.132 176.325 667.061 177.198 666.07 178.12C665.984 178.2 665.898 178.281 665.813 178.362H665.21L663.4 171.926H647.01L637.86 215.163H658.372L665.009 183.892C665.167 183.733 665.342 183.566 665.532 183.389ZM631.658 220.19L633.653 210.761C632.859 211.672 632.003 212.528 631.082 213.328L631.053 213.353L631.024 213.378C624.692 218.71 615.982 220.995 605.665 220.995C597.034 220.995 589.607 219.394 584.663 215.03C581.527 212.324 579.471 208.898 578.328 204.961L575.035 220.19H544.535C543.741 220.345 542.892 220.427 542.105 220.48C541.176 220.546 540.13 220.612 538.968 220.677C537.708 220.819 536.405 220.889 535.063 220.894C533.842 220.96 532.719 220.995 531.704 220.995C529.792 220.995 527.906 220.844 526.048 220.54C523.952 220.267 521.953 219.676 520.111 218.707L520.022 218.659L519.934 218.609C517.877 217.418 516.239 215.751 515.025 213.727L514.976 213.646L514.931 213.564C513.633 211.205 513.202 208.454 513.202 205.711C513.202 204.78 513.241 203.674 513.311 202.416L513.318 202.277L513.334 202.139C513.492 200.718 513.76 199.2 514.123 197.599C514.126 197.585 514.129 197.572 514.132 197.558L514.298 196.766C513.784 199.168 513.078 201.633 512.19 204.16L512.183 204.181L512.175 204.201C511.152 207.036 509.766 209.661 508.014 212.059C506.178 214.667 503.83 216.783 501.035 218.397C497.972 220.207 494.474 220.995 490.756 220.995C488.673 220.995 486.621 220.744 484.609 220.241L484.584 220.235L484.56 220.228C482.685 219.739 480.912 219.071 479.264 218.204C479.051 218.092 478.841 217.977 478.633 217.86L474.508 237.083H443.735L447.294 220.19H417.892L422.403 198.874H406.115L405.958 194.008C405.945 193.612 405.93 193.233 405.913 192.873L400.066 220.19H369.286L369.81 217.716C366.861 218.842 363.773 219.643 360.555 220.126C357.14 220.716 353.344 220.995 349.197 220.995C345.392 220.995 341.795 220.629 338.43 219.864L338.364 219.849L338.298 219.832C334.885 218.959 331.782 217.576 329.068 215.625C326.726 213.942 324.809 211.855 323.33 209.407C323.036 209.974 322.706 210.527 322.336 211.064C320.519 213.735 318.023 215.796 315.057 217.321L315.032 217.334L315.006 217.347C312.153 218.773 308.907 219.706 305.36 220.235C301.998 220.746 298.427 220.995 294.659 220.995C289.019 220.995 284.122 220.58 280.075 219.664C276.501 218.855 273.452 217.97 271.412 216.901L269.366 215.83C267.794 216.784 266.077 217.569 264.241 218.204C262.278 218.884 260.224 219.442 258.084 219.885L258.002 219.902L257.92 219.916C255.827 220.277 253.704 220.53 251.551 220.676C249.422 220.887 247.371 220.995 245.402 220.995C241.751 220.995 238.285 220.666 235.021 219.983C231.572 219.261 228.423 217.986 225.661 216.088C222.814 214.13 220.57 211.556 218.935 208.46L218.897 208.387L218.861 208.313C217.486 205.487 216.781 202.299 216.595 198.874H201.481L201.324 194.008C201.311 193.611 201.296 193.233 201.279 192.873L195.432 220.19H164.652L171.078 189.824C170.93 189.97 170.78 190.115 170.629 190.259L170.626 190.262C167.584 193.134 163.767 195.27 159.361 196.789C154.796 198.363 149.482 199.075 143.544 199.075H141.877L137.353 220.19H105.361L121.073 146.286H148.371C152.363 146.286 156.066 146.496 159.465 146.93C163.081 147.392 166.403 148.34 169.325 149.887C172.462 151.548 174.935 153.978 176.675 157.078C178.297 159.91 179.041 163.275 179.204 166.899H200.516L201.064 169.638C201.264 169.492 201.466 169.347 201.671 169.205C205.173 166.773 209.459 165.793 214.091 165.793C214.593 165.793 215.14 165.841 215.647 165.899C216.589 165.93 217.505 166.086 218.382 166.329C219.376 166.531 220.339 166.842 221.266 167.245C222.497 167.685 223.639 168.303 224.69 169.067L227.332 170.988L226.776 173.592C229.522 171.37 232.783 169.628 236.457 168.303L236.469 168.299L236.481 168.294C241.345 166.568 247.118 165.793 253.647 165.793C260.698 165.793 266.836 166.855 271.361 169.654C273.951 171.232 275.853 173.3 277.098 175.734C278.994 173.257 281.369 171.275 284.162 169.796L284.188 169.782L284.215 169.768C287.041 168.315 290.128 167.298 293.438 166.682L293.458 166.678C296.699 166.089 299.949 165.793 303.205 165.793C307.197 165.793 311.022 166.156 314.668 166.9C318.227 167.626 321.389 168.619 324.012 169.973L327.473 171.759L326.004 178.212C326.946 176.97 327.996 175.802 329.151 174.709L329.175 174.686L329.2 174.664C332.344 171.768 336.197 169.603 340.62 168.078C345.168 166.51 350.374 165.793 356.135 165.793C360.738 165.793 364.903 166.179 368.573 167.015C372.811 167.909 376.413 170.031 379.205 173.319L380.564 166.899H405.15L405.698 169.638C405.898 169.492 406.1 169.347 406.305 169.205C409.807 166.773 414.093 165.793 418.725 165.793C419.227 165.793 419.774 165.841 420.281 165.899C421.224 165.93 422.139 166.086 423.016 166.329C424.01 166.531 424.973 166.842 425.9 167.245C426.925 167.611 427.889 168.101 428.789 168.696L429.169 166.899H432.522C431.34 164.89 430.831 162.559 430.831 160.162C430.831 158.006 431.273 155.89 432.292 153.942C433.217 152.11 434.506 150.521 436.182 149.287C437.743 148.12 439.478 147.261 441.352 146.699L441.384 146.69L441.415 146.681C443.275 146.149 445.182 145.884 447.12 145.884C450.578 145.884 453.848 146.739 456.65 148.71C460.089 151.131 461.499 154.829 461.499 158.754C461.499 161.005 461.011 163.22 459.857 165.226C459.539 165.814 459.183 166.372 458.79 166.899H482.8L483.703 170.111C484.975 169.36 486.307 168.727 487.7 168.218C491.208 166.896 494.749 166.195 498.297 166.195C501.083 166.195 503.785 166.62 506.178 167.737C508.326 168.65 510.225 169.983 511.713 171.8L512.569 167.702L515.76 167.012C518.081 166.51 520.042 165.962 521.667 165.382C523.203 164.833 524.554 164.165 525.74 163.392L525.78 163.365L525.821 163.339C527.049 162.572 528.235 161.605 529.374 160.411L529.414 160.369L529.456 160.327C530.75 159.034 532.189 157.387 533.775 155.358L535.284 153.425H554.325L551.409 166.899H558.994C557.813 164.89 557.304 162.559 557.304 160.162C557.304 158.006 557.746 155.89 558.765 153.942C559.69 152.11 560.979 150.521 562.654 149.287C564.215 148.12 565.951 147.261 567.824 146.699L567.856 146.69L567.888 146.681C569.748 146.149 571.654 145.884 573.593 145.884C577.05 145.884 580.32 146.739 583.122 148.71C586.562 151.131 587.971 154.829 587.971 158.754C587.971 161.005 587.483 163.22 586.329 165.226C586.012 165.814 585.656 166.372 585.262 166.899H586.561L584.55 176.194C586.064 174.498 587.787 172.975 589.71 171.629L589.751 171.6L589.791 171.573C595.806 167.536 603.615 165.793 612.703 165.793C621.053 165.793 628.23 167.225 633.178 171.07C636.593 173.709 638.726 177.286 639.854 181.462L642.935 166.899H667.208L668.141 170.216C669.935 169.145 671.949 168.192 674.154 167.338C676.887 166.28 679.826 165.793 682.907 165.793C687.279 165.793 691.316 166.941 694.644 169.569C698.246 172.341 700 176.276 700 180.775C700 182.001 699.861 183.354 699.637 184.776L699.633 184.798L699.63 184.819C699.419 186.084 699.174 187.412 698.897 188.799C698.622 190.174 698.314 191.578 697.974 193.01C697.716 194.3 697.492 195.457 697.3 196.482L697.287 196.548L692.195 220.19H631.658ZM630.098 175.043C626.479 172.228 620.68 170.82 612.703 170.82C604.19 170.82 597.487 172.463 592.593 175.747C589.242 178.093 586.661 181.043 584.851 184.596C583.108 188.148 582.237 192.103 582.237 196.46C582.237 203.03 584.147 207.957 587.968 211.241C591.521 214.392 597.42 215.967 605.665 215.967C615.318 215.967 622.691 213.822 627.786 209.532C630.333 207.32 632.31 204.538 633.718 201.186C635.126 197.768 635.83 193.947 635.83 189.724C635.83 182.886 633.919 177.993 630.098 175.043ZM614.815 191.031C614.48 193.913 613.943 196.729 613.206 199.477C612.469 202.158 611.463 204.437 610.19 206.314C608.983 208.191 607.542 209.13 605.866 209.13C603.52 209.13 602.347 206.951 602.347 202.594C602.347 200.851 602.514 198.572 602.849 195.757C603.252 192.941 603.855 190.193 604.659 187.512C605.464 184.83 606.503 182.518 607.776 180.574C609.117 178.63 610.692 177.658 612.502 177.658C613.709 177.658 614.48 178.16 614.815 179.166C615.217 180.104 615.418 181.512 615.418 183.389C615.418 185.534 615.217 188.081 614.815 191.031ZM610.236 186.755C609.965 187.438 609.711 188.171 609.475 188.956C608.749 191.375 608.202 193.859 607.835 196.409C607.626 198.171 607.493 199.652 607.427 200.872C607.766 200.063 608.078 199.162 608.354 198.159C609.025 195.657 609.514 193.088 609.821 190.45L609.827 190.401L609.833 190.352C610.011 189.047 610.144 187.849 610.236 186.755ZM579.424 165.692C580.497 164.888 581.335 163.916 581.938 162.776C582.609 161.637 582.944 160.296 582.944 158.754C582.944 156.073 582.039 154.096 580.229 152.822C578.419 151.548 576.207 150.912 573.593 150.912C572.118 150.912 570.677 151.113 569.269 151.515C567.928 151.917 566.722 152.52 565.649 153.325C564.644 154.062 563.839 155.034 563.236 156.241C562.633 157.38 562.331 158.687 562.331 160.162C562.331 162.91 563.236 164.921 565.046 166.195C565.417 166.457 565.807 166.691 566.216 166.899C567.796 167.703 569.652 168.105 571.783 168.105C573.19 168.105 574.565 167.904 575.905 167.502C576.461 167.336 576.987 167.135 577.485 166.899C578.189 166.566 578.836 166.164 579.424 165.692ZM552.088 183.691H547.85L544.563 199.322L544.56 199.338C544.242 200.799 543.994 202.074 543.81 203.169C544.299 203.187 544.854 203.197 545.479 203.197H547.96L552.088 183.691ZM539.949 207.722C539.01 207.387 538.541 206.549 538.541 205.208C538.541 204.538 538.641 203.599 538.843 202.393C539.044 201.186 539.312 199.812 539.647 198.27L543.769 178.663H551.713L553.02 171.926H545.177L548.093 158.453H537.737C536.061 160.598 534.485 162.408 533.011 163.882C531.603 165.357 530.095 166.597 528.486 167.603C526.944 168.608 525.235 169.446 523.358 170.116C521.481 170.787 519.302 171.39 516.822 171.926L515.415 178.663H523.257L519.034 198.673C518.699 200.147 518.464 201.488 518.33 202.695C518.263 203.901 518.23 204.907 518.23 205.711C518.23 207.99 518.599 209.8 519.336 211.141C520.14 212.481 521.179 213.52 522.453 214.258C523.727 214.928 525.168 215.364 526.777 215.565C528.385 215.833 530.028 215.967 531.704 215.967C532.642 215.967 533.715 215.934 534.921 215.867C536.195 215.867 537.401 215.8 538.541 215.665C539.747 215.598 540.82 215.531 541.759 215.464C542.764 215.397 543.501 215.297 543.971 215.163L545.479 208.225C543.169 208.225 541.481 208.1 540.415 207.852C540.243 207.812 540.088 207.768 539.949 207.722ZM517.058 183.691L514.388 196.34C514.888 193.84 515.225 191.513 515.377 189.378C515.513 187.475 515.591 185.921 515.591 184.797C515.591 184.426 515.585 184.058 515.571 183.691H517.058ZM510.54 183.691C510.481 182.342 510.314 181.048 510.039 179.808C510.014 179.694 509.988 179.581 509.96 179.468C509.558 177.792 508.888 176.351 507.95 175.144C507.011 173.937 505.737 172.999 504.129 172.329C502.587 171.591 500.643 171.223 498.297 171.223C495.414 171.223 492.465 171.792 489.448 172.932C487.936 173.482 486.495 174.225 485.124 175.163C484.602 175.519 484.091 175.904 483.59 176.316C482.917 176.87 482.263 177.474 481.627 178.129C481.553 178.206 481.478 178.283 481.404 178.362H480.801L478.991 171.926H462.602L449.932 232.055H470.445L475.472 208.627H476.075C476.1 208.675 476.124 208.724 476.15 208.772C476.428 209.301 476.78 209.829 477.206 210.357C477.498 210.719 477.825 211.081 478.187 211.442C478.677 211.867 479.198 212.268 479.752 212.644C480.334 213.041 480.952 213.411 481.606 213.755C482.879 214.425 484.287 214.962 485.829 215.364C487.437 215.766 489.08 215.967 490.756 215.967C493.772 215.967 496.353 215.33 498.498 214.057C500.71 212.783 502.52 211.141 503.927 209.13C505.402 207.119 506.575 204.907 507.447 202.493C508.318 200.013 508.989 197.634 509.458 195.354C509.927 193.008 510.229 190.897 510.363 189.02C510.497 187.143 510.564 185.735 510.564 184.797C510.564 184.424 510.556 184.055 510.54 183.691ZM480.466 206.166C480.672 206.198 480.884 206.214 481.103 206.214C482.712 206.214 484.052 205.376 485.125 203.7C486.197 201.957 487.069 199.946 487.739 197.667C488.409 195.321 488.879 193.008 489.147 190.729C489.482 188.383 489.649 186.64 489.649 185.501C489.649 184.16 489.415 183.054 488.946 182.182C488.543 181.311 487.773 180.875 486.633 180.875C486.407 180.875 486.183 180.89 485.961 180.92C485.475 180.984 485 181.12 484.534 181.327C484.015 181.557 483.508 181.876 483.013 182.283C482.505 182.672 482.057 183.04 481.668 183.389C481.186 183.822 480.797 184.224 480.499 184.596L476.578 202.996C476.724 203.197 476.878 203.398 477.039 203.599C477.469 204.136 477.952 204.672 478.488 205.208C479.065 205.733 479.725 206.052 480.466 206.166ZM559.717 171.926L550.567 215.163H570.978L580.329 171.926H559.717ZM452.952 165.692C454.025 164.888 454.862 163.916 455.466 162.776C456.136 161.637 456.471 160.296 456.471 158.754C456.471 156.073 455.566 154.096 453.756 152.822C451.947 151.548 449.734 150.912 447.12 150.912C445.645 150.912 444.204 151.113 442.797 151.515C441.456 151.917 440.249 152.52 439.177 153.325C438.171 154.062 437.367 155.034 436.764 156.241C436.16 157.38 435.859 158.687 435.859 160.162C435.859 162.91 436.764 164.921 438.573 166.195C438.945 166.457 439.335 166.691 439.743 166.899C441.324 167.703 443.179 168.105 445.31 168.105C446.718 168.105 448.092 167.904 449.433 167.502C449.988 167.336 450.515 167.135 451.012 166.899C451.716 166.566 452.363 166.164 452.952 165.692ZM433.244 171.926L424.094 215.163H444.506L453.857 171.926H433.244ZM424.054 171.926C423.317 171.591 422.58 171.357 421.842 171.223C421.172 171.021 420.535 170.921 419.932 170.921C419.395 170.854 418.993 170.82 418.725 170.82C414.77 170.82 411.586 171.658 409.173 173.334C408.334 173.917 407.547 174.544 406.813 175.216C405.863 176.087 405 177.032 404.226 178.052C403.919 178.458 403.625 178.876 403.345 179.306C403.343 179.308 403.341 179.311 403.34 179.313C403.307 179.365 403.273 179.416 403.24 179.468H402.537L401.028 171.926H384.639L375.489 215.163H396.001L402.436 185.098C402.611 184.88 402.784 184.679 402.956 184.495C403.051 184.393 403.146 184.296 403.24 184.205C403.758 183.704 404.261 183.365 404.749 183.188C405.553 182.853 406.29 182.685 406.961 182.685C407.024 182.685 407.086 182.687 407.147 182.691C408.392 182.766 409.302 183.602 409.877 185.199C410.48 186.808 410.849 189.69 410.983 193.846H421.943L426.367 173.133C425.63 172.597 424.859 172.195 424.054 171.926ZM353.677 193.545L353.931 189.227C353.999 188.066 354.068 187.029 354.138 186.12C354.161 185.823 354.18 185.505 354.194 185.165C353.594 186.186 353.035 187.381 352.533 188.773C351.771 191.008 351.173 193.419 350.748 196.014C350.374 198.643 350.204 200.78 350.202 202.463C350.492 202.057 350.802 201.566 351.126 200.976C351.576 200.157 352 199.033 352.325 197.519L353.176 193.545H353.677ZM345.275 204.806C345.208 204.002 345.175 203.231 345.175 202.493C345.175 200.482 345.376 198.069 345.778 195.254C346.247 192.371 346.918 189.657 347.789 187.109C348.727 184.495 349.901 182.283 351.308 180.473C352.716 178.596 354.358 177.658 356.235 177.658C357.308 177.658 358.079 178.127 358.548 179.065C359.017 179.937 359.252 181.445 359.252 183.59C359.252 183.9 359.249 184.202 359.243 184.495C359.229 185.216 359.199 185.887 359.151 186.506C359.084 187.377 359.017 188.383 358.95 189.523H372.625L375.44 176.652C373.362 174.172 370.714 172.597 367.497 171.926C364.279 171.189 360.492 170.82 356.135 170.82C350.772 170.82 346.147 171.491 342.259 172.831C338.371 174.172 335.153 176.015 332.606 178.362C330.126 180.708 328.249 183.456 326.975 186.607C325.769 189.69 325.165 193.042 325.165 196.662C325.165 200.147 325.769 203.13 326.975 205.61C328.182 208.024 329.858 210.001 332.003 211.543C334.148 213.085 336.661 214.224 339.544 214.962C342.493 215.632 345.711 215.967 349.197 215.967C353.152 215.967 356.671 215.699 359.754 215.163C362.905 214.693 365.888 213.889 368.703 212.75L371.619 198.572H357.241C356.838 200.449 356.269 202.058 355.531 203.398C354.794 204.739 354.023 205.845 353.219 206.717C352.414 207.521 351.576 208.124 350.705 208.526C349.833 208.929 349.063 209.13 348.392 209.13C347.655 209.13 347.085 208.929 346.683 208.526C346.281 208.124 345.946 207.588 345.677 206.918C345.476 206.247 345.342 205.543 345.275 204.806ZM320.849 189.623H320.737C320.768 189.654 320.799 189.686 320.83 189.717C320.836 189.686 320.843 189.654 320.849 189.623ZM319.193 196.058C318.522 194.651 317.618 193.478 316.478 192.539C315.338 191.601 314.031 190.863 312.557 190.327C311.968 190.075 311.362 189.84 310.739 189.623C309.87 189.321 308.968 189.053 308.032 188.819C307.47 188.687 306.9 188.554 306.322 188.422C305.728 188.286 305.124 188.15 304.513 188.014C303.373 187.746 302.334 187.411 301.396 187.009C301.179 186.916 300.971 186.818 300.772 186.714C300.11 186.369 299.547 185.964 299.083 185.501C298.547 184.83 298.279 183.959 298.279 182.886C298.279 181.277 298.848 180.004 299.988 179.065C301.127 178.06 302.267 177.557 303.407 177.557C304.68 177.557 305.518 178.093 305.92 179.166C306.082 179.513 306.216 179.872 306.322 180.244C306.524 180.947 306.624 181.694 306.624 182.484C306.624 182.782 306.606 183.062 306.569 183.323C306.556 183.414 306.541 183.503 306.524 183.59L306.322 184.596H319.394L321.707 174.44C319.629 173.368 316.947 172.496 313.663 171.826C310.378 171.156 306.892 170.82 303.205 170.82C300.256 170.82 297.307 171.088 294.357 171.625C291.475 172.161 288.86 173.032 286.514 174.239C284.235 175.446 282.358 177.054 280.883 179.065C279.776 180.594 279.105 182.434 278.868 184.584C278.818 185.041 278.787 185.511 278.776 185.995C278.773 186.131 278.772 186.268 278.772 186.406C278.772 188.484 279.107 190.226 279.777 191.634C280.448 192.975 281.286 194.081 282.291 194.952C283.297 195.824 284.336 196.494 285.408 196.963C285.766 197.11 286.11 197.245 286.441 197.365C287.166 197.63 287.827 197.831 288.425 197.969C288.757 198.061 289.092 198.156 289.43 198.254C290.318 198.51 291.222 198.783 292.145 199.075C293.187 199.335 294.148 199.657 295.028 200.039C295.28 200.148 295.526 200.262 295.765 200.382C296.837 200.851 297.709 201.454 298.379 202.192C299.116 202.862 299.485 203.667 299.485 204.605C299.485 205.543 299.049 206.582 298.178 207.722C297.374 208.795 295.999 209.331 294.055 209.331C292.313 209.331 291.072 208.895 290.335 208.024C289.877 207.382 289.575 206.599 289.43 205.675C289.363 205.248 289.33 204.791 289.33 204.303V203.398C289.33 203.063 289.363 202.728 289.43 202.393H275.856L273.744 212.448C275.152 213.185 277.632 213.956 281.185 214.761C284.738 215.565 289.229 215.967 294.659 215.967C298.211 215.967 301.53 215.732 304.613 215.263C307.764 214.794 310.479 213.99 312.758 212.85C315.104 211.643 316.914 210.102 318.187 208.225C319.528 206.281 320.198 203.901 320.198 201.086C320.198 199.075 319.863 197.399 319.193 196.058ZM277.604 197.365C277.095 196.788 276.633 196.172 276.214 195.523L275.767 197.365H277.604ZM248.19 199.98H246.777C246.739 200.856 246.717 201.654 246.711 202.375C246.927 202.106 247.149 201.796 247.373 201.438L247.431 201.345L247.493 201.254C247.753 200.876 247.987 200.454 248.19 199.98ZM242.184 206.918C241.983 206.247 241.849 205.543 241.782 204.806C241.715 204.069 241.682 203.398 241.682 202.795C241.682 201.723 241.715 200.516 241.782 199.175C241.904 197.957 242.081 196.683 242.314 195.354C242.337 195.221 242.361 195.087 242.386 194.952H270.64C271.712 193.478 272.517 191.701 273.053 189.623C273.399 188.242 273.633 186.93 273.756 185.687C273.804 185.195 273.836 184.714 273.849 184.244C273.855 184.058 273.858 183.873 273.858 183.691C273.858 179.266 272.148 176.015 268.729 173.937C265.378 171.859 260.35 170.82 253.647 170.82C247.48 170.82 242.318 171.558 238.162 173.032C234.073 174.507 230.789 176.485 228.309 178.965C226.8 180.473 225.554 182.126 224.569 183.922C223.979 185 223.482 186.129 223.08 187.31C222.299 189.757 221.821 192.245 221.647 194.773C221.597 195.5 221.572 196.23 221.572 196.963C221.572 197.277 221.576 197.587 221.585 197.892C221.681 201.108 222.28 203.848 223.382 206.113C224.655 208.526 226.365 210.47 228.51 211.945C230.655 213.42 233.168 214.459 236.051 215.062C238.933 215.665 242.05 215.967 245.402 215.967C247.212 215.967 249.122 215.867 251.133 215.665C253.144 215.531 255.122 215.297 257.066 214.962C259.01 214.559 260.853 214.057 262.596 213.453C264.339 212.85 265.881 212.113 267.221 211.241L269.836 200.482H253.345C252.943 201.823 252.373 203.03 251.636 204.102C250.966 205.175 250.228 206.08 249.424 206.817C248.687 207.554 247.916 208.124 247.111 208.526C246.374 208.929 245.704 209.13 245.1 209.13C244.296 209.13 243.659 208.929 243.19 208.526C242.788 208.057 242.453 207.521 242.184 206.918ZM243.391 190.327C243.423 190.192 243.456 190.058 243.49 189.925C243.875 188.399 244.344 186.957 244.899 185.601C244.939 185.5 244.979 185.399 245.019 185.299C245.591 183.884 246.221 182.644 246.91 181.579C247.648 180.373 248.452 179.434 249.323 178.764C250.262 178.026 251.267 177.658 252.34 177.658C253.278 177.658 254.083 178.026 254.753 178.764C255.423 179.501 255.759 180.909 255.759 182.987C255.759 183.724 255.692 184.529 255.558 185.4C255.49 186.271 255.39 187.076 255.256 187.813C255.144 188.54 255.032 189.244 254.92 189.925C254.898 190.06 254.876 190.194 254.854 190.327H243.391ZM221.733 173.133C220.995 172.597 220.225 172.195 219.42 171.926C218.683 171.591 217.945 171.357 217.208 171.223C216.538 171.021 215.901 170.921 215.298 170.921C214.761 170.854 214.359 170.82 214.091 170.82C210.136 170.82 206.952 171.658 204.539 173.334C203.7 173.917 202.913 174.544 202.179 175.216C201.229 176.087 200.366 177.032 199.592 178.052C199.284 178.458 198.991 178.876 198.711 179.306C198.709 179.308 198.707 179.311 198.706 179.314C198.672 179.365 198.639 179.416 198.606 179.468H197.902L196.394 171.926H180.005L170.855 215.163H191.367L197.802 185.098C197.977 184.88 198.15 184.679 198.322 184.495C198.417 184.393 198.512 184.296 198.606 184.205C199.124 183.704 199.627 183.365 200.115 183.188C200.919 182.853 201.656 182.685 202.327 182.685C202.39 182.685 202.452 182.687 202.513 182.691C203.758 182.766 204.668 183.602 205.243 185.199C205.846 186.808 206.215 189.69 206.349 193.846H217.309L221.733 173.133ZM172.503 178.462C173.642 175.312 174.212 171.993 174.212 168.508C174.212 164.754 173.575 161.771 172.302 159.559C171.028 157.28 169.252 155.537 166.973 154.33C164.693 153.124 161.979 152.319 158.828 151.917C155.677 151.515 152.192 151.314 148.371 151.314H125.144L111.57 215.163H133.288L137.813 194.047H143.544C149.108 194.047 153.834 193.377 157.722 192.036C161.61 190.696 164.76 188.886 167.174 186.607C169.654 184.26 171.43 181.546 172.503 178.462ZM152.292 178.965C151.421 181.378 150.281 183.423 148.874 185.098C147.65 186.627 146.148 187.459 144.367 187.593C144.196 187.606 144.022 187.612 143.846 187.612H139.221L145.555 158.151H150.08C152.091 158.151 153.398 158.788 154.002 160.062C154.605 161.268 154.907 162.776 154.907 164.586C154.907 166.53 154.705 168.809 154.303 171.424C153.901 174.038 153.231 176.552 152.292 178.965ZM149.617 163.179L145.832 180.782C146.477 179.811 147.062 178.648 147.564 177.257L147.584 177.2L147.607 177.143C148.41 175.078 148.987 172.919 149.334 170.659C149.71 168.214 149.879 166.202 149.879 164.586C149.879 163.998 149.833 163.536 149.769 163.179H149.617ZM104.267 163.983H88.1212L76.1558 220.19H44.1568L56.1222 163.983H44.0302L31.9921 220.19H0L15.7119 146.286H108.225L104.267 163.983ZM62.3326 158.955L50.3672 215.163H72.0859L84.0513 158.955H100.24L101.949 151.314H48.1551L46.3452 158.955H62.3326ZM19.7829 151.314H41.6021L27.9274 215.163H6.20867L19.7829 151.314Z" fill="#F2F2F2"/>
<path d="M665.814 178.408C667.222 177.066 668.797 175.824 670.54 174.683C672.082 173.743 673.892 172.87 675.97 172.065C678.048 171.259 680.361 170.856 682.908 170.856C686.394 170.856 689.276 171.763 691.555 173.575C693.834 175.321 694.974 177.737 694.974 180.825C694.974 181.698 694.873 182.772 694.672 184.047C694.471 185.256 694.236 186.531 693.968 187.874C693.7 189.216 693.398 190.593 693.063 192.002C692.795 193.345 692.561 194.553 692.359 195.627L688.136 215.263H667.725L673.255 188.981C673.389 188.109 673.557 187.236 673.758 186.363C673.959 185.424 674.059 184.584 674.059 183.846C674.059 182.839 673.791 182.033 673.255 181.429C672.786 180.758 672.049 180.422 671.043 180.422C669.836 180.422 668.663 180.859 667.524 181.731C666.451 182.604 665.613 183.343 665.01 183.947L658.374 215.263H637.862L647.012 171.964H663.401L665.211 178.408H665.814Z" fill="#45625E"/>
<path d="M612.705 170.856C620.682 170.856 626.48 172.266 630.1 175.086C633.921 178.039 635.831 182.94 635.831 189.787C635.831 194.016 635.127 197.842 633.719 201.266C632.312 204.623 630.334 207.408 627.787 209.624C622.693 213.92 615.319 216.068 605.666 216.068C597.421 216.068 591.522 214.491 587.969 211.336C584.149 208.046 582.238 203.112 582.238 196.533C582.238 192.17 583.109 188.209 584.852 184.652C586.662 181.094 589.243 178.14 592.595 175.79C597.488 172.501 604.191 170.856 612.705 170.856ZM605.867 209.221C607.543 209.221 608.984 208.281 610.191 206.402C611.464 204.522 612.47 202.239 613.207 199.554C613.945 196.802 614.481 193.983 614.816 191.096C615.218 188.142 615.419 185.591 615.419 183.443C615.419 181.564 615.218 180.154 614.816 179.214C614.481 178.207 613.71 177.704 612.503 177.704C610.694 177.704 609.118 178.677 607.778 180.624C606.504 182.571 605.465 184.886 604.661 187.572C603.856 190.257 603.253 193.009 602.851 195.829C602.516 198.648 602.348 200.93 602.348 202.676C602.348 207.039 603.521 209.221 605.867 209.221Z" fill="#45625E"/>
<path d="M570.98 215.263H550.568L559.718 171.964H580.331L570.98 215.263ZM582.945 158.773C582.945 160.317 582.61 161.66 581.94 162.801C581.336 163.942 580.498 164.915 579.426 165.721C578.42 166.527 577.247 167.131 575.907 167.534C574.566 167.936 573.192 168.138 571.784 168.138C569.103 168.138 566.857 167.5 565.047 166.224C563.237 164.949 562.332 162.935 562.332 160.183C562.332 158.706 562.634 157.397 563.237 156.256C563.841 155.047 564.645 154.074 565.651 153.336C566.723 152.53 567.93 151.926 569.27 151.523C570.678 151.12 572.119 150.919 573.594 150.919C576.208 150.919 578.42 151.557 580.23 152.832C582.04 154.108 582.945 156.088 582.945 158.773Z" fill="#45625E"/>
<path d="M516.824 171.964C519.304 171.427 521.482 170.823 523.359 170.152C525.236 169.48 526.945 168.641 528.487 167.634C530.096 166.627 531.604 165.385 533.012 163.909C534.487 162.432 536.062 160.619 537.738 158.471H548.094L545.178 171.964H553.021L551.714 178.711H543.771L539.648 198.346C539.313 199.89 539.045 201.266 538.844 202.474C538.643 203.683 538.542 204.623 538.542 205.294C538.542 206.636 539.011 207.476 539.95 207.811C540.955 208.147 542.799 208.315 545.48 208.315L543.972 215.263C543.503 215.397 542.765 215.498 541.76 215.565C540.821 215.632 539.749 215.699 538.542 215.766C537.403 215.9 536.196 215.967 534.922 215.967C533.716 216.035 532.643 216.068 531.705 216.068C530.029 216.068 528.387 215.934 526.778 215.665C525.169 215.464 523.728 215.028 522.454 214.356C521.181 213.618 520.142 212.577 519.337 211.235C518.6 209.892 518.231 208.08 518.231 205.797C518.231 204.992 518.265 203.985 518.332 202.777C518.466 201.568 518.7 200.226 519.036 198.749L523.259 178.711H515.416L516.824 171.964Z" fill="#45625E"/>
<path d="M470.446 232.179H449.934L462.603 171.964H478.992L480.802 178.408H481.406C483.819 175.858 486.5 174.045 489.45 172.971C492.466 171.83 495.416 171.259 498.298 171.259C500.644 171.259 502.588 171.628 504.13 172.367C505.739 173.038 507.012 173.978 507.951 175.186C508.889 176.395 509.56 177.838 509.962 179.516C510.364 181.194 510.565 182.973 510.565 184.853C510.565 185.793 510.498 187.202 510.364 189.082C510.23 190.962 509.928 193.076 509.459 195.426C508.99 197.708 508.319 200.091 507.448 202.575C506.577 204.992 505.404 207.207 503.929 209.221C502.521 211.235 500.711 212.879 498.499 214.155C496.354 215.43 493.773 216.068 490.757 216.068C489.081 216.068 487.439 215.867 485.83 215.464C484.288 215.061 482.88 214.524 481.607 213.853C480.333 213.182 479.194 212.41 478.188 211.537C477.25 210.597 476.546 209.657 476.077 208.717H475.473L470.446 232.179ZM481.104 206.301C482.713 206.301 484.053 205.462 485.126 203.783C486.199 202.038 487.07 200.024 487.74 197.742C488.411 195.392 488.88 193.076 489.148 190.794C489.483 188.444 489.651 186.699 489.651 185.558C489.651 184.215 489.416 183.108 488.947 182.235C488.545 181.362 487.774 180.926 486.634 180.926C485.361 180.926 484.154 181.396 483.014 182.336C481.875 183.208 481.037 183.98 480.501 184.652L476.579 203.079C477.116 203.817 477.752 204.555 478.49 205.294C479.227 205.965 480.099 206.301 481.104 206.301Z" fill="#45625E"/>
<path d="M444.507 215.263H424.096L433.246 171.964H453.858L444.507 215.263ZM456.473 158.773C456.473 160.317 456.137 161.66 455.467 162.801C454.864 163.942 454.026 164.915 452.953 165.721C451.948 166.527 450.775 167.131 449.434 167.534C448.093 167.936 446.719 168.138 445.312 168.138C442.63 168.138 440.385 167.5 438.575 166.224C436.765 164.949 435.86 162.935 435.86 160.183C435.86 158.706 436.162 157.397 436.765 156.256C437.368 155.047 438.173 154.074 439.178 153.336C440.251 152.53 441.457 151.926 442.798 151.523C444.206 151.12 445.647 150.919 447.121 150.919C449.736 150.919 451.948 151.557 453.758 152.832C455.568 154.108 456.473 156.088 456.473 158.773Z" fill="#45625E"/>
<path d="M384.64 171.964H401.03L402.538 179.516H403.242C404.784 177.099 406.761 175.052 409.174 173.374C411.587 171.696 414.771 170.856 418.726 170.856C418.995 170.856 419.397 170.89 419.933 170.957C420.536 170.957 421.173 171.058 421.843 171.259C422.581 171.393 423.318 171.628 424.056 171.964C424.86 172.233 425.631 172.635 426.368 173.172L421.944 193.915H410.984C410.85 189.753 410.481 186.867 409.878 185.256C409.275 183.577 408.303 182.738 406.962 182.738C406.292 182.738 405.554 182.906 404.75 183.242C404.013 183.51 403.242 184.148 402.437 185.155L396.002 215.263H375.49L384.64 171.964Z" fill="#45625E"/>
<path d="M368.705 212.846C365.889 213.987 362.906 214.793 359.756 215.263C356.672 215.8 353.153 216.068 349.198 216.068C345.712 216.068 342.495 215.733 339.545 215.061C336.663 214.323 334.149 213.182 332.004 211.638C329.859 210.094 328.183 208.113 326.976 205.697C325.77 203.213 325.167 200.226 325.167 196.735C325.167 193.11 325.77 189.753 326.976 186.665C328.25 183.51 330.127 180.758 332.607 178.408C335.155 176.059 338.372 174.213 342.26 172.87C346.148 171.528 350.773 170.856 356.136 170.856C360.493 170.856 364.28 171.226 367.498 171.964C370.716 172.635 373.363 174.213 375.441 176.697L372.626 189.586H358.951C359.018 188.444 359.085 187.437 359.152 186.565C359.219 185.692 359.253 184.719 359.253 183.645C359.253 181.496 359.018 179.986 358.549 179.113C358.08 178.174 357.309 177.704 356.236 177.704C354.359 177.704 352.717 178.643 351.309 180.523C349.902 182.336 348.729 184.551 347.79 187.169C346.919 189.72 346.248 192.439 345.779 195.325C345.377 198.145 345.176 200.561 345.176 202.575C345.176 203.314 345.209 204.086 345.276 204.891C345.344 205.63 345.478 206.334 345.679 207.006C345.947 207.677 346.282 208.214 346.684 208.617C347.086 209.02 347.656 209.221 348.394 209.221C349.064 209.221 349.835 209.02 350.706 208.617C351.578 208.214 352.415 207.61 353.22 206.804C354.024 205.932 354.795 204.824 355.533 203.481C356.27 202.139 356.84 200.528 357.242 198.648H371.62L368.705 212.846Z" fill="#45625E"/>
<path d="M306.324 184.652C306.391 184.316 306.458 183.98 306.525 183.645C306.592 183.309 306.625 182.94 306.625 182.537C306.625 181.329 306.391 180.221 305.922 179.214C305.519 178.14 304.681 177.603 303.408 177.603C302.268 177.603 301.129 178.106 299.989 179.113C298.85 180.053 298.28 181.329 298.28 182.94C298.28 184.014 298.548 184.886 299.084 185.558C299.687 186.162 300.458 186.665 301.397 187.068C302.335 187.471 303.374 187.807 304.514 188.075C305.72 188.344 306.894 188.612 308.033 188.881C309.642 189.283 311.15 189.787 312.558 190.391C314.033 190.928 315.34 191.667 316.479 192.606C317.619 193.546 318.524 194.721 319.194 196.131C319.864 197.473 320.2 199.152 320.2 201.165C320.2 203.985 319.529 206.368 318.189 208.315C316.915 210.194 315.105 211.738 312.759 212.947C310.48 214.088 307.765 214.893 304.614 215.363C301.531 215.833 298.213 216.068 294.66 216.068C289.23 216.068 284.739 215.665 281.186 214.86C277.634 214.054 275.153 213.282 273.746 212.544L275.857 202.474H289.431C289.364 202.81 289.331 203.146 289.331 203.481C289.331 203.75 289.331 204.052 289.331 204.388C289.331 205.932 289.666 207.173 290.336 208.113C291.074 208.986 292.314 209.422 294.057 209.422C296.001 209.422 297.375 208.885 298.179 207.811C299.051 206.67 299.486 205.63 299.486 204.69C299.486 203.75 299.118 202.944 298.38 202.273C297.71 201.535 296.839 200.93 295.766 200.461C294.694 199.924 293.487 199.487 292.146 199.152C290.873 198.749 289.633 198.38 288.426 198.044C287.555 197.842 286.549 197.507 285.409 197.037C284.337 196.567 283.298 195.896 282.292 195.023C281.287 194.15 280.449 193.043 279.779 191.7C279.108 190.29 278.773 188.545 278.773 186.464C278.773 183.51 279.477 181.06 280.885 179.113C282.359 177.099 284.236 175.488 286.516 174.28C288.862 173.072 291.476 172.199 294.358 171.662C297.308 171.125 300.257 170.856 303.207 170.856C306.894 170.856 310.379 171.192 313.664 171.863C316.948 172.535 319.63 173.407 321.708 174.481L319.395 184.652H306.324Z" fill="#45625E"/>
<path d="M242.387 195.023C242.119 196.5 241.918 197.91 241.783 199.252C241.716 200.595 241.683 201.803 241.683 202.877C241.683 203.481 241.716 204.153 241.783 204.891C241.851 205.63 241.985 206.334 242.186 207.006C242.454 207.61 242.789 208.147 243.191 208.617C243.66 209.02 244.297 209.221 245.102 209.221C245.705 209.221 246.375 209.02 247.113 208.617C247.917 208.214 248.688 207.643 249.425 206.905C250.23 206.167 250.967 205.26 251.637 204.186C252.375 203.112 252.944 201.904 253.347 200.561H269.837L267.223 211.336C265.882 212.208 264.34 212.947 262.597 213.551C260.854 214.155 259.011 214.658 257.067 215.061C255.123 215.397 253.146 215.632 251.135 215.766C249.124 215.967 247.213 216.068 245.403 216.068C242.052 216.068 238.935 215.766 236.052 215.162C233.17 214.558 230.656 213.517 228.511 212.04C226.366 210.564 224.657 208.617 223.383 206.2C222.176 203.716 221.573 200.662 221.573 197.037C221.573 193.748 222.076 190.525 223.081 187.37C224.154 184.215 225.897 181.429 228.31 179.013C230.79 176.529 234.075 174.549 238.164 173.072C242.32 171.595 247.481 170.856 253.648 170.856C260.352 170.856 265.379 171.897 268.731 173.978C272.149 176.059 273.859 179.315 273.859 183.745C273.859 185.558 273.591 187.538 273.054 189.686C272.518 191.767 271.714 193.546 270.641 195.023H242.387ZM255.76 183.04C255.76 180.959 255.425 179.55 254.754 178.811C254.084 178.073 253.28 177.704 252.341 177.704C251.269 177.704 250.263 178.073 249.325 178.811C248.453 179.483 247.649 180.422 246.912 181.631C246.174 182.772 245.504 184.115 244.901 185.658C244.297 187.135 243.794 188.713 243.392 190.391H254.855C254.989 189.586 255.123 188.746 255.257 187.874C255.391 187.135 255.492 186.33 255.559 185.457C255.693 184.584 255.76 183.779 255.76 183.04Z" fill="#45625E"/>
<path d="M180.006 171.964H196.396L197.904 179.516H198.608C200.149 177.099 202.127 175.052 204.54 173.374C206.953 171.696 210.137 170.856 214.092 170.856C214.36 170.856 214.763 170.89 215.299 170.957C215.902 170.957 216.539 171.058 217.209 171.259C217.947 171.393 218.684 171.628 219.421 171.964C220.226 172.233 220.997 172.635 221.734 173.172L217.31 193.915H206.35C206.216 189.753 205.847 186.867 205.244 185.256C204.641 183.577 203.669 182.738 202.328 182.738C201.658 182.738 200.92 182.906 200.116 183.242C199.379 183.51 198.608 184.148 197.803 185.155L191.368 215.263H170.856L180.006 171.964Z" fill="#45625E"/>
<path d="M143.847 187.672C145.858 187.672 147.534 186.833 148.875 185.155C150.283 183.477 151.422 181.429 152.294 179.013C153.232 176.596 153.902 174.079 154.305 171.461C154.707 168.843 154.908 166.56 154.908 164.613C154.908 162.801 154.606 161.29 154.003 160.082C153.4 158.807 152.092 158.169 150.081 158.169H145.557L139.222 187.672H143.847ZM137.814 194.117L133.29 215.263H111.571L125.145 151.322H148.372C152.193 151.322 155.679 151.523 158.829 151.926C161.98 152.329 164.695 153.134 166.974 154.343C169.253 155.551 171.029 157.296 172.303 159.579C173.577 161.794 174.213 164.781 174.213 168.54C174.213 172.031 173.644 175.354 172.504 178.509C171.432 181.597 169.655 184.316 167.175 186.665C164.762 188.948 161.611 190.76 157.723 192.103C153.835 193.446 149.11 194.117 143.546 194.117H137.814Z" fill="#45625E"/>
<path d="M100.241 158.974H84.0526L72.0872 215.263H50.3685L62.3339 158.974H46.3465L48.1564 151.322H101.95L100.241 158.974Z" fill="#45625E"/>
<path d="M27.9287 215.263H6.20996L19.7842 151.322H41.6034L27.9287 215.263Z" fill="#45625E"/>
<path d="M29.4248 258.317H36.7305V249.01H43.3838V274.277H36.7305V264.97H29.4248V274.277H22.7715V249.01H29.4248V258.317ZM66.6504 253.663H71.3037V269.623H66.6504V274.277H55.3438V269.623H50.6904V253.663H55.3438V249.01H66.6504V253.663ZM85.2637 267.623H92.5703V249.01H99.2236V269.623H94.5703V274.277H83.2637V269.623H78.6104V249.01H85.2637V267.623ZM127.143 255.663H113.184V258.317H122.49V262.97H127.143V269.623H122.49V274.277H106.53V267.623H120.49V264.97H111.184V260.317H106.53V253.663H111.184V249.01H127.143V255.663ZM150.409 255.663H145.756V274.277H139.103V255.663H134.449V249.01H150.409V255.663ZM173.676 253.663H178.329V269.623H173.676V274.277H162.369V269.623H157.716V253.663H162.369V249.01H173.676V253.663ZM192.289 253.663H196.942V258.317H201.596V262.97H204.249V249.01H210.902V274.277H204.249V269.623H199.596V264.97H194.942V260.317H192.289V274.277H185.636V249.01H192.289V253.663ZM257.435 253.663H262.088V269.623H257.435V274.277H241.475V249.01H257.435V253.663ZM285.354 253.663H290.008V274.277H283.354V264.97H276.048V274.277H269.395V253.663H274.048V249.01H285.354V253.663ZM317.927 255.663H303.968V258.317H313.273V262.97H317.927V269.623H313.273V274.277H297.314V267.623H311.273V264.97H301.968V260.317H297.314V253.663H301.968V249.01H317.927V255.663ZM341.193 255.663H331.887V258.317H341.193V264.97H331.887V267.623H341.193V274.277H325.233V249.01H341.193V255.663ZM364.46 253.663H369.113V269.623H364.46V274.277H348.5V249.01H364.46V253.663ZM401.686 274.277H395.033V249.01H401.686V274.277ZM424.952 255.663H420.299V274.277H413.646V255.663H408.992V249.01H424.952V255.663ZM471.485 255.663H457.525V258.317H466.832V262.97H471.485V269.623H466.832V274.277H450.872V267.623H464.832V264.97H455.525V260.317H450.872V253.663H455.525V249.01H471.485V255.663ZM494.751 253.663H499.404V269.623H494.751V274.277H483.445V269.623H478.792V253.663H483.445V249.01H494.751V253.663ZM513.364 267.623H522.671V274.277H506.711V249.01H513.364V267.623ZM536.631 267.623H543.938V249.01H550.591V269.623H545.938V274.277H534.631V269.623H529.978V249.01H536.631V267.623ZM573.857 255.663H569.204V274.277H562.551V255.663H557.897V249.01H573.857V255.663ZM587.816 274.277H581.163V249.01H587.816V274.277ZM611.083 253.663H615.736V269.623H611.083V274.277H599.776V269.623H595.123V253.663H599.776V249.01H611.083V253.663ZM629.696 253.663H634.35V258.317H639.003V262.97H641.656V249.01H648.31V274.277H641.656V269.623H637.003V264.97H632.35V260.317H629.696V274.277H623.043V249.01H629.696V253.663ZM676.229 255.663H662.27V258.317H671.575V262.97H676.229V269.623H671.575V274.277H655.616V267.623H669.575V264.97H660.27V260.317H655.616V253.663H660.27V249.01H676.229V255.663ZM248.128 267.623H255.248V264.97H248.128V267.623ZM355.153 267.623H362.273V255.663H355.153V267.623ZM57.3438 267.437H64.6504V255.85H57.3438V267.437ZM164.369 267.437H171.676V255.85H164.369V267.437ZM485.445 267.437H492.751V255.85H485.445V267.437ZM601.776 267.437H609.083V255.85H601.776V267.437ZM234.168 264.97H218.208V258.317H234.168V264.97ZM248.128 258.317H255.248V255.663H248.128V258.317ZM276.048 258.317H283.354V255.85H276.048V258.317Z" fill="#3F7857"/>
<path d="M122.49 262.97V258.317H113.184V255.663H127.143V249.01H111.184V253.663H106.53V260.317H111.184V264.97H120.49V267.623H106.53V274.277H122.49V269.623H127.143V262.97H122.49ZM395.033 249.01V274.277H401.686V249.01H395.033ZM506.711 249.01V274.277H522.671V267.623H513.364V249.01H506.711ZM623.043 274.277H629.696V260.317H632.35V264.97H637.003V269.623H641.656V274.277H648.31V249.01H641.656V262.97H639.003V258.317H634.35V253.663H629.696V249.01H623.043V274.277ZM71.3037 253.663H66.6504V249.01H55.3438V253.663H50.6904V269.623H55.3438V274.277H66.6504V269.623H71.3037V253.663ZM599.776 253.663H595.123V269.623H599.776V274.277H611.083V269.623H615.736V253.663H611.083V249.01H599.776V253.663ZM85.2637 249.01H78.6104V269.623H83.2637V274.277H94.5703V269.623H99.2236V249.01H92.5703V267.623H85.2637V249.01ZM255.248 264.97V267.623H248.128V264.97H255.248ZM362.273 255.663V267.623H355.153V255.663H362.273ZM536.631 249.01H529.978V269.623H534.631V274.277H545.938V269.623H550.591V249.01H543.938V267.623H536.631V249.01ZM64.6504 255.85V267.437H57.3438V255.85H64.6504ZM171.676 255.85V267.437H164.369V255.85H171.676ZM492.751 255.85V267.437H485.445V255.85H492.751ZM609.083 255.85V267.437H601.776V255.85H609.083ZM218.208 264.97H234.168V258.317H218.208V264.97ZM29.4248 249.01H22.7715V274.277H29.4248V264.97H36.7305V274.277H43.3838V249.01H36.7305V258.317H29.4248V249.01ZM255.248 255.663V258.317H248.128V255.663H255.248ZM283.354 255.85V258.317H276.048V255.85H283.354ZM162.369 269.623V274.277H173.676V269.623H178.329V253.663H173.676V249.01H162.369V253.663H157.716V269.623H162.369ZM483.445 269.623V274.277H494.751V269.623H499.404V253.663H494.751V249.01H483.445V253.663H478.792V269.623H483.445ZM285.354 253.663V249.01H274.048V253.663H269.395V274.277H276.048V264.97H283.354V274.277H290.008V253.663H285.354ZM297.314 253.663V260.317H301.968V264.97H311.273V267.623H297.314V274.277H313.273V269.623H317.927V262.97H313.273V258.317H303.968V255.663H317.927V249.01H301.968V253.663H297.314ZM204.249 249.01V262.97H201.596V258.317H196.942V253.663H192.289V249.01H185.636V274.277H192.289V260.317H194.942V264.97H199.596V269.623H204.249V274.277H210.902V249.01H204.249ZM450.872 260.317H455.525V264.97H464.832V267.623H450.872V274.277H466.832V269.623H471.485V262.97H466.832V258.317H457.525V255.663H471.485V249.01H455.525V253.663H450.872V260.317ZM134.449 249.01V255.663H139.103V274.277H145.756V255.663H150.409V249.01H134.449ZM215.902 253.317H236.475V244.01H262.435V248.663H269.048V244.01H290.354V248.663H296.968V244.01H369.46V248.663H374.113V274.623H369.46V279.277H320.233V274.623H318.273V279.277H264.395V274.623H262.435V279.277H236.475V269.97H215.902V279.277H199.249V274.623H197.289V279.277H180.636V274.623H178.676V279.277H157.369V274.623H152.716V260.663H150.756V279.277H134.103V260.663H132.143V274.623H127.49V279.277H101.53V274.623H99.5703V279.277H78.2637V274.623H71.6504V279.277H50.3438V274.623H48.3838V279.277H17.7715V244.01H48.3838V248.663H50.3438V244.01H71.6504V248.663H73.6104V244.01H104.224V248.663H106.184V244.01H155.409V248.663H157.369V244.01H178.676V248.663H180.636V244.01H197.289V248.663H199.249V244.01H215.902V253.317ZM241.475 274.277H257.435V269.623H262.088V253.663H257.435V249.01H241.475V274.277ZM325.233 249.01V274.277H341.193V267.623H331.887V264.97H341.193V258.317H331.887V255.663H341.193V249.01H325.233ZM348.5 249.01V274.277H364.46V269.623H369.113V253.663H364.46V249.01H348.5ZM408.992 249.01V255.663H413.646V274.277H420.299V255.663H424.952V249.01H408.992ZM429.952 260.663H425.299V279.277H408.646V260.663H406.686V279.277H390.033V244.01H429.952V260.663ZM660.27 249.01V253.663H655.616V260.317H660.27V264.97H669.575V267.623H655.616V274.277H671.575V269.623H676.229V262.97H671.575V258.317H662.27V255.663H676.229V249.01H660.27ZM557.897 249.01V255.663H562.551V274.277H569.204V255.663H573.857V249.01H557.897ZM581.163 249.01V274.277H587.816V249.01H581.163ZM681.229 274.623H676.575V279.277H636.656V274.623H634.696V279.277H618.043V274.623H616.083V279.277H594.776V274.623H592.816V279.277H576.163V260.663H574.204V279.277H557.551V260.663H555.591V274.623H550.938V279.277H529.631V274.623H527.671V279.277H501.711V274.623H499.751V279.277H478.445V274.623H471.832V279.277H445.872V248.663H450.525V244.01H476.485V248.663H478.445V244.01H499.751V248.663H501.711V244.01H518.364V262.623H524.978V244.01H592.816V248.663H594.776V244.01H616.083V248.663H618.043V244.01H634.696V248.663H636.656V244.01H653.31V248.663H655.27V244.01H681.229V274.623Z" fill="white"/>
<defs>
<clipPath id="clip0_126_2070">
<rect width="374.505" height="308.67" fill="white" transform="translate(162.749 40.6401)"/>
</clipPath>
</defs>
</svg>
