<svg width="419" height="182" viewBox="0 0 419 182" fill="none" xmlns="http://www.w3.org/2000/svg">
<path d="M25.8902 140.67C25.9908 141.11 27.0092 141.11 27.1098 140.67C27.7051 138.068 28.8083 134.634 30.7212 132.721C32.6341 130.808 36.068 129.705 38.6701 129.11C39.11 129.009 39.11 127.991 38.6701 127.89C36.068 127.295 32.6341 126.192 30.7212 124.279C28.8083 122.366 27.7051 118.932 27.1098 116.33C27.0092 115.89 25.9908 115.89 25.8902 116.33C25.2949 118.932 24.1917 122.366 22.2788 124.279C20.3659 126.192 16.932 127.295 14.3299 127.89C13.89 127.991 13.89 129.009 14.3299 129.11C16.932 129.705 20.3659 130.808 22.2788 132.721C24.1917 134.634 25.2949 138.068 25.8902 140.67Z" fill="#7EC384"/>
<path d="M50.8902 159.499C50.9908 160.167 52.0092 160.167 52.1098 159.499C52.7051 155.543 53.8083 150.324 55.7212 147.416C57.6341 144.509 61.068 142.832 63.6701 141.927C64.11 141.774 64.11 140.226 63.6701 140.073C61.068 139.168 57.6341 137.491 55.7212 134.584C53.8083 131.676 52.7051 126.457 52.1098 122.501C52.0092 121.833 50.9908 121.833 50.8902 122.501C50.2949 126.457 49.1917 131.676 47.2788 134.584C45.3659 137.491 41.932 139.168 39.3299 140.073C38.89 140.226 38.89 141.774 39.3299 141.927C41.932 142.832 45.3659 144.509 47.2788 147.416C49.1917 150.324 50.2949 155.543 50.8902 159.499Z" fill="#3F7856"/>
<path d="M174.085 88.0688C238.387 42.1953 308.795 9.00023 330.817 14.6207C347.569 18.8962 318.355 52.387 318.355 52.387C318.355 52.387 334.032 26.6057 318.355 23.9354C302.678 21.2652 241.475 44.328 177.636 89.8707C113.798 135.413 88.524 167.026 110.031 172.516C123.698 176.004 186.391 149.33 186.391 149.33C186.391 149.33 111.042 185.429 96.5685 181.735C74.5468 176.114 109.783 133.942 174.085 88.0688Z" fill="#A3D2D5"/>
<path d="M316.682 151.928C308.775 166.88 290.244 172.59 275.293 164.682L121.722 83.4612C106.771 75.5537 101.061 57.023 108.968 42.0717C116.876 27.1204 135.406 21.4103 150.358 29.3178L303.928 110.539C318.88 118.446 324.59 136.977 316.682 151.928Z" fill="#A3D2D5"/>
<path fill-rule="evenodd" clip-rule="evenodd" d="M274.358 166.45L120.787 85.2292C104.859 76.8053 98.7764 57.0644 107.2 41.1367C115.624 25.209 135.365 19.1259 151.293 27.5498L304.863 108.771C320.791 117.195 326.874 136.936 318.45 152.863C310.026 168.791 290.285 174.874 274.358 166.45ZM275.293 164.682C290.244 172.59 308.775 166.88 316.682 151.928C324.59 136.977 318.88 118.446 303.928 110.539L150.358 29.3178C135.406 21.4103 116.876 27.1204 108.968 42.0717C101.061 57.023 106.771 75.5537 121.722 83.4612L275.293 164.682Z" fill="#A3D2D5"/>
<g clip-path="url(#clip0_2_502)">
<rect x="221.641" y="136.307" width="143.658" height="61.2496" rx="30.6248" transform="rotate(-152.126 221.641 136.307)" fill="white"/>
<path fill-rule="evenodd" clip-rule="evenodd" d="M223.216 105.467C217.471 115.432 207.851 122.329 196.219 125.381L195.966 124.413C207.368 121.422 216.753 114.677 222.349 104.967C227.945 95.2597 229.78 82.5427 225.997 67.5606L226.966 67.3158C230.803 82.5083 228.961 95.4992 223.216 105.467ZM207.714 97.2679C201.969 107.233 192.349 114.13 180.717 117.182L180.464 116.215C191.866 113.223 201.251 106.478 206.847 96.7685C212.443 87.0609 214.278 74.344 210.495 59.3619L211.464 59.117C215.301 74.3096 213.459 87.3005 207.714 97.2679ZM189.111 87.4292C183.367 97.3948 173.747 104.292 162.115 107.343L161.861 106.376C173.263 103.384 182.648 96.6392 188.245 86.9298C193.84 77.2223 195.676 64.5053 191.892 49.5232L192.862 49.2784C196.698 64.4709 194.856 77.4618 189.111 87.4292Z" fill="#A3D2D5"/>
<path fill-rule="evenodd" clip-rule="evenodd" d="M119.181 50.4444C114.177 60.8015 113.891 72.6349 117.916 83.9671L118.858 83.6324C114.913 72.5239 115.206 60.9703 120.082 50.8794C124.956 40.7905 134.434 32.1158 148.948 26.8106L148.604 25.8714C133.887 31.2511 124.186 40.0854 119.181 50.4444ZM134.683 58.6431C129.679 69.0003 129.393 80.8336 133.418 92.1658L134.36 91.8311C130.415 80.7226 130.708 69.169 135.584 59.0782C140.458 48.9892 149.936 40.3145 164.45 35.0093L164.106 34.0701C149.389 39.4498 139.688 48.2841 134.683 58.6431ZM153.286 68.4818C148.282 78.8389 147.996 90.6723 152.02 102.004L152.963 101.67C149.018 90.5613 149.311 79.0077 154.186 68.9168C159.061 58.8279 168.539 50.1532 183.052 44.848L182.709 43.9088C167.992 49.2885 158.291 58.1228 153.286 68.4818Z" fill="#A3D2D5"/>
<path fill-rule="evenodd" clip-rule="evenodd" d="M91.5192 52.2254C136.83 66.2226 206.992 103.101 240.443 130.991L239.803 131.759C206.465 103.963 136.425 67.1438 91.2241 53.1808L91.5192 52.2254ZM98.0646 39.8496C143.376 53.8469 213.537 90.725 246.988 118.616L246.348 119.384C213.01 91.5876 142.97 54.7681 97.7694 40.8051L98.0646 39.8496ZM104.376 27.9159C149.687 41.9131 219.849 78.7913 253.3 106.682L252.66 107.45C219.321 79.6539 149.281 42.8344 104.081 28.8714L104.376 27.9159Z" fill="#A3D2D5"/>
</g>
<path d="M397.762 72.04C398.602 71.24 399.542 70.5 400.582 69.82C401.502 69.26 402.582 68.74 403.822 68.26C405.062 67.78 406.442 67.54 407.962 67.54C410.042 67.54 411.762 68.08 413.122 69.16C414.482 70.2 415.162 71.64 415.162 73.48C415.162 74 415.102 74.64 414.982 75.4C414.862 76.12 414.722 76.88 414.562 77.68C414.402 78.48 414.222 79.3 414.022 80.14C413.862 80.94 413.722 81.66 413.602 82.3L411.082 94H398.902L402.202 78.34C402.282 77.82 402.382 77.3 402.502 76.78C402.622 76.22 402.682 75.72 402.682 75.28C402.682 74.68 402.522 74.2 402.202 73.84C401.922 73.44 401.482 73.24 400.882 73.24C400.162 73.24 399.462 73.5 398.782 74.02C398.142 74.54 397.642 74.98 397.282 75.34L393.322 94H381.082L386.542 68.2H396.322L397.402 72.04H397.762Z" fill="#45625D"/>
<path d="M366.07 67.54C370.83 67.54 374.29 68.38 376.45 70.06C378.73 71.82 379.87 74.74 379.87 78.82C379.87 81.34 379.45 83.62 378.61 85.66C377.77 87.66 376.59 89.32 375.07 90.64C372.03 93.2 367.63 94.48 361.87 94.48C356.95 94.48 353.43 93.54 351.31 91.66C349.03 89.7 347.89 86.76 347.89 82.84C347.89 80.24 348.41 77.88 349.45 75.76C350.53 73.64 352.07 71.88 354.07 70.48C356.99 68.52 360.99 67.54 366.07 67.54ZM361.99 90.4C362.99 90.4 363.85 89.84 364.57 88.72C365.33 87.6 365.93 86.24 366.37 84.64C366.81 83 367.13 81.32 367.33 79.6C367.57 77.84 367.69 76.32 367.69 75.04C367.69 73.92 367.57 73.08 367.33 72.52C367.13 71.92 366.67 71.62 365.95 71.62C364.87 71.62 363.93 72.2 363.13 73.36C362.37 74.52 361.75 75.9 361.27 77.5C360.79 79.1 360.43 80.74 360.19 82.42C359.99 84.1 359.89 85.46 359.89 86.5C359.89 89.1 360.59 90.4 361.99 90.4Z" fill="#45625D"/>
<path d="M341.172 94H328.992L334.452 68.2H346.752L341.172 94ZM348.312 60.34C348.312 61.26 348.112 62.06 347.712 62.74C347.352 63.42 346.852 64 346.212 64.48C345.612 64.96 344.912 65.32 344.112 65.56C343.312 65.8 342.492 65.92 341.652 65.92C340.052 65.92 338.712 65.54 337.632 64.78C336.552 64.02 336.012 62.82 336.012 61.18C336.012 60.3 336.192 59.52 336.552 58.84C336.912 58.12 337.392 57.54 337.992 57.1C338.632 56.62 339.352 56.26 340.152 56.02C340.992 55.78 341.852 55.66 342.732 55.66C344.292 55.66 345.612 56.04 346.692 56.8C347.772 57.56 348.312 58.74 348.312 60.34Z" fill="#45625D"/>
<path d="M308.856 68.2C310.336 67.88 311.636 67.52 312.756 67.12C313.876 66.72 314.896 66.22 315.816 65.62C316.776 65.02 317.676 64.28 318.516 63.4C319.396 62.52 320.336 61.44 321.336 60.16H327.516L325.776 68.2H330.456L329.676 72.22H324.936L322.476 83.92C322.276 84.84 322.116 85.66 321.996 86.38C321.876 87.1 321.816 87.66 321.816 88.06C321.816 88.86 322.096 89.36 322.656 89.56C323.256 89.76 324.356 89.86 325.956 89.86L325.056 94C324.776 94.08 324.336 94.14 323.736 94.18C323.176 94.22 322.536 94.26 321.816 94.3C321.136 94.38 320.416 94.42 319.656 94.42C318.936 94.46 318.296 94.48 317.736 94.48C316.736 94.48 315.756 94.4 314.796 94.24C313.836 94.12 312.976 93.86 312.216 93.46C311.456 93.02 310.836 92.4 310.356 91.6C309.916 90.8 309.696 89.72 309.696 88.36C309.696 87.88 309.716 87.28 309.756 86.56C309.836 85.84 309.976 85.04 310.176 84.16L312.696 72.22H308.016L308.856 68.2Z" fill="#45625D"/>
<path d="M281.181 104.08H268.941L276.501 68.2H286.281L287.361 72.04H287.721C289.161 70.52 290.761 69.44 292.521 68.8C294.321 68.12 296.081 67.78 297.801 67.78C299.201 67.78 300.361 68 301.281 68.44C302.241 68.84 303.001 69.4 303.561 70.12C304.121 70.84 304.521 71.7 304.761 72.7C305.001 73.7 305.121 74.76 305.121 75.88C305.121 76.44 305.081 77.28 305.001 78.4C304.921 79.52 304.741 80.78 304.461 82.18C304.181 83.54 303.781 84.96 303.261 86.44C302.741 87.88 302.041 89.2 301.161 90.4C300.321 91.6 299.241 92.58 297.921 93.34C296.641 94.1 295.101 94.48 293.301 94.48C292.301 94.48 291.321 94.36 290.361 94.12C289.441 93.88 288.601 93.56 287.841 93.16C287.081 92.76 286.401 92.3 285.801 91.78C285.241 91.22 284.821 90.66 284.541 90.1H284.181L281.181 104.08ZM287.541 88.66C288.501 88.66 289.301 88.16 289.941 87.16C290.581 86.12 291.101 84.92 291.501 83.56C291.901 82.16 292.181 80.78 292.341 79.42C292.541 78.02 292.641 76.98 292.641 76.3C292.641 75.5 292.501 74.84 292.221 74.32C291.981 73.8 291.521 73.54 290.841 73.54C290.081 73.54 289.361 73.82 288.681 74.38C288.001 74.9 287.501 75.36 287.181 75.76L284.841 86.74C285.161 87.18 285.541 87.62 285.981 88.06C286.421 88.46 286.941 88.66 287.541 88.66Z" fill="#45625D"/>
<path d="M265.703 94H253.523L258.983 68.2H271.283L265.703 94ZM272.843 60.34C272.843 61.26 272.643 62.06 272.243 62.74C271.883 63.42 271.383 64 270.743 64.48C270.143 64.96 269.443 65.32 268.643 65.56C267.843 65.8 267.023 65.92 266.183 65.92C264.583 65.92 263.243 65.54 262.163 64.78C261.083 64.02 260.543 62.82 260.543 61.18C260.543 60.3 260.723 59.52 261.083 58.84C261.443 58.12 261.923 57.54 262.523 57.1C263.163 56.62 263.883 56.26 264.683 56.02C265.523 55.78 266.383 55.66 267.263 55.66C268.823 55.66 270.143 56.04 271.223 56.8C272.303 57.56 272.843 58.74 272.843 60.34Z" fill="#45625D"/>
<path d="M229.979 68.2H239.759L240.659 72.7H241.079C241.999 71.26 243.179 70.04 244.619 69.04C246.059 68.04 247.959 67.54 250.319 67.54C250.479 67.54 250.719 67.56 251.039 67.6C251.399 67.6 251.779 67.66 252.179 67.78C252.619 67.86 253.059 68 253.499 68.2C253.979 68.36 254.439 68.6 254.879 68.92L252.239 81.28H245.699C245.619 78.8 245.399 77.08 245.039 76.12C244.679 75.12 244.099 74.62 243.299 74.62C242.899 74.62 242.459 74.72 241.979 74.92C241.539 75.08 241.079 75.46 240.599 76.06L236.759 94H224.519L229.979 68.2Z" fill="#45625D"/>
<path d="M220.47 92.56C218.79 93.24 217.01 93.72 215.13 94C213.29 94.32 211.19 94.48 208.83 94.48C206.75 94.48 204.83 94.28 203.07 93.88C201.35 93.44 199.85 92.76 198.57 91.84C197.29 90.92 196.29 89.74 195.57 88.3C194.85 86.82 194.49 85.04 194.49 82.96C194.49 80.8 194.85 78.8 195.57 76.96C196.33 75.08 197.45 73.44 198.93 72.04C200.45 70.64 202.37 69.54 204.69 68.74C207.01 67.94 209.77 67.54 212.97 67.54C215.57 67.54 217.83 67.76 219.75 68.2C221.67 68.6 223.25 69.54 224.49 71.02L222.81 78.7H214.65C214.69 78.02 214.73 77.42 214.77 76.9C214.81 76.38 214.83 75.8 214.83 75.16C214.83 73.88 214.69 72.98 214.41 72.46C214.13 71.9 213.67 71.62 213.03 71.62C211.91 71.62 210.93 72.18 210.09 73.3C209.25 74.38 208.55 75.7 207.99 77.26C207.47 78.78 207.07 80.4 206.79 82.12C206.55 83.8 206.43 85.24 206.43 86.44C206.43 86.88 206.45 87.34 206.49 87.82C206.53 88.26 206.61 88.68 206.73 89.08C206.89 89.48 207.09 89.8 207.33 90.04C207.57 90.28 207.91 90.4 208.35 90.4C208.75 90.4 209.21 90.28 209.73 90.04C210.25 89.8 210.75 89.44 211.23 88.96C211.71 88.44 212.17 87.78 212.61 86.98C213.05 86.18 213.39 85.22 213.63 84.1H222.21L220.47 92.56Z" fill="#45625D"/>
<path d="M183.246 75.76C183.286 75.56 183.326 75.36 183.366 75.16C183.406 74.96 183.426 74.74 183.426 74.5C183.426 73.78 183.286 73.12 183.006 72.52C182.766 71.88 182.266 71.56 181.506 71.56C180.826 71.56 180.146 71.86 179.466 72.46C178.786 73.02 178.446 73.78 178.446 74.74C178.446 75.38 178.606 75.9 178.926 76.3C179.286 76.66 179.746 76.96 180.306 77.2C180.866 77.44 181.486 77.64 182.166 77.8C182.886 77.96 183.586 78.12 184.266 78.28C185.226 78.52 186.126 78.82 186.966 79.18C187.846 79.5 188.626 79.94 189.306 80.5C189.986 81.06 190.526 81.76 190.926 82.6C191.326 83.4 191.526 84.4 191.526 85.6C191.526 87.28 191.126 88.7 190.326 89.86C189.566 90.98 188.486 91.9 187.086 92.62C185.726 93.3 184.106 93.78 182.226 94.06C180.386 94.34 178.406 94.48 176.286 94.48C173.046 94.48 170.366 94.24 168.246 93.76C166.126 93.28 164.646 92.82 163.806 92.38L165.066 86.38H173.166C173.126 86.58 173.106 86.78 173.106 86.98C173.106 87.14 173.106 87.32 173.106 87.52C173.106 88.44 173.306 89.18 173.706 89.74C174.146 90.26 174.886 90.52 175.926 90.52C177.086 90.52 177.906 90.2 178.386 89.56C178.906 88.88 179.166 88.26 179.166 87.7C179.166 87.14 178.946 86.66 178.506 86.26C178.106 85.82 177.586 85.46 176.946 85.18C176.306 84.86 175.586 84.6 174.786 84.4C174.026 84.16 173.286 83.94 172.566 83.74C172.046 83.62 171.446 83.42 170.766 83.14C170.126 82.86 169.506 82.46 168.906 81.94C168.306 81.42 167.806 80.76 167.406 79.96C167.006 79.12 166.806 78.08 166.806 76.84C166.806 75.08 167.226 73.62 168.066 72.46C168.946 71.26 170.066 70.3 171.426 69.58C172.826 68.86 174.386 68.34 176.106 68.02C177.866 67.7 179.626 67.54 181.386 67.54C183.586 67.54 185.666 67.74 187.626 68.14C189.586 68.54 191.186 69.06 192.426 69.7L191.046 75.76H183.246Z" fill="#45625D"/>
<path d="M145.094 81.94C144.934 82.82 144.814 83.66 144.734 84.46C144.694 85.26 144.674 85.98 144.674 86.62C144.674 86.98 144.694 87.38 144.734 87.82C144.774 88.26 144.854 88.68 144.974 89.08C145.134 89.44 145.334 89.76 145.574 90.04C145.854 90.28 146.234 90.4 146.714 90.4C147.074 90.4 147.474 90.28 147.914 90.04C148.394 89.8 148.854 89.46 149.294 89.02C149.774 88.58 150.214 88.04 150.614 87.4C151.054 86.76 151.394 86.04 151.634 85.24H161.474L159.914 91.66C159.114 92.18 158.194 92.62 157.154 92.98C156.114 93.34 155.014 93.64 153.854 93.88C152.694 94.08 151.514 94.22 150.314 94.3C149.114 94.42 147.974 94.48 146.894 94.48C144.894 94.48 143.034 94.3 141.314 93.94C139.594 93.58 138.094 92.96 136.814 92.08C135.534 91.2 134.514 90.04 133.754 88.6C133.034 87.12 132.674 85.3 132.674 83.14C132.674 81.18 132.974 79.26 133.574 77.38C134.214 75.5 135.254 73.84 136.694 72.4C138.174 70.92 140.134 69.74 142.574 68.86C145.054 67.98 148.134 67.54 151.814 67.54C155.814 67.54 158.814 68.16 160.814 69.4C162.854 70.64 163.874 72.58 163.874 75.22C163.874 76.3 163.714 77.48 163.394 78.76C163.074 80 162.594 81.06 161.954 81.94H145.094ZM153.074 74.8C153.074 73.56 152.874 72.72 152.474 72.28C152.074 71.84 151.594 71.62 151.034 71.62C150.394 71.62 149.794 71.84 149.234 72.28C148.714 72.68 148.234 73.24 147.794 73.96C147.354 74.64 146.954 75.44 146.594 76.36C146.234 77.24 145.934 78.18 145.694 79.18H152.534C152.614 78.7 152.694 78.2 152.774 77.68C152.854 77.24 152.914 76.76 152.954 76.24C153.034 75.72 153.074 75.24 153.074 74.8Z" fill="#45625D"/>
<path d="M107.87 68.2H117.65L118.55 72.7H118.97C119.89 71.26 121.07 70.04 122.51 69.04C123.95 68.04 125.85 67.54 128.21 67.54C128.37 67.54 128.61 67.56 128.93 67.6C129.29 67.6 129.67 67.66 130.07 67.78C130.51 67.86 130.95 68 131.39 68.2C131.87 68.36 132.33 68.6 132.77 68.92L130.13 81.28H123.59C123.51 78.8 123.29 77.08 122.93 76.12C122.57 75.12 121.99 74.62 121.19 74.62C120.79 74.62 120.35 74.72 119.87 74.92C119.43 75.08 118.97 75.46 118.49 76.06L114.65 94H102.41L107.87 68.2Z" fill="#45625D"/>
<path d="M86.2932 77.56C87.4932 77.56 88.4932 77.06 89.2932 76.06C90.1332 75.06 90.8132 73.84 91.3332 72.4C91.8932 70.96 92.2932 69.46 92.5332 67.9C92.7732 66.34 92.8932 64.98 92.8932 63.82C92.8932 62.74 92.7132 61.84 92.3532 61.12C91.9932 60.36 91.2132 59.98 90.0132 59.98H87.3132L83.5332 77.56H86.2932ZM82.6932 81.4L79.9932 94H67.0332L75.1332 55.9H88.9932C91.2732 55.9 93.3532 56.02 95.2332 56.26C97.1132 56.5 98.7332 56.98 100.093 57.7C101.453 58.42 102.513 59.46 103.273 60.82C104.033 62.14 104.413 63.92 104.413 66.16C104.413 68.24 104.073 70.22 103.393 72.1C102.753 73.94 101.693 75.56 100.213 76.96C98.7732 78.32 96.8932 79.4 94.5732 80.2C92.2532 81 89.4332 81.4 86.1132 81.4H82.6932Z" fill="#45625D"/>
<path d="M60.2724 60.46H50.6124L43.4724 94H30.5124L37.6524 60.46H28.1124L29.1924 55.9H61.2924L60.2724 60.46Z" fill="#45625D"/>
<path d="M17.1221 94H4.16211L12.2621 55.9H25.2821L17.1221 94Z" fill="#45625D"/>
<path fill-rule="evenodd" clip-rule="evenodd" d="M397.594 75.04C397.648 74.9902 397.704 74.9392 397.762 74.8869C398.049 74.628 398.389 74.3391 398.782 74.02C398.957 73.8856 399.135 73.7686 399.313 73.6689C399.825 73.383 400.348 73.24 400.882 73.24C400.906 73.24 400.93 73.2403 400.954 73.241C401.517 73.2566 401.933 73.4562 402.202 73.84C402.522 74.2 402.682 74.68 402.682 75.28C402.682 75.72 402.622 76.22 402.502 76.78C402.382 77.3 402.282 77.82 402.202 78.34L398.902 94H411.082L413.602 82.3C413.722 81.66 413.862 80.94 414.022 80.14C414.222 79.3 414.402 78.48 414.562 77.68C414.722 76.88 414.862 76.12 414.982 75.4C415.102 74.64 415.162 74 415.162 73.48C415.162 71.64 414.482 70.2 413.122 69.16C411.762 68.08 410.042 67.54 407.962 67.54C406.442 67.54 405.062 67.78 403.822 68.26C402.582 68.74 401.502 69.26 400.582 69.82C400.385 69.9483 400.193 70.0787 400.004 70.2113C399.946 70.2515 399.889 70.2919 399.833 70.3325C399.145 70.8247 398.506 71.3457 397.915 71.8956C397.864 71.9435 397.812 71.9917 397.762 72.04H397.402L396.322 68.2H386.542L381.082 94H393.322L397.282 75.34C397.376 75.2455 397.48 75.1455 397.594 75.04ZM377.38 97L378.571 91.3737C378.097 91.9171 377.586 92.4281 377.037 92.9051L377.02 92.9201L377.002 92.9347C373.224 96.1167 368.027 97.48 361.87 97.48C356.72 97.48 352.288 96.5249 349.338 93.9206C347.466 92.3062 346.24 90.262 345.558 87.9126L343.592 97H325.393C324.919 97.0925 324.412 97.1414 323.942 97.1729C323.388 97.2124 322.764 97.2516 322.071 97.2904C321.319 97.3751 320.541 97.4171 319.74 97.4199C319.012 97.4592 318.342 97.48 317.736 97.48C316.595 97.48 315.469 97.3903 314.361 97.2088C313.11 97.046 311.918 96.6932 310.818 96.1148L310.765 96.0866L310.713 96.0563C309.485 95.3457 308.508 94.3512 307.783 93.1435L307.754 93.0952L307.727 93.0458C306.953 91.6382 306.696 89.9967 306.696 88.36C306.696 87.8045 306.719 87.1445 306.76 86.3936L306.765 86.311L306.774 86.2287C306.868 85.3804 307.028 84.4749 307.245 83.5191C307.247 83.5111 307.249 83.5031 307.25 83.4951L307.35 83.0224C307.043 84.4554 306.621 85.9266 306.092 87.4345L306.087 87.4467L306.083 87.4589C305.472 89.1504 304.645 90.7172 303.6 92.1479C302.504 93.7045 301.103 94.9666 299.435 95.93C297.608 97.0102 295.52 97.48 293.301 97.48C292.059 97.48 290.834 97.3306 289.634 97.0304L289.619 97.0267L289.604 97.0229C288.485 96.731 287.427 96.3324 286.444 95.8148C286.317 95.748 286.191 95.6796 286.067 95.6096L283.606 107.08H265.243L267.367 97H249.822L252.514 84.28H242.794L242.701 81.3767C242.693 81.14 242.684 80.9143 242.674 80.6993L239.185 97H220.818L221.13 95.5239C219.371 96.1957 217.528 96.6734 215.608 96.9619C213.57 97.3136 211.305 97.48 208.83 97.48C206.559 97.48 204.413 97.2618 202.405 96.8054L202.366 96.7964L202.327 96.7864C200.29 96.2654 198.439 95.44 196.819 94.2761C195.422 93.2715 194.277 92.0265 193.395 90.5654C193.22 90.9041 193.022 91.234 192.802 91.5541C191.718 93.1483 190.228 94.3777 188.458 95.2879L188.443 95.2957L188.428 95.3033C186.725 96.1546 184.789 96.7111 182.672 97.0267C180.665 97.3317 178.535 97.48 176.286 97.48C172.921 97.48 169.999 97.2328 167.584 96.686C165.451 96.2031 163.632 95.6753 162.414 95.0375L161.194 94.3982C160.256 94.9674 159.231 95.4356 158.135 95.815C156.964 96.2203 155.739 96.5536 154.462 96.8178L154.413 96.8279L154.363 96.8364C153.115 97.0517 151.848 97.2027 150.563 97.29C149.293 97.4156 148.069 97.48 146.894 97.48C144.715 97.48 142.647 97.284 140.699 96.8764C138.641 96.4456 136.762 95.6849 135.114 94.5521C133.415 93.3839 132.076 91.848 131.101 90.0003L131.078 89.9567L131.056 89.9124C130.236 88.2261 129.815 86.3242 129.704 84.28H120.685L120.591 81.3767C120.584 81.1399 120.575 80.9142 120.565 80.6992L117.076 97H98.7084L102.543 78.8798C102.455 78.9671 102.365 79.0537 102.275 79.1394L102.273 79.141C100.458 80.855 98.1805 82.1295 95.5512 83.0361C92.8274 83.9754 89.6565 84.4 86.1132 84.4H85.1185L82.4185 97H63.3284L72.704 52.9H88.9932C91.3757 52.9 93.5849 53.0252 95.6131 53.2842C97.771 53.5596 99.7536 54.1257 101.497 55.0486C103.369 56.0398 104.845 57.4897 105.883 59.3399C106.851 61.0296 107.294 63.0374 107.392 65.2H120.109L120.436 66.8347C120.556 66.7471 120.676 66.6608 120.799 66.5759C122.888 65.1248 125.446 64.54 128.21 64.54C128.509 64.54 128.835 64.5685 129.138 64.6035C129.701 64.6221 130.247 64.7149 130.771 64.86C131.364 64.9805 131.938 65.166 132.491 65.4067C133.226 65.6688 133.907 66.0379 134.534 66.4938L136.111 67.6403L135.779 69.1941C137.418 67.8682 139.364 66.8286 141.556 66.0379L141.563 66.0353L141.57 66.0327C144.473 65.0028 147.918 64.54 151.814 64.54C156.021 64.54 159.684 65.1738 162.384 66.8438C163.929 67.7858 165.065 69.0195 165.807 70.4722C166.939 68.9942 168.356 67.811 170.023 66.9286L170.038 66.9203L170.054 66.9121C171.74 66.0449 173.582 65.4381 175.557 65.0706L175.57 65.0684C177.504 64.7167 179.443 64.54 181.386 64.54C183.768 64.54 186.05 64.7565 188.226 65.2006C190.35 65.634 192.237 66.2261 193.802 67.0341L195.867 68.1001L194.99 71.951C195.553 71.2099 196.179 70.5127 196.868 69.8606L196.883 69.8469L196.898 69.8334C198.774 68.1056 201.073 66.8139 203.712 65.9039C206.426 64.9681 209.533 64.54 212.97 64.54C215.717 64.54 218.202 64.7704 220.392 65.2694C222.921 65.8027 225.07 67.0687 226.737 69.0308L227.548 65.2H242.219L242.546 66.8347C242.665 66.7471 242.786 66.6608 242.908 66.5759C244.998 65.1248 247.555 64.54 250.319 64.54C250.619 64.54 250.945 64.5685 251.248 64.6035C251.81 64.6221 252.356 64.7149 252.88 64.86C253.473 64.9805 254.047 65.166 254.601 65.4067C255.212 65.625 255.787 65.9174 256.325 66.2724L256.551 65.2H258.552C257.847 64.0015 257.543 62.6106 257.543 61.18C257.543 59.8934 257.807 58.6306 258.415 57.4682C258.967 56.3751 259.736 55.4269 260.736 54.6904C261.667 53.9943 262.703 53.4819 263.821 53.1465L263.84 53.1409L263.859 53.1354C264.969 52.8183 266.106 52.66 267.263 52.66C269.326 52.66 271.278 53.17 272.95 54.3466C275.002 55.7909 275.843 57.9979 275.843 60.34C275.843 61.6828 275.552 63.0046 274.863 64.2018C274.674 64.5528 274.461 64.8855 274.227 65.2H288.554L289.093 67.1167C289.852 66.6686 290.647 66.2907 291.478 65.9872C293.571 65.1984 295.684 64.78 297.801 64.78C299.464 64.78 301.076 65.0337 302.504 65.7C303.786 66.2452 304.919 67.0402 305.807 68.1246L306.318 65.6795L308.222 65.2678C309.607 64.9682 310.777 64.6411 311.747 64.2948C312.663 63.9674 313.469 63.5686 314.177 63.1072L314.201 63.0914L314.226 63.076C314.958 62.6182 315.666 62.0409 316.346 61.3286L316.37 61.3033L316.394 61.2787C317.167 60.5066 318.026 59.524 318.972 58.3131L319.872 57.16H331.234L329.494 65.2H334.021C333.316 64.0015 333.012 62.6106 333.012 61.18C333.012 59.8934 333.276 58.6305 333.884 57.4682C334.436 56.3751 335.205 55.4269 336.205 54.6904C337.136 53.9943 338.172 53.4819 339.29 53.1465L339.309 53.1409L339.328 53.1354C340.438 52.8183 341.575 52.66 342.732 52.66C344.795 52.66 346.746 53.17 348.418 54.3466C350.471 55.7909 351.312 57.9979 351.312 60.34C351.312 61.6828 351.021 63.0046 350.332 64.2018C350.143 64.5528 349.93 64.8855 349.695 65.2H350.47L349.27 70.7464C350.174 69.7344 351.202 68.8256 352.35 68.0223L352.374 68.0055L352.398 67.9891C355.987 65.5801 360.647 64.54 366.07 64.54C371.052 64.54 375.335 65.3944 378.288 67.6889C380.325 69.2634 381.598 71.3981 382.271 73.8899L384.11 65.2H398.594L399.151 67.1795C400.221 66.5405 401.423 65.9715 402.739 65.4623C404.37 64.8309 406.124 64.54 407.962 64.54C410.571 64.54 412.98 65.2254 414.965 66.7933C417.115 68.4474 418.162 70.7953 418.162 73.48C418.162 74.2117 418.079 75.0192 417.945 75.8679L417.943 75.8806L417.941 75.8932C417.815 76.6484 417.669 77.4403 417.503 78.2684C417.339 79.0889 417.156 79.9266 416.953 80.7813C416.799 81.5509 416.665 82.2412 416.55 82.8529L416.543 82.8924L413.504 97H377.38ZM376.45 70.06C374.29 68.38 370.83 67.54 366.07 67.54C360.99 67.54 356.99 68.52 354.07 70.48C352.07 71.88 350.53 73.64 349.45 75.76C348.41 77.88 347.89 80.24 347.89 82.84C347.89 86.76 349.03 89.7 351.31 91.66C353.43 93.54 356.95 94.48 361.87 94.48C367.63 94.48 372.03 93.2 375.07 90.64C376.59 89.32 377.77 87.66 378.61 85.66C379.45 83.62 379.87 81.34 379.87 78.82C379.87 74.74 378.73 71.82 376.45 70.06ZM367.33 79.6C367.13 81.32 366.81 83 366.37 84.64C365.93 86.24 365.33 87.6 364.57 88.72C363.85 89.84 362.99 90.4 361.99 90.4C360.59 90.4 359.89 89.1 359.89 86.5C359.89 85.46 359.99 84.1 360.19 82.42C360.43 80.74 360.79 79.1 361.27 77.5C361.75 75.9 362.37 74.52 363.13 73.36C363.93 72.2 364.87 71.62 365.95 71.62C366.67 71.62 367.13 71.92 367.33 72.52C367.57 73.08 367.69 73.92 367.69 75.04C367.69 76.32 367.57 77.84 367.33 79.6ZM364.597 77.0485C364.436 77.4559 364.284 77.8932 364.143 78.3621C363.71 79.8055 363.384 81.2875 363.165 82.8096C363.04 83.8606 362.961 84.7447 362.921 85.4726C363.124 84.99 363.31 84.4519 363.475 83.8535C363.875 82.3606 364.167 80.8277 364.35 79.2535L364.353 79.224L364.357 79.1947C364.464 78.4161 364.543 77.7014 364.597 77.0485ZM346.212 64.48C346.852 64 347.352 63.42 347.712 62.74C348.112 62.06 348.312 61.26 348.312 60.34C348.312 58.74 347.772 57.56 346.692 56.8C345.612 56.04 344.292 55.66 342.732 55.66C341.852 55.66 340.992 55.78 340.152 56.02C339.352 56.26 338.632 56.62 337.992 57.1C337.392 57.54 336.912 58.12 336.552 58.84C336.192 59.52 336.012 60.3 336.012 61.18C336.012 62.82 336.552 64.02 337.632 64.78C337.854 64.936 338.086 65.076 338.33 65.2C339.273 65.68 340.38 65.92 341.652 65.92C342.492 65.92 343.312 65.8 344.112 65.56C344.443 65.4606 344.757 65.3406 345.054 65.2C345.475 65.0012 345.86 64.7612 346.212 64.48ZM329.9 75.22H327.371L325.409 84.5473L325.407 84.5573C325.218 85.4291 325.069 86.1897 324.96 86.8433C325.251 86.8541 325.583 86.86 325.956 86.86H327.436L329.9 75.22ZM322.656 89.56C322.096 89.36 321.816 88.86 321.816 88.06C321.816 87.66 321.876 87.1 321.996 86.38C322.116 85.66 322.276 84.84 322.476 83.92L324.936 72.22H329.676L330.456 68.2H325.776L327.516 60.16H321.336C320.336 61.44 319.396 62.52 318.516 63.4C317.676 64.28 316.776 65.02 315.816 65.62C314.896 66.22 313.876 66.72 312.756 67.12C311.636 67.52 310.336 67.88 308.856 68.2L308.016 72.22H312.696L310.176 84.16C309.976 85.04 309.836 85.84 309.756 86.56C309.716 87.28 309.696 87.88 309.696 88.36C309.696 89.72 309.916 90.8 310.356 91.6C310.836 92.4 311.456 93.02 312.216 93.46C312.976 93.86 313.836 94.12 314.796 94.24C315.756 94.4 316.736 94.48 317.736 94.48C318.296 94.48 318.936 94.46 319.656 94.42C320.416 94.42 321.136 94.38 321.816 94.3C322.536 94.26 323.176 94.22 323.736 94.18C324.336 94.14 324.776 94.08 325.056 94L325.956 89.86C324.578 89.86 323.57 89.7858 322.934 89.6374C322.832 89.6135 322.739 89.5877 322.656 89.56ZM308.996 75.22L307.403 82.7684C307.701 81.2761 307.903 79.8879 307.994 78.6138C308.075 77.4783 308.121 76.5511 308.121 75.88C308.121 75.6589 308.117 75.4389 308.109 75.22H308.996ZM305.107 75.22C305.072 74.4155 304.972 73.6432 304.808 72.9034C304.793 72.8353 304.777 72.7675 304.761 72.7C304.521 71.7 304.121 70.84 303.561 70.12C303.001 69.4 302.241 68.84 301.281 68.44C300.361 68 299.201 67.78 297.801 67.78C296.081 67.78 294.321 68.12 292.521 68.8C291.619 69.1281 290.759 69.5718 289.941 70.1311C289.629 70.3439 289.324 70.5734 289.025 70.8196C288.624 71.15 288.234 71.5106 287.854 71.9014C287.81 71.9472 287.765 71.9934 287.721 72.04H287.361L286.281 68.2H276.501L268.941 104.08H281.181L284.181 90.1H284.541C284.556 90.1289 284.57 90.1579 284.586 90.1868C284.751 90.502 284.962 90.8173 285.216 91.1325C285.39 91.3484 285.585 91.5642 285.801 91.78C286.093 92.0333 286.405 92.2724 286.735 92.4973C287.083 92.734 287.451 92.9549 287.841 93.16C288.601 93.56 289.441 93.88 290.361 94.12C291.321 94.36 292.301 94.48 293.301 94.48C295.101 94.48 296.641 94.1 297.921 93.34C299.241 92.58 300.321 91.6 301.161 90.4C302.041 89.2 302.741 87.88 303.261 86.44C303.781 84.96 304.181 83.54 304.461 82.18C304.741 80.78 304.921 79.52 305.001 78.4C305.081 77.28 305.121 76.44 305.121 75.88C305.121 75.6576 305.116 75.4376 305.107 75.22ZM287.161 88.6316C287.284 88.6506 287.411 88.66 287.541 88.66C288.501 88.66 289.301 88.16 289.941 87.16C290.581 86.12 291.101 84.92 291.501 83.56C291.901 82.16 292.181 80.78 292.341 79.42C292.541 78.02 292.641 76.98 292.641 76.3C292.641 75.5 292.501 74.84 292.221 74.32C291.981 73.8 291.521 73.54 290.841 73.54C290.706 73.54 290.573 73.5488 290.44 73.5665C290.15 73.6051 289.867 73.6861 289.589 73.8093C289.279 73.9468 288.976 74.1371 288.681 74.38C288.378 74.6119 288.11 74.8319 287.879 75.04C287.591 75.2984 287.358 75.5384 287.181 75.76L284.841 86.74C284.928 86.86 285.02 86.98 285.116 87.1C285.373 87.42 285.661 87.74 285.981 88.06C286.326 88.373 286.719 88.5636 287.161 88.6316ZM334.452 68.2L328.992 94H341.172L346.752 68.2H334.452ZM270.743 64.48C271.383 64 271.883 63.42 272.243 62.74C272.643 62.06 272.843 61.26 272.843 60.34C272.843 58.74 272.303 57.56 271.223 56.8C270.143 56.04 268.823 55.66 267.263 55.66C266.383 55.66 265.523 55.78 264.683 56.02C263.883 56.26 263.163 56.62 262.523 57.1C261.923 57.54 261.443 58.12 261.083 58.84C260.723 59.52 260.543 60.3 260.543 61.18C260.543 62.82 261.083 64.02 262.163 64.78C262.385 64.936 262.617 65.076 262.861 65.2C263.804 65.68 264.911 65.92 266.183 65.92C267.023 65.92 267.843 65.8 268.643 65.56C268.974 65.4606 269.289 65.3406 269.586 65.2C270.006 65.0012 270.392 64.7612 270.743 64.48ZM258.983 68.2L253.523 94H265.703L271.283 68.2H258.983ZM253.499 68.2C253.059 68 252.619 67.86 252.179 67.78C251.779 67.66 251.399 67.6 251.039 67.6C250.719 67.56 250.479 67.54 250.319 67.54C247.959 67.54 246.059 68.04 244.619 69.04C244.118 69.3878 243.649 69.7621 243.211 70.1631C242.644 70.6826 242.129 71.2468 241.668 71.8556C241.484 72.0978 241.308 72.3472 241.141 72.6036C241.14 72.6051 241.139 72.6066 241.138 72.608C241.119 72.6386 241.099 72.6693 241.079 72.7H240.659L239.759 68.2H229.979L224.519 94H236.759L240.599 76.06C240.703 75.9296 240.807 75.8096 240.909 75.7C240.966 75.6391 241.023 75.5814 241.079 75.5269C241.388 75.2282 241.688 75.0259 241.979 74.92C242.459 74.72 242.899 74.62 243.299 74.62C243.337 74.62 243.374 74.6211 243.41 74.6233C244.153 74.6681 244.696 75.167 245.039 76.12C245.399 77.08 245.619 78.8 245.699 81.28H252.239L254.879 68.92C254.439 68.6 253.979 68.36 253.499 68.2ZM211.504 81.1L211.655 78.5238C211.696 77.831 211.737 77.2123 211.779 76.6699C211.793 76.4925 211.804 76.3025 211.812 76.0996C211.454 76.7089 211.121 77.422 210.821 78.2526C210.366 79.5864 210.009 81.0252 209.756 82.5737C209.533 84.1426 209.431 85.4174 209.43 86.4217C209.603 86.1795 209.788 85.8864 209.981 85.5343C210.25 85.0458 210.503 84.3749 210.697 83.4714L211.205 81.1H211.504ZM206.49 87.82C206.45 87.34 206.43 86.88 206.43 86.44C206.43 85.24 206.55 83.8 206.79 82.12C207.07 80.4 207.47 78.78 207.99 77.26C208.55 75.7 209.25 74.38 210.09 73.3C210.93 72.18 211.91 71.62 213.03 71.62C213.67 71.62 214.13 71.9 214.41 72.46C214.69 72.98 214.83 73.88 214.83 75.16C214.83 75.345 214.828 75.525 214.825 75.7C214.817 76.1303 214.799 76.5303 214.77 76.9C214.73 77.42 214.69 78.02 214.65 78.7H222.81L224.49 71.02C223.25 69.54 221.67 68.6 219.75 68.2C217.83 67.76 215.57 67.54 212.97 67.54C209.77 67.54 207.01 67.94 204.69 68.74C202.37 69.54 200.45 70.64 198.93 72.04C197.45 73.44 196.33 75.08 195.57 76.96C194.85 78.8 194.49 80.8 194.49 82.96C194.49 85.04 194.85 86.82 195.57 88.3C196.29 89.74 197.29 90.92 198.57 91.84C199.85 92.76 201.35 93.44 203.07 93.88C204.83 94.28 206.75 94.48 208.83 94.48C211.19 94.48 213.29 94.32 215.13 94C217.01 93.72 218.79 93.24 220.47 92.56L222.21 84.1H213.63C213.39 85.22 213.05 86.18 212.61 86.98C212.17 87.78 211.71 88.44 211.23 88.96C210.75 89.44 210.25 89.8 209.73 90.04C209.21 90.28 208.75 90.4 208.35 90.4C207.91 90.4 207.57 90.28 207.33 90.04C207.09 89.8 206.89 89.48 206.73 89.08C206.61 88.68 206.53 88.26 206.49 87.82ZM191.915 78.76H191.847C191.866 78.7786 191.884 78.7973 191.903 78.816C191.907 78.7973 191.911 78.7787 191.915 78.76ZM190.926 82.6C190.526 81.76 189.986 81.06 189.306 80.5C188.626 79.94 187.846 79.5 186.966 79.18C186.615 79.0295 186.253 78.8895 185.881 78.76C185.363 78.5797 184.825 78.4197 184.266 78.28C183.931 78.2011 183.591 78.1223 183.246 78.0434C182.891 77.9623 182.531 77.8811 182.166 77.8C181.486 77.64 180.866 77.44 180.306 77.2C180.177 77.1445 180.053 77.0859 179.934 77.024C179.539 76.8181 179.203 76.5768 178.926 76.3C178.606 75.9 178.446 75.38 178.446 74.74C178.446 73.78 178.786 73.02 179.466 72.46C180.146 71.86 180.826 71.56 181.506 71.56C182.266 71.56 182.766 71.88 183.006 72.52C183.103 72.7272 183.183 72.9416 183.246 73.1631C183.366 73.583 183.426 74.0287 183.426 74.5C183.426 74.6778 183.415 74.8446 183.393 75.0005C183.386 75.055 183.377 75.1082 183.366 75.16L183.246 75.76H191.046L192.426 69.7C191.186 69.06 189.586 68.54 187.626 68.14C185.666 67.74 183.586 67.54 181.386 67.54C179.626 67.54 177.866 67.7 176.106 68.02C174.386 68.34 172.826 68.86 171.426 69.58C170.066 70.3 168.946 71.26 168.066 72.46C167.406 73.3722 167.005 74.47 166.864 75.7533C166.834 76.0256 166.815 76.3063 166.809 76.5953C166.807 76.6762 166.806 76.7578 166.806 76.84C166.806 78.08 167.006 79.12 167.406 79.96C167.806 80.76 168.306 81.42 168.906 81.94C169.506 82.46 170.126 82.86 170.766 83.14C170.98 83.2279 171.185 83.3079 171.383 83.38C171.815 83.5377 172.209 83.6577 172.566 83.74C172.765 83.7951 172.965 83.8518 173.166 83.91C173.696 84.0628 174.236 84.2262 174.786 84.4C175.408 84.5555 175.981 84.7472 176.507 84.9751C176.657 85.0404 176.804 85.1087 176.946 85.18C177.586 85.46 178.106 85.82 178.506 86.26C178.946 86.66 179.166 87.14 179.166 87.7C179.166 88.26 178.906 88.88 178.386 89.56C177.906 90.2 177.086 90.52 175.926 90.52C174.886 90.52 174.146 90.26 173.706 89.74C173.433 89.3571 173.253 88.89 173.166 88.3388C173.126 88.0838 173.106 87.8109 173.106 87.52V86.98C173.106 86.78 173.126 86.58 173.166 86.38H165.066L163.806 92.38C164.646 92.82 166.126 93.28 168.246 93.76C170.366 94.24 173.046 94.48 176.286 94.48C178.406 94.48 180.386 94.34 182.226 94.06C184.106 93.78 185.726 93.3 187.086 92.62C188.486 91.9 189.566 90.98 190.326 89.86C191.126 88.7 191.526 87.28 191.526 85.6C191.526 84.4 191.326 83.4 190.926 82.6ZM166.109 83.38C165.806 83.0352 165.53 82.6677 165.28 82.2806L165.013 83.38H166.109ZM148.557 84.94H147.714C147.691 85.4628 147.678 85.9388 147.675 86.3693C147.804 86.2089 147.936 86.0237 148.07 85.81L148.104 85.7544L148.142 85.7004C148.297 85.475 148.436 85.2232 148.557 84.94ZM144.974 89.08C144.854 88.68 144.774 88.26 144.734 87.82C144.694 87.38 144.674 86.98 144.674 86.62C144.674 85.98 144.694 85.26 144.734 84.46C144.806 83.733 144.912 82.973 145.051 82.18C145.065 82.1003 145.079 82.0203 145.094 81.94H161.954C162.594 81.06 163.074 80 163.394 78.76C163.6 77.9356 163.74 77.1527 163.813 76.4113C163.842 76.1177 163.861 75.8307 163.869 75.5501C163.872 75.4391 163.874 75.329 163.874 75.22C163.874 72.58 162.854 70.64 160.814 69.4C158.814 68.16 155.814 67.54 151.814 67.54C148.134 67.54 145.054 67.98 142.574 68.86C140.134 69.74 138.174 70.92 136.694 72.4C135.794 73.3001 135.05 74.286 134.462 75.358C134.11 76.0011 133.814 76.6751 133.574 77.38C133.108 78.8402 132.823 80.3245 132.719 81.833C132.689 82.2666 132.674 82.7023 132.674 83.14C132.674 83.3273 132.676 83.512 132.682 83.6941C132.739 85.613 133.096 87.2483 133.754 88.6C134.514 90.04 135.534 91.2 136.814 92.08C138.094 92.96 139.594 93.58 141.314 93.94C143.034 94.3 144.894 94.48 146.894 94.48C147.974 94.48 149.114 94.42 150.314 94.3C151.514 94.22 152.694 94.08 153.854 93.88C155.014 93.64 156.114 93.34 157.154 92.98C158.194 92.62 159.114 92.18 159.914 91.66L161.474 85.24H151.634C151.394 86.04 151.054 86.76 150.614 87.4C150.214 88.04 149.774 88.58 149.294 89.02C148.854 89.46 148.394 89.8 147.914 90.04C147.474 90.28 147.074 90.4 146.714 90.4C146.234 90.4 145.854 90.28 145.574 90.04C145.334 89.76 145.134 89.44 144.974 89.08ZM145.694 79.18C145.713 79.0996 145.733 79.0196 145.753 78.94C145.982 78.0293 146.263 77.1693 146.594 76.36C146.617 76.2995 146.641 76.2395 146.665 76.18C147.006 75.3353 147.383 74.5953 147.794 73.96C148.234 73.24 148.714 72.68 149.234 72.28C149.794 71.84 150.394 71.62 151.034 71.62C151.594 71.62 152.074 71.84 152.474 72.28C152.874 72.72 153.074 73.56 153.074 74.8C153.074 75.24 153.034 75.72 152.954 76.24C152.914 76.76 152.854 77.24 152.774 77.68C152.707 78.1139 152.64 78.5339 152.573 78.94C152.56 79.0206 152.547 79.1006 152.534 79.18H145.694ZM132.77 68.92C132.33 68.6 131.87 68.36 131.39 68.2C130.95 68 130.51 67.86 130.07 67.78C129.67 67.66 129.29 67.6 128.93 67.6C128.61 67.56 128.37 67.54 128.21 67.54C125.85 67.54 123.95 68.04 122.51 69.04C122.009 69.3878 121.54 69.7621 121.102 70.1631C120.534 70.6826 120.02 71.2468 119.558 71.8556C119.374 72.0978 119.199 72.3472 119.032 72.6036C119.031 72.6051 119.03 72.6066 119.029 72.6081C119.009 72.6386 118.989 72.6693 118.97 72.7H118.55L117.65 68.2H107.87L102.41 94H114.65L118.49 76.06C118.594 75.9296 118.697 75.8096 118.8 75.7C118.857 75.6391 118.913 75.5814 118.97 75.5269C119.279 75.2282 119.579 75.0259 119.87 74.92C120.35 74.72 120.79 74.62 121.19 74.62C121.227 74.62 121.264 74.6211 121.301 74.6233C122.044 74.6681 122.587 75.167 122.93 76.12C123.29 77.08 123.51 78.8 123.59 81.28H130.13L132.77 68.92ZM103.393 72.1C104.073 70.22 104.413 68.24 104.413 66.16C104.413 63.92 104.033 62.14 103.273 60.82C102.513 59.46 101.453 58.42 100.093 57.7C98.7332 56.98 97.1132 56.5 95.2332 56.26C93.3532 56.02 91.2732 55.9 88.9932 55.9H75.1332L67.0332 94H79.9932L82.6932 81.4H86.1132C89.4332 81.4 92.2532 81 94.5732 80.2C96.8932 79.4 98.7732 78.32 100.213 76.96C101.693 75.56 102.753 73.94 103.393 72.1ZM91.3332 72.4C90.8132 73.84 90.1332 75.06 89.2932 76.06C88.5633 76.9723 87.667 77.4685 86.6043 77.5485C86.5021 77.5562 86.3984 77.56 86.2932 77.56H83.5332L87.3132 59.98H90.0132C91.2132 59.98 91.9932 60.36 92.3532 61.12C92.7132 61.84 92.8932 62.74 92.8932 63.82C92.8932 64.98 92.7732 66.34 92.5332 67.9C92.2932 69.46 91.8932 70.96 91.3332 72.4ZM89.7367 62.98L87.4781 73.4846C87.863 72.9051 88.212 72.2107 88.5116 71.3811L88.524 71.3467L88.5372 71.3127C89.0163 70.0806 89.3606 68.7926 89.5681 67.4438C89.7925 65.9849 89.8932 64.784 89.8932 63.82C89.8932 63.4689 89.8659 63.1934 89.8273 62.98H89.7367ZM62.6755 63.46H53.041L45.901 97H26.8066L33.9466 63.46H26.731L19.5476 97H0.457275L9.83286 52.9H65.0376L62.6755 63.46ZM37.6524 60.46L30.5124 94H43.4724L50.6124 60.46H60.2724L61.2924 55.9H29.1924L28.1124 60.46H37.6524ZM12.2621 55.9H25.2821L17.1221 94H4.16212L12.2621 55.9Z" fill="#F2F2F2"/>
<path d="M350.5 120V118H356.5V120H350.5ZM354.5 126V124H350.5V122H348.5V120H350.5V122H354.5V124H356.5V126H354.5ZM348.5 128V126H354.5V128H348.5Z" fill="#3F7856"/>
<path d="M334.5 128V118H336.5V120H338.5V122H340.5V124H342.5V118H344.5V128H342.5V126H340.5V124H338.5V122H336.5V128H334.5Z" fill="#3F7856"/>
<path d="M324.5 128V126H322.5V120H324.5V118H328.5V120H330.5V126H328.5V128H324.5ZM324.5 125.92H328.5V120.08H324.5V125.92Z" fill="#3F7856"/>
<path d="M316.5 128V118H318.5V128H316.5Z" fill="#3F7856"/>
<path d="M308.5 128V120H306.5V118H312.5V120H310.5V128H308.5Z" fill="#3F7856"/>
<path d="M296.5 128V126H294.5V118H296.5V126H300.5V128H296.5ZM300.5 126V118H302.5V126H300.5Z" fill="#3F7856"/>
<path d="M284.5 128V118H286.5V126H290.5V128H284.5Z" fill="#3F7856"/>
<path d="M274.5 128V126H272.5V120H274.5V118H278.5V120H280.5V126H278.5V128H274.5ZM274.5 125.92H278.5V120.08H274.5V125.92Z" fill="#3F7856"/>
<path d="M262.5 120V118H268.5V120H262.5ZM266.5 126V124H262.5V122H260.5V120H262.5V122H266.5V124H268.5V126H266.5ZM260.5 128V126H266.5V128H260.5Z" fill="#3F7856"/>
<path d="M244.5 128V120H242.5V118H248.5V120H246.5V128H244.5Z" fill="#3F7856"/>
<path d="M236.5 128V118H238.5V128H236.5Z" fill="#3F7856"/>
<path d="M216.5 128V118H222.5V120H224.5V126H222.5V128H216.5ZM218.5 126H222.42V120H218.5V126Z" fill="#3F7856"/>
<path d="M206.5 128V118H212.5V120H208.5V122H212.5V124H208.5V126H212.5V128H206.5Z" fill="#3F7856"/>
<path d="M196.5 120V118H202.5V120H196.5ZM200.5 126V124H196.5V122H194.5V120H196.5V122H200.5V124H202.5V126H200.5ZM194.5 128V126H200.5V128H194.5Z" fill="#3F7856"/>
<path d="M182.5 128V120H184.5V118H188.5V120H190.5V128H188.5V124H184.5V128H182.5ZM184.5 122H188.5V120.08H184.5V122Z" fill="#3F7856"/>
<path d="M170.5 128V118H176.5V120H178.5V126H176.5V128H170.5ZM172.5 122H176.42V120H172.5V122ZM172.5 126H176.42V124H172.5V126Z" fill="#3F7856"/>
<path d="M160.5 124V122H166.5V124H160.5Z" fill="#3F7856"/>
<path d="M146.5 128V118H148.5V120H150.5V122H152.5V124H154.5V118H156.5V128H154.5V126H152.5V124H150.5V122H148.5V128H146.5Z" fill="#3F7856"/>
<path d="M136.5 128V126H134.5V120H136.5V118H140.5V120H142.5V126H140.5V128H136.5ZM136.5 125.92H140.5V120.08H136.5V125.92Z" fill="#3F7856"/>
<path d="M126.5 128V120H124.5V118H130.5V120H128.5V128H126.5Z" fill="#3F7856"/>
<path d="M114.5 120V118H120.5V120H114.5ZM118.5 126V124H114.5V122H112.5V120H114.5V122H118.5V124H120.5V126H118.5ZM112.5 128V126H118.5V128H112.5Z" fill="#3F7856"/>
<path d="M102.5 128V126H100.5V118H102.5V126H106.5V128H102.5ZM106.5 126V118H108.5V126H106.5Z" fill="#3F7856"/>
<path d="M90.5 128V126H88.5V120H90.5V118H94.5V120H96.5V126H94.5V128H90.5ZM90.5 125.92H94.5V120.08H90.5V125.92Z" fill="#3F7856"/>
<path d="M76.5 128V118H78.5V122H82.5V118H84.5V128H82.5V124H78.5V128H76.5Z" fill="#3F7856"/>
<path fill-rule="evenodd" clip-rule="evenodd" d="M348 115.5H359V128.5H357V130.5H340V128.5H339V130.5H332V128.5H331V130.5H322V128.5H321V130.5H314V122.5H313V130.5H306V122.5H305V128.5H303V130.5H294V128.5H293V130.5H282V128.5H281V130.5H272V128.5H269V130.5H258V117.5H260V115.5H271V117.5H272V115.5H281V117.5H282V115.5H289V123.5H292V115.5H321V117.5H322V115.5H331V117.5H332V115.5H339V117.5H340V115.5H347V117.5H348V115.5ZM356.5 118H350.5V120H348.5V122H350.5V124H354.5V126H348.5V128H354.5V126H356.5V124H354.5V122H350.5V120H356.5V118ZM336.5 120V118H334.5V128H336.5V122H338.5V124H340.5V126H342.5V128H344.5V118H342.5V124H340.5V122H338.5V120H336.5ZM296.5 118H294.5V126H296.5V128H300.5V126H302.5V118H300.5V126H296.5V118ZM286.5 118H284.5V128H290.5V126H286.5V118ZM268.5 118H262.5V120H260.5V122H262.5V124H266.5V126H260.5V128H266.5V126H268.5V124H266.5V122H262.5V120H268.5V118ZM308.5 128H310.5V120H312.5V118H306.5V120H308.5V128ZM328.5 125.92V120.08H324.5V125.92H328.5ZM274.5 125.92V120.08H278.5V125.92H274.5ZM242 130.5V122.5H241V130.5H234V115.5H251V122.5H249V130.5H242ZM246.5 120H248.5V118H242.5V120H244.5V128H246.5V120ZM212.5 126H208.5V124H212.5V122H208.5V120H212.5V118H206.5V128H212.5V126ZM225 115.5V117.5H227V128.5H225V130.5H204V128.5H203V130.5H180V128.5H179V130.5H168V126.5H159V130.5H152V128.5H151V130.5H144V128.5H143V130.5H134V128.5H132V122.5H131V130.5H124V122.5H123V128.5H121V130.5H110V128.5H109V130.5H100V128.5H97V130.5H88V128.5H87V130.5H74V115.5H87V117.5H88V115.5H97V117.5H98V115.5H111V117.5H112V115.5H133V117.5H134V115.5H143V117.5H144V115.5H151V117.5H152V115.5H159V119.5H168V115.5H179V117.5H182V115.5H191V117.5H194V115.5H225ZM202.5 118H196.5V120H194.5V122H196.5V124H200.5V126H194.5V128H200.5V126H202.5V124H200.5V122H196.5V120H202.5V118ZM148.5 120V118H146.5V128H148.5V122H150.5V124H152.5V126H154.5V128H156.5V118H154.5V124H152.5V122H150.5V120H148.5ZM120.5 118H114.5V120H112.5V122H114.5V124H118.5V126H112.5V128H118.5V126H120.5V124H118.5V122H114.5V120H120.5V118ZM102.5 118H100.5V126H102.5V128H106.5V126H108.5V118H106.5V126H102.5V118ZM78.5 118H76.5V128H78.5V124H82.5V128H84.5V118H82.5V122H78.5V118ZM126.5 128H128.5V120H130.5V118H124.5V120H126.5V128ZM178.5 120H176.5V118H170.5V128H176.5V126H178.5V120ZM176.42 126V124H172.5V126H176.42ZM176.42 122V120H172.5V122H176.42ZM222.42 120H218.5V126H222.42V120ZM184.5 124V128H182.5V120H184.5V118H188.5V120H190.5V128H188.5V124H184.5ZM184.5 120.08V122H188.5V120.08H184.5ZM140.5 125.92V120.08H136.5V125.92H140.5ZM94.5 125.92V120.08H90.5V125.92H94.5ZM316.5 118V128H318.5V118H316.5ZM236.5 118V128H238.5V118H236.5ZM160.5 124V122H166.5V124H160.5ZM90.5 128V126H88.5V120H90.5V118H94.5V120H96.5V126H94.5V128H90.5ZM136.5 128V126H134.5V120H136.5V118H140.5V120H142.5V126H140.5V128H136.5ZM216.5 128H222.5V126H224.5V120H222.5V118H216.5V128ZM274.5 126V128H278.5V126H280.5V120H278.5V118H274.5V120H272.5V126H274.5ZM324.5 128V126H322.5V120H324.5V118H328.5V120H330.5V126H328.5V128H324.5Z" fill="#F2F2F2"/>
<path d="M364.354 9.62018C364.543 8.79327 366.457 8.79327 366.646 9.62018C367.766 14.5121 369.84 20.968 373.436 24.5642C377.032 28.1604 383.488 30.2343 388.38 31.3535C389.207 31.5427 389.207 33.4573 388.38 33.6465C383.488 34.7657 377.032 36.8396 373.436 40.4358C369.84 44.032 367.766 50.4879 366.646 55.3798C366.457 56.2067 364.543 56.2067 364.354 55.3798C363.234 50.4879 361.16 44.032 357.564 40.4358C353.968 36.8396 347.512 34.7657 342.62 33.6465C341.793 33.4573 341.793 31.5427 342.62 31.3535C347.512 30.2343 353.968 28.1604 357.564 24.5642C361.16 20.968 363.234 14.5121 364.354 9.62018Z" fill="#546E70"/>
<path d="M397.463 0.435443C397.552 -0.145148 398.448 -0.145148 398.537 0.435444C399.061 3.87022 400.031 8.40303 401.715 10.928C403.398 13.453 406.42 14.9092 408.71 15.695C409.097 15.8279 409.097 17.1721 408.71 17.305C406.42 18.0908 403.398 19.547 401.715 22.072C400.031 24.597 399.061 29.1298 398.537 32.5646C398.448 33.1451 397.552 33.1451 397.463 32.5646C396.939 29.1298 395.969 24.597 394.285 22.072C392.602 19.547 389.58 18.0908 387.29 17.305C386.903 17.1721 386.903 15.8279 387.29 15.695C389.58 14.9092 392.602 13.453 394.285 10.928C395.969 8.40303 396.939 3.87022 397.463 0.435443Z" fill="#A3D2D5"/>
<defs>
<clipPath id="clip0_2_502">
<rect x="221.641" y="136.307" width="143.658" height="61.2496" rx="30.6248" transform="rotate(-152.126 221.641 136.307)" fill="white"/>
</clipPath>
</defs>
</svg>
