<svg width="418" height="182" viewBox="0 0 418 182" fill="none" xmlns="http://www.w3.org/2000/svg">
<path d="M25.8902 140.67C25.9908 141.11 27.0092 141.11 27.1098 140.67C27.7051 138.068 28.8083 134.634 30.7212 132.721C32.6341 130.808 36.068 129.705 38.6701 129.11C39.11 129.009 39.11 127.991 38.6701 127.89C36.068 127.295 32.6341 126.192 30.7212 124.279C28.8083 122.366 27.7051 118.932 27.1098 116.33C27.0092 115.89 25.9908 115.89 25.8902 116.33C25.2949 118.932 24.1917 122.366 22.2788 124.279C20.3659 126.192 16.932 127.295 14.3299 127.89C13.89 127.991 13.89 129.009 14.3299 129.11C16.932 129.705 20.3659 130.808 22.2788 132.721C24.1917 134.634 25.2949 138.068 25.8902 140.67Z" fill="#7EC384"/>
<path d="M50.8902 159.499C50.9908 160.167 52.0092 160.167 52.1098 159.499C52.7051 155.543 53.8083 150.324 55.7212 147.416C57.6341 144.509 61.068 142.832 63.6701 141.927C64.11 141.774 64.11 140.226 63.6701 140.073C61.068 139.168 57.6341 137.491 55.7212 134.584C53.8083 131.676 52.7051 126.457 52.1098 122.501C52.0092 121.833 50.9908 121.833 50.8902 122.501C50.2949 126.457 49.1917 131.676 47.2788 134.584C45.3659 137.491 41.932 139.168 39.3299 140.073C38.89 140.226 38.89 141.774 39.3299 141.927C41.932 142.832 45.3659 144.509 47.2788 147.416C49.1917 150.324 50.2949 155.543 50.8902 159.499Z" fill="#3F7856"/>
<path d="M174.085 88.0688C238.387 42.1953 308.795 9.00023 330.817 14.6207C347.569 18.8962 318.355 52.387 318.355 52.387C318.355 52.387 334.032 26.6057 318.355 23.9354C302.678 21.2652 241.475 44.328 177.636 89.8707C113.798 135.413 88.524 167.026 110.031 172.516C123.698 176.004 186.391 149.33 186.391 149.33C186.391 149.33 111.042 185.429 96.5685 181.735C74.5468 176.114 109.783 133.942 174.085 88.0688Z" fill="#A3D2D5"/>
<path d="M315.682 151.928C307.775 166.88 289.244 172.59 274.293 164.682L120.722 83.4612C105.771 75.5537 100.061 57.023 107.968 42.0717V42.0717C115.876 27.1204 134.406 21.4103 149.358 29.3178L302.928 110.539C317.88 118.446 323.59 136.977 315.682 151.928V151.928Z" fill="#A3D2D5"/>
<path fill-rule="evenodd" clip-rule="evenodd" d="M273.358 166.45L119.787 85.2292C103.859 76.8053 97.7764 57.0644 106.2 41.1367C114.624 25.209 134.365 19.1259 150.293 27.5498L303.863 108.771C319.791 117.195 325.874 136.936 317.45 152.863C309.026 168.791 289.285 174.874 273.358 166.45ZM274.293 164.682C289.244 172.59 307.775 166.88 315.682 151.928C323.59 136.977 317.88 118.446 302.928 110.539L149.358 29.3178C134.406 21.4103 115.876 27.1204 107.968 42.0717C100.061 57.023 105.771 75.5537 120.722 83.4612L274.293 164.682Z" fill="#A3D2D5"/>
<g clip-path="url(#clip0_2_432)">
<rect x="220.641" y="136.307" width="143.658" height="61.2496" rx="30.6248" transform="rotate(-152.126 220.641 136.307)" fill="white"/>
<path fill-rule="evenodd" clip-rule="evenodd" d="M222.216 105.467C216.471 115.432 206.851 122.329 195.219 125.381L194.966 124.413C206.368 121.422 215.753 114.677 221.349 104.967C226.945 95.2597 228.78 82.5427 224.997 67.5606L225.966 67.3158C229.803 82.5083 227.961 95.4992 222.216 105.467ZM206.714 97.2678C200.969 107.233 191.349 114.13 179.717 117.182L179.464 116.215C190.866 113.223 200.251 106.478 205.847 96.7684C211.443 87.0609 213.278 74.344 209.495 59.3619L210.464 59.117C214.301 74.3095 212.459 87.3004 206.714 97.2678ZM188.111 87.4292C182.367 97.3948 172.747 104.291 161.115 107.343L160.861 106.376C172.263 103.384 181.648 96.6391 187.245 86.9298C192.84 77.2223 194.676 64.5053 190.892 49.5232L191.862 49.2784C195.698 64.4709 193.856 77.4618 188.111 87.4292Z" fill="#A3D2D5"/>
<path fill-rule="evenodd" clip-rule="evenodd" d="M118.181 50.4444C113.177 60.8015 112.891 72.6349 116.916 83.9671L117.858 83.6324C113.913 72.5239 114.206 60.9703 119.082 50.8794C123.956 40.7905 133.434 32.1158 147.948 26.8106L147.604 25.8714C132.887 31.2511 123.186 40.0854 118.181 50.4444ZM133.683 58.6431C128.679 69.0003 128.393 80.8336 132.418 92.1658L133.36 91.8311C129.415 80.7226 129.708 69.169 134.584 59.0782C139.458 48.9892 148.936 40.3145 163.45 35.0093L163.106 34.0701C148.389 39.4498 138.688 48.2841 133.683 58.6431ZM152.286 68.4818C147.282 78.8389 146.996 90.6723 151.02 102.004L151.963 101.67C148.018 90.5613 148.311 79.0077 153.186 68.9168C158.061 58.8279 167.539 50.1532 182.052 44.848L181.709 43.9088C166.992 49.2885 157.291 58.1228 152.286 68.4818Z" fill="#A3D2D5"/>
<path fill-rule="evenodd" clip-rule="evenodd" d="M90.5192 52.2254C135.83 66.2226 205.992 103.101 239.443 130.991L238.803 131.759C205.465 103.963 135.425 67.1438 90.2241 53.1808L90.5192 52.2254ZM97.0646 39.8496C142.376 53.8469 212.537 90.725 245.988 118.615L245.348 119.384C212.01 91.5876 141.97 54.7681 96.7694 40.8051L97.0646 39.8496ZM103.376 27.9159C148.687 41.9131 218.849 78.7913 252.3 106.682L251.66 107.45C218.321 79.6539 148.281 42.8343 103.081 28.8713L103.376 27.9159Z" fill="#A3D2D5"/>
</g>
<path d="M17.1221 94H4.16211L12.2621 55.9H25.2821L17.1221 94ZM60.2724 60.46H50.6124L43.4724 94H30.5124L37.6524 60.46H28.1124L29.1924 55.9H61.2924L60.2724 60.46ZM86.2932 77.56C87.4932 77.56 88.4932 77.06 89.2932 76.06C90.1332 75.06 90.8132 73.84 91.3332 72.4C91.8932 70.96 92.2932 69.46 92.5332 67.9C92.7732 66.34 92.8932 64.98 92.8932 63.82C92.8932 62.74 92.7132 61.84 92.3532 61.12C91.9932 60.36 91.2132 59.98 90.0132 59.98H87.3132L83.5332 77.56H86.2932ZM82.6932 81.4L79.9932 94H67.0332L75.1332 55.9H88.9932C91.2732 55.9 93.3532 56.02 95.2332 56.26C97.1132 56.5 98.7332 56.98 100.093 57.7C101.453 58.42 102.513 59.46 103.273 60.82C104.033 62.14 104.413 63.92 104.413 66.16C104.413 68.24 104.073 70.22 103.393 72.1C102.753 73.94 101.693 75.56 100.213 76.96C98.7732 78.32 96.8932 79.4 94.5732 80.2C92.2532 81 89.4332 81.4 86.1132 81.4H82.6932ZM107.87 68.2H117.65L118.55 72.7H118.97C119.89 71.26 121.07 70.04 122.51 69.04C123.95 68.04 125.85 67.54 128.21 67.54C128.37 67.54 128.61 67.56 128.93 67.6C129.29 67.6 129.67 67.66 130.07 67.78C130.51 67.86 130.95 68 131.39 68.2C131.87 68.36 132.33 68.6 132.77 68.92L130.13 81.28H123.59C123.51 78.8 123.29 77.08 122.93 76.12C122.57 75.12 121.99 74.62 121.19 74.62C120.79 74.62 120.35 74.72 119.87 74.92C119.43 75.08 118.97 75.46 118.49 76.06L114.65 94H102.41L107.87 68.2ZM145.094 81.94C144.934 82.82 144.814 83.66 144.734 84.46C144.694 85.26 144.674 85.98 144.674 86.62C144.674 86.98 144.694 87.38 144.734 87.82C144.774 88.26 144.854 88.68 144.974 89.08C145.134 89.44 145.334 89.76 145.574 90.04C145.854 90.28 146.234 90.4 146.714 90.4C147.074 90.4 147.474 90.28 147.914 90.04C148.394 89.8 148.854 89.46 149.294 89.02C149.774 88.58 150.214 88.04 150.614 87.4C151.054 86.76 151.394 86.04 151.634 85.24H161.474L159.914 91.66C159.114 92.18 158.194 92.62 157.154 92.98C156.114 93.34 155.014 93.64 153.854 93.88C152.694 94.08 151.514 94.22 150.314 94.3C149.114 94.42 147.974 94.48 146.894 94.48C144.894 94.48 143.034 94.3 141.314 93.94C139.594 93.58 138.094 92.96 136.814 92.08C135.534 91.2 134.514 90.04 133.754 88.6C133.034 87.12 132.674 85.3 132.674 83.14C132.674 81.18 132.974 79.26 133.574 77.38C134.214 75.5 135.254 73.84 136.694 72.4C138.174 70.92 140.134 69.74 142.574 68.86C145.054 67.98 148.134 67.54 151.814 67.54C155.814 67.54 158.814 68.16 160.814 69.4C162.854 70.64 163.874 72.58 163.874 75.22C163.874 76.3 163.714 77.48 163.394 78.76C163.074 80 162.594 81.06 161.954 81.94H145.094ZM153.074 74.8C153.074 73.56 152.874 72.72 152.474 72.28C152.074 71.84 151.594 71.62 151.034 71.62C150.394 71.62 149.794 71.84 149.234 72.28C148.714 72.68 148.234 73.24 147.794 73.96C147.354 74.64 146.954 75.44 146.594 76.36C146.234 77.24 145.934 78.18 145.694 79.18H152.534C152.614 78.7 152.694 78.2 152.774 77.68C152.854 77.24 152.914 76.76 152.954 76.24C153.034 75.72 153.074 75.24 153.074 74.8ZM183.246 75.76C183.286 75.56 183.326 75.36 183.366 75.16C183.406 74.96 183.426 74.74 183.426 74.5C183.426 73.78 183.286 73.12 183.006 72.52C182.766 71.88 182.266 71.56 181.506 71.56C180.826 71.56 180.146 71.86 179.466 72.46C178.786 73.02 178.446 73.78 178.446 74.74C178.446 75.38 178.606 75.9 178.926 76.3C179.286 76.66 179.746 76.96 180.306 77.2C180.866 77.44 181.486 77.64 182.166 77.8C182.886 77.96 183.586 78.12 184.266 78.28C185.226 78.52 186.126 78.82 186.966 79.18C187.846 79.5 188.626 79.94 189.306 80.5C189.986 81.06 190.526 81.76 190.926 82.6C191.326 83.4 191.526 84.4 191.526 85.6C191.526 87.28 191.126 88.7 190.326 89.86C189.566 90.98 188.486 91.9 187.086 92.62C185.726 93.3 184.106 93.78 182.226 94.06C180.386 94.34 178.406 94.48 176.286 94.48C173.046 94.48 170.366 94.24 168.246 93.76C166.126 93.28 164.646 92.82 163.806 92.38L165.066 86.38H173.166C173.126 86.58 173.106 86.78 173.106 86.98C173.106 87.14 173.106 87.32 173.106 87.52C173.106 88.44 173.306 89.18 173.706 89.74C174.146 90.26 174.886 90.52 175.926 90.52C177.086 90.52 177.906 90.2 178.386 89.56C178.906 88.88 179.166 88.26 179.166 87.7C179.166 87.14 178.946 86.66 178.506 86.26C178.106 85.82 177.586 85.46 176.946 85.18C176.306 84.86 175.586 84.6 174.786 84.4C174.026 84.16 173.286 83.94 172.566 83.74C172.046 83.62 171.446 83.42 170.766 83.14C170.126 82.86 169.506 82.46 168.906 81.94C168.306 81.42 167.806 80.76 167.406 79.96C167.006 79.12 166.806 78.08 166.806 76.84C166.806 75.08 167.226 73.62 168.066 72.46C168.946 71.26 170.066 70.3 171.426 69.58C172.826 68.86 174.386 68.34 176.106 68.02C177.866 67.7 179.626 67.54 181.386 67.54C183.586 67.54 185.666 67.74 187.626 68.14C189.586 68.54 191.186 69.06 192.426 69.7L191.046 75.76H183.246ZM220.47 92.56C218.79 93.24 217.01 93.72 215.13 94C213.29 94.32 211.19 94.48 208.83 94.48C206.75 94.48 204.83 94.28 203.07 93.88C201.35 93.44 199.85 92.76 198.57 91.84C197.29 90.92 196.29 89.74 195.57 88.3C194.85 86.82 194.49 85.04 194.49 82.96C194.49 80.8 194.85 78.8 195.57 76.96C196.33 75.08 197.45 73.44 198.93 72.04C200.45 70.64 202.37 69.54 204.69 68.74C207.01 67.94 209.77 67.54 212.97 67.54C215.57 67.54 217.83 67.76 219.75 68.2C221.67 68.6 223.25 69.54 224.49 71.02L222.81 78.7H214.65C214.69 78.02 214.73 77.42 214.77 76.9C214.81 76.38 214.83 75.8 214.83 75.16C214.83 73.88 214.69 72.98 214.41 72.46C214.13 71.9 213.67 71.62 213.03 71.62C211.91 71.62 210.93 72.18 210.09 73.3C209.25 74.38 208.55 75.7 207.99 77.26C207.47 78.78 207.07 80.4 206.79 82.12C206.55 83.8 206.43 85.24 206.43 86.44C206.43 86.88 206.45 87.34 206.49 87.82C206.53 88.26 206.61 88.68 206.73 89.08C206.89 89.48 207.09 89.8 207.33 90.04C207.57 90.28 207.91 90.4 208.35 90.4C208.75 90.4 209.21 90.28 209.73 90.04C210.25 89.8 210.75 89.44 211.23 88.96C211.71 88.44 212.17 87.78 212.61 86.98C213.05 86.18 213.39 85.22 213.63 84.1H222.21L220.47 92.56ZM229.979 68.2H239.759L240.659 72.7H241.079C241.999 71.26 243.179 70.04 244.619 69.04C246.059 68.04 247.959 67.54 250.319 67.54C250.479 67.54 250.719 67.56 251.039 67.6C251.399 67.6 251.779 67.66 252.179 67.78C252.619 67.86 253.059 68 253.499 68.2C253.979 68.36 254.439 68.6 254.879 68.92L252.239 81.28H245.699C245.619 78.8 245.399 77.08 245.039 76.12C244.679 75.12 244.099 74.62 243.299 74.62C242.899 74.62 242.459 74.72 241.979 74.92C241.539 75.08 241.079 75.46 240.599 76.06L236.759 94H224.519L229.979 68.2ZM265.703 94H253.523L258.983 68.2H271.283L265.703 94ZM272.843 60.34C272.843 61.26 272.643 62.06 272.243 62.74C271.883 63.42 271.383 64 270.743 64.48C270.143 64.96 269.443 65.32 268.643 65.56C267.843 65.8 267.023 65.92 266.183 65.92C264.583 65.92 263.243 65.54 262.163 64.78C261.083 64.02 260.543 62.82 260.543 61.18C260.543 60.3 260.723 59.52 261.083 58.84C261.443 58.12 261.923 57.54 262.523 57.1C263.163 56.62 263.883 56.26 264.683 56.02C265.523 55.78 266.383 55.66 267.263 55.66C268.823 55.66 270.143 56.04 271.223 56.8C272.303 57.56 272.843 58.74 272.843 60.34ZM281.181 104.08H268.941L276.501 68.2H286.281L287.361 72.04H287.721C289.161 70.52 290.761 69.44 292.521 68.8C294.321 68.12 296.081 67.78 297.801 67.78C299.201 67.78 300.361 68 301.281 68.44C302.241 68.84 303.001 69.4 303.561 70.12C304.121 70.84 304.521 71.7 304.761 72.7C305.001 73.7 305.121 74.76 305.121 75.88C305.121 76.44 305.081 77.28 305.001 78.4C304.921 79.52 304.741 80.78 304.461 82.18C304.181 83.54 303.781 84.96 303.261 86.44C302.741 87.88 302.041 89.2 301.161 90.4C300.321 91.6 299.241 92.58 297.921 93.34C296.641 94.1 295.101 94.48 293.301 94.48C292.301 94.48 291.321 94.36 290.361 94.12C289.441 93.88 288.601 93.56 287.841 93.16C287.081 92.76 286.401 92.3 285.801 91.78C285.241 91.22 284.821 90.66 284.541 90.1H284.181L281.181 104.08ZM287.541 88.66C288.501 88.66 289.301 88.16 289.941 87.16C290.581 86.12 291.101 84.92 291.501 83.56C291.901 82.16 292.181 80.78 292.341 79.42C292.541 78.02 292.641 76.98 292.641 76.3C292.641 75.5 292.501 74.84 292.221 74.32C291.981 73.8 291.521 73.54 290.841 73.54C290.081 73.54 289.361 73.82 288.681 74.38C288.001 74.9 287.501 75.36 287.181 75.76L284.841 86.74C285.161 87.18 285.541 87.62 285.981 88.06C286.421 88.46 286.941 88.66 287.541 88.66ZM308.856 68.2C310.336 67.88 311.636 67.52 312.756 67.12C313.876 66.72 314.896 66.22 315.816 65.62C316.776 65.02 317.676 64.28 318.516 63.4C319.396 62.52 320.336 61.44 321.336 60.16H327.516L325.776 68.2H330.456L329.676 72.22H324.936L322.476 83.92C322.276 84.84 322.116 85.66 321.996 86.38C321.876 87.1 321.816 87.66 321.816 88.06C321.816 88.86 322.096 89.36 322.656 89.56C323.256 89.76 324.356 89.86 325.956 89.86L325.056 94C324.776 94.08 324.336 94.14 323.736 94.18C323.176 94.22 322.536 94.26 321.816 94.3C321.136 94.38 320.416 94.42 319.656 94.42C318.936 94.46 318.296 94.48 317.736 94.48C316.736 94.48 315.756 94.4 314.796 94.24C313.836 94.12 312.976 93.86 312.216 93.46C311.456 93.02 310.836 92.4 310.356 91.6C309.916 90.8 309.696 89.72 309.696 88.36C309.696 87.88 309.716 87.28 309.756 86.56C309.836 85.84 309.976 85.04 310.176 84.16L312.696 72.22H308.016L308.856 68.2ZM341.172 94H328.992L334.452 68.2H346.752L341.172 94ZM348.312 60.34C348.312 61.26 348.112 62.06 347.712 62.74C347.352 63.42 346.852 64 346.212 64.48C345.612 64.96 344.912 65.32 344.112 65.56C343.312 65.8 342.492 65.92 341.652 65.92C340.052 65.92 338.712 65.54 337.632 64.78C336.552 64.02 336.012 62.82 336.012 61.18C336.012 60.3 336.192 59.52 336.552 58.84C336.912 58.12 337.392 57.54 337.992 57.1C338.632 56.62 339.352 56.26 340.152 56.02C340.992 55.78 341.852 55.66 342.732 55.66C344.292 55.66 345.612 56.04 346.692 56.8C347.772 57.56 348.312 58.74 348.312 60.34ZM366.07 67.54C370.83 67.54 374.29 68.38 376.45 70.06C378.73 71.82 379.87 74.74 379.87 78.82C379.87 81.34 379.45 83.62 378.61 85.66C377.77 87.66 376.59 89.32 375.07 90.64C372.03 93.2 367.63 94.48 361.87 94.48C356.95 94.48 353.43 93.54 351.31 91.66C349.03 89.7 347.89 86.76 347.89 82.84C347.89 80.24 348.41 77.88 349.45 75.76C350.53 73.64 352.07 71.88 354.07 70.48C356.99 68.52 360.99 67.54 366.07 67.54ZM361.99 90.4C362.99 90.4 363.85 89.84 364.57 88.72C365.33 87.6 365.93 86.24 366.37 84.64C366.81 83 367.13 81.32 367.33 79.6C367.57 77.84 367.69 76.32 367.69 75.04C367.69 73.92 367.57 73.08 367.33 72.52C367.13 71.92 366.67 71.62 365.95 71.62C364.87 71.62 363.93 72.2 363.13 73.36C362.37 74.52 361.75 75.9 361.27 77.5C360.79 79.1 360.43 80.74 360.19 82.42C359.99 84.1 359.89 85.46 359.89 86.5C359.89 89.1 360.59 90.4 361.99 90.4ZM397.762 72.04C398.602 71.24 399.542 70.5 400.582 69.82C401.502 69.26 402.582 68.74 403.822 68.26C405.062 67.78 406.442 67.54 407.962 67.54C410.042 67.54 411.762 68.08 413.122 69.16C414.482 70.2 415.162 71.64 415.162 73.48C415.162 74 415.102 74.64 414.982 75.4C414.862 76.12 414.722 76.88 414.562 77.68C414.402 78.48 414.222 79.3 414.022 80.14C413.862 80.94 413.722 81.66 413.602 82.3L411.082 94H398.902L402.202 78.34C402.282 77.82 402.382 77.3 402.502 76.78C402.622 76.22 402.682 75.72 402.682 75.28C402.682 74.68 402.522 74.2 402.202 73.84C401.922 73.44 401.482 73.24 400.882 73.24C400.162 73.24 399.462 73.5 398.782 74.02C398.142 74.54 397.642 74.98 397.282 75.34L393.322 94H381.082L386.542 68.2H396.322L397.402 72.04H397.762Z" fill="#45625D"/>
<path d="M73 128V118H75V122H79V118H81V128H79V124H75V128H73ZM87 128V126H85V120H87V118H91V120H93V126H91V128H87ZM87 125.92H91V120.08H87V125.92ZM99 128V126H97V118H99V126H103V128H99ZM103 126V118H105V126H103ZM111 120V118H117V120H111ZM115 126V124H111V122H109V120H111V122H115V124H117V126H115ZM109 128V126H115V128H109ZM123 128V120H121V118H127V120H125V128H123ZM133 128V126H131V120H133V118H137V120H139V126H137V128H133ZM133 125.92H137V120.08H133V125.92ZM143 128V118H145V120H147V122H149V124H151V118H153V128H151V126H149V124H147V122H145V128H143ZM157 124V122H163V124H157ZM167 128V118H173V120H175V126H173V128H167ZM169 122H172.92V120H169V122ZM169 126H172.92V124H169V126ZM179 128V120H181V118H185V120H187V128H185V124H181V128H179ZM181 122H185V120.08H181V122ZM193 120V118H199V120H193ZM197 126V124H193V122H191V120H193V122H197V124H199V126H197ZM191 128V126H197V128H191ZM203 128V118H209V120H205V122H209V124H205V126H209V128H203ZM213 128V118H219V120H221V126H219V128H213ZM215 126H218.92V120H215V126ZM233 128V118H235V128H233ZM241 128V120H239V118H245V120H243V128H241ZM259 120V118H265V120H259ZM263 126V124H259V122H257V120H259V122H263V124H265V126H263ZM257 128V126H263V128H257ZM271 128V126H269V120H271V118H275V120H277V126H275V128H271ZM271 125.92H275V120.08H271V125.92ZM281 128V118H283V126H287V128H281ZM293 128V126H291V118H293V126H297V128H293ZM297 126V118H299V126H297ZM305 128V120H303V118H309V120H307V128H305ZM313 128V118H315V128H313ZM321 128V126H319V120H321V118H325V120H327V126H325V128H321ZM321 125.92H325V120.08H321V125.92ZM331 128V118H333V120H335V122H337V124H339V118H341V128H339V126H337V124H335V122H333V128H331ZM347 120V118H353V120H347ZM351 126V124H347V122H345V120H347V122H351V124H353V126H351ZM345 128V126H351V128H345Z" fill="#3F7856"/>
<path d="M362.354 14.6202C362.543 13.7933 364.457 13.7933 364.646 14.6202C365.766 19.5121 367.84 25.968 371.436 29.5642C375.032 33.1604 381.488 35.2343 386.38 36.3535C387.207 36.5427 387.207 38.4573 386.38 38.6465C381.488 39.7657 375.032 41.8396 371.436 45.4358C367.84 49.032 365.766 55.4879 364.646 60.3798C364.457 61.2067 362.543 61.2067 362.354 60.3798C361.234 55.4879 359.16 49.032 355.564 45.4358C351.968 41.8396 345.512 39.7657 340.62 38.6465C339.793 38.4573 339.793 36.5427 340.62 36.3535C345.512 35.2343 351.968 33.1604 355.564 29.5642C359.16 25.968 361.234 19.5121 362.354 14.6202Z" fill="#546E70"/>
<path d="M395.463 5.43544C395.552 4.85485 396.448 4.85485 396.537 5.43544C397.061 8.87022 398.031 13.403 399.715 15.928C401.398 18.453 404.42 19.9092 406.71 20.695C407.097 20.8279 407.097 22.1721 406.71 22.305C404.42 23.0908 401.398 24.547 399.715 27.072C398.031 29.597 397.061 34.1298 396.537 37.5646C396.448 38.1451 395.552 38.1451 395.463 37.5646C394.939 34.1298 393.969 29.597 392.285 27.072C390.602 24.547 387.58 23.0908 385.29 22.305C384.903 22.1721 384.903 20.8279 385.29 20.695C387.58 19.9092 390.602 18.453 392.285 15.928C393.969 13.403 394.939 8.87022 395.463 5.43544Z" fill="#A3D2D5"/>
<defs>
<clipPath id="clip0_2_432">
<rect x="220.641" y="136.307" width="143.658" height="61.2496" rx="30.6248" transform="rotate(-152.126 220.641 136.307)" fill="white"/>
</clipPath>
</defs>
</svg>
