<svg width="116" height="71" viewBox="0 0 116 71" fill="none" xmlns="http://www.w3.org/2000/svg">
<path fill-rule="evenodd" clip-rule="evenodd" d="M96.6662 2.8672C88.8305 0.649631 63.7783 13.7469 40.8986 31.8464C18.019 49.946 5.48162 66.585 13.3173 68.8026C19.2652 70.4859 35.1335 63.3447 52.4415 51.8895C52.3352 51.8596 52.2311 51.8287 52.1293 51.7967C36.391 61.9941 23.2727 67.1447 17.5572 65.5272C9.90461 63.3614 19.0157 50.1221 41.7303 32.1531C64.4449 14.1841 83.3868 5.0738 91.0394 7.23956C97.3385 9.02228 93.622 17.727 79.442 30.772C79.6307 30.7149 79.8191 30.6583 80.0071 30.6023C95.7016 16.3843 103.142 4.70002 96.6662 2.8672Z" fill="#A3D2D5"/>
<path d="M11.246 47.9266C11.1938 48.1548 11.0296 48.2866 10.8983 48.3515C10.7669 48.4165 10.6243 48.44 10.5 48.44C10.3757 48.44 10.2331 48.4165 10.1017 48.3515C9.97042 48.2866 9.80618 48.1548 9.75397 47.9266C9.60251 47.2646 9.38827 46.5053 9.09435 45.7957C8.79844 45.0813 8.43334 44.4456 7.99385 44.0061C7.55437 43.5667 6.91873 43.2016 6.20429 42.9057C5.49465 42.6117 4.73544 42.3975 4.07341 42.246C3.84523 42.1938 3.71337 42.0296 3.64846 41.8983C3.58349 41.7669 3.56 41.6243 3.56 41.5C3.56 41.3757 3.58349 41.2331 3.64846 41.1017C3.71337 40.9704 3.84523 40.8062 4.07341 40.754C4.73544 40.6025 5.49465 40.3883 6.20429 40.0943C6.91873 39.7984 7.55437 39.4333 7.99385 38.9939C8.43334 38.5544 8.79844 37.9187 9.09435 37.2043C9.38827 36.4946 9.60251 35.7354 9.75397 35.0734C9.80618 34.8452 9.97042 34.7134 10.1017 34.6485C10.2331 34.5835 10.3757 34.56 10.5 34.56C10.6243 34.56 10.7669 34.5835 10.8983 34.6485C11.0296 34.7134 11.1938 34.8452 11.246 35.0734C11.3975 35.7354 11.6117 36.4946 11.9057 37.2043C12.2016 37.9187 12.5667 38.5544 13.0061 38.9939C13.4456 39.4333 14.0813 39.7984 14.7957 40.0943C15.5054 40.3883 16.2646 40.6025 16.9266 40.754C17.1548 40.8062 17.2866 40.9704 17.3515 41.1017C17.4165 41.2331 17.44 41.3757 17.44 41.5C17.44 41.6243 17.4165 41.7669 17.3515 41.8983C17.2866 42.0296 17.1548 42.1938 16.9266 42.246C16.2646 42.3975 15.5054 42.6117 14.7957 42.9057C14.0813 43.2016 13.4456 43.5667 13.0061 44.0061C12.5667 44.4456 12.2016 45.0813 11.9057 45.7957C11.6117 46.5053 11.3975 47.2646 11.246 47.9266Z" fill="#7EC384" stroke="white" stroke-width="0.880002"/>
<path d="M23.2518 56.8173C23.1828 57.2581 22.7959 57.44 22.5 57.44C22.2041 57.44 21.8172 57.2581 21.7482 56.8173C21.595 55.8386 21.3774 54.7106 21.0775 53.6522C20.7756 52.5867 20.3991 51.6248 19.9418 50.9566C19.0316 49.6262 17.3633 48.8259 16.032 48.3808C15.7679 48.2925 15.6642 48.0508 15.6261 47.9381C15.5782 47.7965 15.56 47.6401 15.56 47.5C15.56 47.3599 15.5782 47.2035 15.6261 47.0619C15.6642 46.9492 15.7679 46.7075 16.032 46.6192C17.3633 46.1741 19.0316 45.3738 19.9418 44.0434C20.3991 43.3752 20.7756 42.4133 21.0775 41.3478C21.3774 40.2894 21.595 39.1614 21.7482 38.1827C21.8172 37.7419 22.2041 37.56 22.5 37.56C22.7959 37.56 23.1828 37.7419 23.2518 38.1827C23.405 39.1614 23.6226 40.2894 23.9225 41.3478C24.2244 42.4133 24.6009 43.3752 25.0582 44.0434C25.9684 45.3738 27.6367 46.1741 28.968 46.6192C29.2321 46.7075 29.3358 46.9492 29.3739 47.0619C29.4218 47.2035 29.44 47.3599 29.44 47.5C29.44 47.6401 29.4218 47.7965 29.3739 47.9381C29.3358 48.0508 29.2321 48.2925 28.968 48.3808C27.6367 48.8259 25.9684 49.6262 25.0582 50.9566C24.6009 51.6248 24.2244 52.5867 23.9225 53.6522C23.6226 54.7106 23.405 55.8386 23.2518 56.8173Z" fill="#3F7856" stroke="white" stroke-width="0.880002"/>
<path d="M103.413 20.42C103.305 19.9459 102.964 19.6764 102.703 19.5471C102.441 19.4176 102.161 19.3725 101.921 19.3725C101.682 19.3725 101.402 19.4176 101.14 19.5471C100.879 19.6764 100.538 19.9459 100.43 20.42C100.167 21.5667 99.7971 22.8777 99.2908 24.1002C98.7801 25.3333 98.1562 26.4138 97.4166 27.1534C96.677 27.893 95.5965 28.5168 94.3635 29.0275C93.1409 29.5339 91.8299 29.9041 90.6833 30.1665C90.2092 30.2749 89.9396 30.6154 89.8103 30.8769C89.6808 31.1388 89.6358 31.4185 89.6358 31.6581C89.6358 31.8977 89.6808 32.1775 89.8103 32.4393C89.9396 32.7009 90.2092 33.0413 90.6833 33.1498C91.8299 33.4121 93.1409 33.7824 94.3635 34.2887C95.5965 34.7994 96.677 35.4233 97.4166 36.1629C98.1562 36.9024 98.7801 37.983 99.2908 39.216C99.7971 40.4386 100.167 41.7496 100.43 42.8962C100.538 43.3703 100.879 43.6399 101.14 43.7692C101.402 43.8987 101.682 43.9437 101.921 43.9437C102.161 43.9437 102.441 43.8987 102.703 43.7692C102.964 43.6399 103.305 43.3703 103.413 42.8962C103.675 41.7496 104.046 40.4386 104.552 39.216C105.063 37.983 105.687 36.9024 106.426 36.1629C107.166 35.4233 108.246 34.7994 109.479 34.2887C110.702 33.7824 112.013 33.4121 113.159 33.1498C113.634 33.0413 113.903 32.7009 114.032 32.4393C114.162 32.1775 114.207 31.8977 114.207 31.6581C114.207 31.4185 114.162 31.1388 114.032 30.8769C113.903 30.6154 113.634 30.2749 113.159 30.1665C112.013 29.9041 110.702 29.5339 109.479 29.0275C108.246 28.5168 107.166 27.893 106.426 27.1534C105.687 26.4138 105.063 25.3333 104.552 24.1002C104.046 22.8777 103.675 21.5667 103.413 20.42Z" fill="#A3D2D5" stroke="white" stroke-width="1.92715"/>
<path d="M79.8271 22.6503L80.1399 23.5617L79.8271 22.6503C79.3243 22.8228 79.1609 23.2747 79.1198 23.3992C79.0561 23.5926 79.0364 23.7886 79.0364 23.9495C79.0364 24.1104 79.0561 24.3064 79.1198 24.4998C79.1609 24.6242 79.3243 25.0762 79.8271 25.2487C80.8787 25.6096 82.0789 26.2244 82.7082 27.1685C83.0286 27.649 83.3156 28.3822 83.5562 29.2537C83.7924 30.1092 83.9656 31.0286 84.0886 31.8345C84.1992 32.5597 84.8312 32.8626 85.2997 32.8626C85.7681 32.8626 86.4002 32.5597 86.5108 31.8345C86.6337 31.0286 86.8069 30.1092 87.0431 29.2537C87.2837 28.3822 87.5707 27.649 87.8911 27.1685C88.5204 26.2244 89.7206 25.6096 90.7722 25.2487C91.275 25.0762 91.4385 24.6242 91.4795 24.4998C91.5432 24.3064 91.5629 24.1104 91.5629 23.9495C91.5629 23.7886 91.5432 23.5926 91.4795 23.3992C91.4385 23.2747 91.275 22.8228 90.7722 22.6503C89.7206 22.2894 88.5204 21.6745 87.8911 20.7305C87.5707 20.25 87.2837 19.5167 87.0431 18.6453C86.8069 17.7898 86.6337 16.8704 86.5108 16.0645C86.4002 15.3393 85.7681 15.0364 85.2997 15.0364C84.8312 15.0364 84.1992 15.3393 84.0886 16.0645C83.9656 16.8704 83.7924 17.7898 83.5562 18.6453C83.3156 19.5167 83.0286 20.25 82.7082 20.7305C82.0789 21.6745 80.8787 22.2894 79.8271 22.6503Z" fill="#6AA5A9" stroke="white" stroke-width="1.92715"/>
<path d="M90.8525 56.7345C87.6773 61.9216 80.8982 63.5527 75.7111 60.3775L22.4316 27.7637C17.2444 24.5885 15.6134 17.8094 18.7886 12.6222C21.9638 7.43504 28.7428 5.80402 33.93 8.97923L87.2095 41.593C92.3967 44.7682 94.0277 51.5473 90.8525 56.7345Z" fill="#A3D2D5"/>
<path fill-rule="evenodd" clip-rule="evenodd" d="M75.3356 60.9908L22.0561 28.377C16.5302 24.9945 14.7926 17.7727 18.1752 12.2468C21.5578 6.72082 28.7796 4.98328 34.3055 8.36585L87.585 40.9796C93.1109 44.3622 94.8484 51.584 91.4659 57.1099C88.0833 62.6359 80.8615 64.3734 75.3356 60.9908ZM75.7111 60.3775C80.8982 63.5527 87.6773 61.9216 90.8525 56.7345C94.0277 51.5473 92.3967 44.7682 87.2095 41.593L33.93 8.97922C28.7428 5.80401 21.9638 7.43504 18.7886 12.6222C15.6134 17.8094 17.2444 24.5884 22.4316 27.7637L75.7111 60.3775Z" fill="#A3D2D5"/>
<g clip-path="url(#clip0_2_1679)">
<rect x="57.0974" y="48.9835" width="51.657" height="22.0243" rx="11.0121" transform="rotate(-148.528 57.0974 48.9835)" fill="white"/>
<path fill-rule="evenodd" clip-rule="evenodd" d="M58.3584 37.9513C56.072 41.398 52.464 43.656 48.2207 44.4886L48.1515 44.1358C52.311 43.3196 55.8312 41.1106 58.0588 37.7525C60.286 34.395 61.2316 29.8727 60.2119 24.4106L60.5654 24.3446C61.5994 29.8834 60.6452 34.5039 58.3584 37.9513ZM52.9802 34.6591C50.6938 38.1059 47.0858 40.3638 42.8425 41.1965L42.7732 40.8436C46.9328 40.0274 50.4529 37.8185 52.6805 34.4604C54.9077 31.1029 55.8534 26.5805 54.8337 21.1184L55.1871 21.0524C56.2212 26.5912 55.267 31.2117 52.9802 34.6591ZM46.5262 30.7085C44.2398 34.1552 40.6318 36.4132 36.3885 37.2458L36.3193 36.893C40.4788 36.0768 43.9989 33.8678 46.2266 30.5097C48.4537 27.1522 49.3994 22.6298 48.3797 17.1678L48.7331 17.1018C49.7672 22.6406 48.813 27.2611 46.5262 30.7085Z" fill="#A3D2D5"/>
<path fill-rule="evenodd" clip-rule="evenodd" d="M22.2648 15.8574C20.2353 19.4614 19.8656 23.7016 21.0542 27.8593L21.3999 27.7604C20.2348 23.6849 20.6008 19.5452 22.5782 16.0339C24.5551 12.5232 28.1524 9.62399 33.4806 8.04762L33.3786 7.70282C27.9756 9.30132 24.2948 12.2528 22.2648 15.8574ZM27.6431 19.1496C25.6135 22.7536 25.2438 26.9938 26.4324 31.1514L26.7782 31.0526C25.613 26.977 25.979 22.8373 27.9564 19.326C29.9334 15.8154 33.5307 12.9161 38.8588 11.3398L38.7568 10.995C33.3538 12.5935 29.673 15.5449 27.6431 19.1496ZM34.0971 23.1002C32.0675 26.7042 31.6978 30.9444 32.8864 35.1021L33.2321 35.0033C32.067 30.9277 32.433 26.788 34.4104 23.2767C36.3874 19.766 39.9846 16.8668 45.3128 15.2904L45.2108 14.9456C39.8078 16.5441 36.127 19.4956 34.0971 23.1002Z" fill="#A3D2D5"/>
<path fill-rule="evenodd" clip-rule="evenodd" d="M12.2975 15.8723C28.2426 21.9181 52.5894 36.7361 63.9648 47.5002L63.7177 47.7614C52.3808 37.0338 28.0761 22.2396 12.17 16.2085L12.2975 15.8723ZM14.9257 11.5787C30.8708 17.6245 55.2176 32.4425 66.5931 43.2066L66.3459 43.4677C55.009 32.7401 30.7044 17.9459 14.7982 11.9149L14.9257 11.5787ZM17.4601 7.43842C33.4052 13.4842 57.752 28.3022 69.1274 39.0663L68.8803 39.3275C57.5434 28.5999 33.2387 13.8057 17.3326 7.77465L17.4601 7.43842Z" fill="#A3D2D5"/>
</g>
<defs>
<clipPath id="clip0_2_1679">
<rect x="57.0974" y="48.9835" width="51.657" height="22.0243" rx="11.0121" transform="rotate(-148.528 57.0974 48.9835)" fill="white"/>
</clipPath>
</defs>
</svg>
