<svg width="523" height="96" viewBox="0 0 523 96" fill="none" xmlns="http://www.w3.org/2000/svg">
<path fill-rule="evenodd" clip-rule="evenodd" d="M96.6662 19.5035C88.8305 17.286 63.7782 30.3832 40.8986 48.4827C18.019 66.5823 5.48162 83.2214 13.3173 85.4389C19.2652 87.1222 35.1335 79.981 52.4415 68.5258C52.3352 68.496 52.2311 68.465 52.1293 68.433C36.391 78.6304 23.2727 83.781 17.5572 82.1635C9.90461 79.9977 19.0157 66.7585 41.7303 48.7895C64.4449 30.8204 83.3868 21.7101 91.0394 23.8759C97.3385 25.6586 93.622 34.3634 79.442 47.4084C79.6307 47.3512 79.819 47.2946 80.0071 47.2386C95.7016 33.0206 103.142 21.3363 96.6662 19.5035Z" fill="#A3D2D5"/>
<path d="M27.6057 78.6894C27.536 78.994 27.3171 79.168 27.1472 79.252C26.977 79.3361 26.7945 79.3657 26.6375 79.3657C26.4804 79.3657 26.2979 79.3361 26.1278 79.252C25.9579 79.168 25.739 78.994 25.6693 78.6894C25.492 77.9146 25.2417 77.028 24.899 76.2006C24.5536 75.3666 24.1303 74.6324 23.6263 74.1284C23.1223 73.6244 22.3881 73.2011 21.5541 72.8557C20.7267 72.513 19.8401 72.2627 19.0653 72.0854C18.7607 72.0157 18.5867 71.7968 18.5027 71.6269C18.4186 71.4568 18.389 71.2743 18.389 71.1172C18.389 70.9602 18.4186 70.7777 18.5027 70.6075C18.5867 70.4376 18.7607 70.2187 19.0653 70.149C19.8401 69.9718 20.7267 69.7214 21.5541 69.3787C22.3881 69.0333 23.1223 68.6101 23.6263 68.106C24.1303 67.602 24.5536 66.8678 24.899 66.0338C25.2417 65.2064 25.492 64.3198 25.6693 63.545C25.739 63.2404 25.9579 63.0664 26.1278 62.9824C26.2979 62.8983 26.4804 62.8687 26.6375 62.8687C26.7945 62.8687 26.977 62.8983 27.1472 62.9824C27.3171 63.0664 27.536 63.2404 27.6057 63.545C27.7829 64.3198 28.0333 65.2064 28.376 66.0338C28.7214 66.8678 29.1446 67.602 29.6487 68.106C30.1527 68.6101 30.8869 69.0333 31.7209 69.3787C32.5483 69.7214 33.4349 69.9718 34.2097 70.149C34.5143 70.2187 34.6883 70.4376 34.7723 70.6075C34.8564 70.7777 34.886 70.9602 34.886 71.1172C34.886 71.2743 34.8564 71.4568 34.7723 71.6269C34.6883 71.7968 34.5143 72.0157 34.2097 72.0854C33.4349 72.2627 32.5483 72.513 31.7209 72.8557C30.8869 73.2011 30.1527 73.6244 29.6487 74.1284C29.1446 74.6324 28.7214 75.3666 28.376 76.2006C28.0333 77.028 27.7829 77.9146 27.6057 78.6894Z" fill="#7EC384" stroke="white" stroke-width="1.222"/>
<path d="M42.8892 90.1483C42.8033 90.7191 42.3118 90.9747 41.9124 90.9747C41.513 90.9747 41.0215 90.7191 40.9356 90.1483C40.7557 88.9534 40.5005 87.5772 40.1489 86.2868C39.7945 84.9862 39.3541 83.8184 38.8228 83.0108C37.7681 81.4078 35.8317 80.4393 34.2758 79.8982C33.9184 79.7739 33.7881 79.4416 33.7443 79.3068C33.6856 79.1266 33.6639 78.9296 33.6639 78.7547C33.6639 78.5799 33.6856 78.3829 33.7443 78.2027C33.7881 78.0678 33.9184 77.7356 34.2758 77.6113C35.8317 77.0702 37.7681 76.1017 38.8228 74.4986C39.3541 73.6911 39.7945 72.5233 40.1489 71.2227C40.5005 69.9323 40.7557 68.5561 40.9356 67.3612C41.0215 66.7904 41.513 66.5348 41.9124 66.5348C42.3118 66.5348 42.8033 66.7904 42.8892 67.3612C43.069 68.5561 43.3242 69.9323 43.6759 71.2227C44.0303 72.5233 44.4707 73.6911 45.002 74.4986C46.0566 76.1017 47.9931 77.0702 49.549 77.6113C49.9063 77.7356 50.0367 78.0678 50.0805 78.2027C50.1391 78.3829 50.1609 78.5799 50.1609 78.7547C50.1609 78.9296 50.1391 79.1266 50.0805 79.3068C50.0367 79.4416 49.9063 79.7739 49.549 79.8982C47.9931 80.4393 46.0566 81.4078 45.002 83.0108C44.4707 83.8184 44.0303 84.9862 43.6759 86.2868C43.3242 87.5772 43.069 88.9534 42.8892 90.1483Z" fill="#3F7856" stroke="white" stroke-width="1.222"/>
<path d="M73.413 10.0563C73.3046 9.58223 72.9641 9.31267 72.7025 9.18335C72.4407 9.05388 72.161 9.00884 71.9214 9.00884C71.6818 9.00884 71.402 9.05388 71.1402 9.18335C70.8786 9.31267 70.5382 9.58223 70.4297 10.0563C70.1674 11.203 69.7971 12.514 69.2908 13.7365C68.7801 14.9695 68.1562 16.0501 67.4166 16.7897C66.677 17.5293 65.5965 18.1531 64.3635 18.6638C63.1409 19.1702 61.8299 19.5404 60.6833 19.8028C60.2092 19.9112 59.9396 20.2517 59.8103 20.5132C59.6808 20.7751 59.6358 21.0548 59.6358 21.2944C59.6358 21.534 59.6808 21.8137 59.8103 22.0756C59.9396 22.3372 60.2092 22.6776 60.6833 22.7861C61.8299 23.0484 63.1409 23.4186 64.3635 23.925C65.5965 24.4357 66.677 25.0596 67.4166 25.7991C68.1562 26.5387 68.7801 27.6193 69.2908 28.8523C69.7971 30.0749 70.1674 31.3859 70.4297 32.5325C70.5382 33.0066 70.8786 33.2761 71.1402 33.4055C71.402 33.5349 71.6818 33.58 71.9214 33.58C72.161 33.58 72.4407 33.5349 72.7026 33.4055C72.9641 33.2761 73.3046 33.0066 73.413 32.5325C73.6754 31.3859 74.0456 30.0749 74.5519 28.8523C75.0626 27.6193 75.6865 26.5387 76.4261 25.7991C77.1657 25.0596 78.2462 24.4357 79.4793 23.925C80.7018 23.4186 82.0128 23.0484 83.1595 22.7861C83.6335 22.6776 83.9031 22.3372 84.0324 22.0756C84.1619 21.8137 84.2069 21.534 84.2069 21.2944C84.2069 21.0548 84.1619 20.7751 84.0324 20.5132C83.9031 20.2517 83.6335 19.9112 83.1595 19.8028C82.0128 19.5404 80.7018 19.1702 79.4793 18.6638C78.2462 18.1531 77.1657 17.5293 76.4261 16.7897C75.6865 16.0501 75.0626 14.9695 74.5519 13.7365C74.0456 12.514 73.6754 11.203 73.413 10.0563Z" fill="#A3D2D5" stroke="white" stroke-width="1.92715"/>
<path d="M49.8271 12.2866L50.1399 13.198L49.8271 12.2866C49.3243 12.4591 49.1609 12.911 49.1198 13.0355C49.0561 13.2288 49.0364 13.4249 49.0364 13.5858C49.0364 13.7467 49.0561 13.9427 49.1198 14.1361C49.1609 14.2605 49.3243 14.7125 49.8271 14.885C50.8787 15.2459 52.0789 15.8607 52.7082 16.8048C53.0286 17.2853 53.3156 18.0185 53.5562 18.89C53.7924 19.7455 53.9656 20.6648 54.0886 21.4708C54.1992 22.196 54.8312 22.4988 55.2997 22.4988C55.7681 22.4988 56.4002 22.196 56.5108 21.4708C56.6337 20.6648 56.8069 19.7455 57.0431 18.89C57.2837 18.0185 57.5707 17.2853 57.8911 16.8048C58.5204 15.8607 59.7206 15.2459 60.7722 14.885C61.275 14.7125 61.4385 14.2605 61.4795 14.1361C61.5432 13.9427 61.5629 13.7467 61.5629 13.5858C61.5629 13.4249 61.5432 13.2288 61.4795 13.0355C61.4385 12.911 61.275 12.4591 60.7722 12.2866C59.7206 11.9257 58.5204 11.3108 57.8911 10.3668C57.5707 9.88626 57.2837 9.15304 57.0431 8.28159C56.8069 7.42611 56.6337 6.50672 56.5108 5.7008C56.4002 4.97555 55.7681 4.67272 55.2997 4.67272C54.8312 4.67272 54.1992 4.97555 54.0886 5.7008C53.9656 6.50672 53.7924 7.42611 53.5562 8.28159C53.3156 9.15304 53.0286 9.88626 52.7082 10.3668C52.0789 11.3108 50.8787 11.9257 49.8271 12.2866Z" fill="#6AA5A9" stroke="white" stroke-width="1.92715"/>
<path d="M90.8525 73.3708C87.6773 78.558 80.8982 80.189 75.7111 77.0138L22.4316 44.4C17.2444 41.2248 15.6134 34.4457 18.7886 29.2585C21.9638 24.0714 28.7428 22.4403 33.93 25.6155L87.2095 58.2293C92.3967 61.4046 94.0277 68.1836 90.8525 73.3708Z" fill="#A3D2D5"/>
<path fill-rule="evenodd" clip-rule="evenodd" d="M75.3356 77.6271L22.0561 45.0133C16.5302 41.6308 14.7926 34.409 18.1752 28.8831C21.5578 23.3571 28.7796 21.6196 34.3055 25.0022L87.585 57.616C93.1109 60.9985 94.8484 68.2203 91.4659 73.7462C88.0833 79.2722 80.8615 81.0097 75.3356 77.6271ZM75.7111 77.0138C80.8982 80.189 87.6773 78.558 90.8525 73.3708C94.0277 68.1836 92.3967 61.4045 87.2095 58.2293L33.93 25.6155C28.7428 22.4403 21.9638 24.0714 18.7886 29.2585C15.6134 34.4457 17.2444 41.2248 22.4316 44.4L75.7111 77.0138Z" fill="#A3D2D5"/>
<g clip-path="url(#clip0_2_1696)">
<rect x="57.0974" y="65.6198" width="51.657" height="22.0243" rx="11.0121" transform="rotate(-148.528 57.0974 65.6198)" fill="white"/>
<path fill-rule="evenodd" clip-rule="evenodd" d="M58.3584 54.5876C56.072 58.0343 52.464 60.2923 48.2207 61.1249L48.1515 60.7721C52.311 59.9559 55.8312 57.7469 58.0588 54.3888C60.286 51.0313 61.2316 46.5089 60.2119 41.0469L60.5654 40.9809C61.5994 46.5197 60.6452 51.1402 58.3584 54.5876ZM52.9802 51.2954C50.6938 54.7422 47.0858 57.0001 42.8425 57.8328L42.7732 57.4799C46.9328 56.6637 50.4529 54.4548 52.6805 51.0966C54.9077 47.7391 55.8534 43.2168 54.8337 37.7547L55.1871 37.6887C56.2212 43.2275 55.267 47.848 52.9802 51.2954ZM46.5262 47.3448C44.2398 50.7915 40.6318 53.0495 36.3885 53.8821L36.3193 53.5293C40.4788 52.7131 43.9989 50.5041 46.2266 47.146C48.4537 43.7885 49.3994 39.2661 48.3797 33.8041L48.7331 33.7381C49.7672 39.2769 48.813 43.8974 46.5262 47.3448Z" fill="#A3D2D5"/>
<path fill-rule="evenodd" clip-rule="evenodd" d="M22.2648 32.4938C20.2353 36.0977 19.8656 40.3379 21.0542 44.4956L21.3999 44.3968C20.2348 40.3212 20.6008 36.1815 22.5782 32.6702C24.5551 29.1595 28.1524 26.2603 33.4806 24.6839L33.3786 24.3391C27.9756 25.9376 24.2948 28.8891 22.2648 32.4938ZM27.6431 35.7859C25.6135 39.3899 25.2438 43.6301 26.4324 47.7878L26.7782 47.6889C25.613 43.6133 25.979 39.4737 27.9564 35.9624C29.9334 32.4517 33.5307 29.5525 38.8588 27.9761L38.7568 27.6313C33.3538 29.2298 29.673 32.1813 27.6431 35.7859ZM34.0971 39.7366C32.0675 43.3405 31.6978 47.5808 32.8864 51.7384L33.2321 51.6396C32.067 47.564 32.433 43.4243 34.4104 39.913C36.3874 36.4024 39.9846 33.5031 45.3128 31.9268L45.2108 31.582C39.8078 33.1805 36.127 36.1319 34.0971 39.7366Z" fill="#A3D2D5"/>
<path fill-rule="evenodd" clip-rule="evenodd" d="M12.2975 32.5086C28.2426 38.5544 52.5894 53.3724 63.9648 64.1365L63.7177 64.3977C52.3808 53.6701 28.0761 38.8759 12.17 32.8449L12.2975 32.5086ZM14.9257 28.215C30.8708 34.2608 55.2176 49.0788 66.5931 59.8429L66.3459 60.1041C55.009 49.3765 30.7044 34.5823 14.7982 28.5512L14.9257 28.215ZM17.4601 24.0747C33.4052 30.1205 57.752 44.9385 69.1274 55.7026L68.8803 55.9638C57.5434 45.2362 33.2387 30.442 17.3326 24.411L17.4601 24.0747Z" fill="#A3D2D5"/>
</g>
<path d="M123.106 59H110.146L118.246 20.9H131.266L123.106 59ZM166.256 25.46H156.596L149.456 59H136.496L143.636 25.46H134.096L135.176 20.9H167.276L166.256 25.46ZM192.277 42.56C193.477 42.56 194.477 42.06 195.277 41.06C196.117 40.06 196.797 38.84 197.317 37.4C197.877 35.96 198.277 34.46 198.517 32.9C198.757 31.34 198.877 29.98 198.877 28.82C198.877 27.74 198.697 26.84 198.337 26.12C197.977 25.36 197.197 24.98 195.997 24.98H193.297L189.517 42.56H192.277ZM188.677 46.4L185.977 59H173.017L181.117 20.9H194.977C197.257 20.9 199.337 21.02 201.217 21.26C203.097 21.5 204.717 21.98 206.077 22.7C207.437 23.42 208.497 24.46 209.257 25.82C210.017 27.14 210.397 28.92 210.397 31.16C210.397 33.24 210.057 35.22 209.377 37.1C208.737 38.94 207.677 40.56 206.197 41.96C204.757 43.32 202.877 44.4 200.557 45.2C198.237 46 195.417 46.4 192.097 46.4H188.677ZM213.853 33.2H223.633L224.533 37.7H224.953C225.873 36.26 227.053 35.04 228.493 34.04C229.933 33.04 231.833 32.54 234.193 32.54C234.353 32.54 234.593 32.56 234.913 32.6C235.273 32.6 235.653 32.66 236.053 32.78C236.493 32.86 236.933 33 237.373 33.2C237.853 33.36 238.313 33.6 238.753 33.92L236.113 46.28H229.573C229.493 43.8 229.273 42.08 228.913 41.12C228.553 40.12 227.973 39.62 227.173 39.62C226.773 39.62 226.333 39.72 225.853 39.92C225.413 40.08 224.953 40.46 224.473 41.06L220.633 59H208.393L213.853 33.2ZM251.077 46.94C250.917 47.82 250.797 48.66 250.717 49.46C250.677 50.26 250.657 50.98 250.657 51.62C250.657 51.98 250.677 52.38 250.717 52.82C250.757 53.26 250.837 53.68 250.957 54.08C251.117 54.44 251.317 54.76 251.557 55.04C251.837 55.28 252.217 55.4 252.697 55.4C253.057 55.4 253.457 55.28 253.897 55.04C254.377 54.8 254.837 54.46 255.277 54.02C255.757 53.58 256.197 53.04 256.597 52.4C257.037 51.76 257.377 51.04 257.617 50.24H267.457L265.897 56.66C265.097 57.18 264.177 57.62 263.137 57.98C262.097 58.34 260.997 58.64 259.837 58.88C258.677 59.08 257.497 59.22 256.297 59.3C255.097 59.42 253.957 59.48 252.877 59.48C250.877 59.48 249.017 59.3 247.297 58.94C245.577 58.58 244.077 57.96 242.797 57.08C241.517 56.2 240.497 55.04 239.737 53.6C239.017 52.12 238.657 50.3 238.657 48.14C238.657 46.18 238.957 44.26 239.557 42.38C240.197 40.5 241.237 38.84 242.677 37.4C244.157 35.92 246.117 34.74 248.557 33.86C251.037 32.98 254.117 32.54 257.797 32.54C261.797 32.54 264.797 33.16 266.797 34.4C268.837 35.64 269.857 37.58 269.857 40.22C269.857 41.3 269.697 42.48 269.377 43.76C269.057 45 268.577 46.06 267.937 46.94H251.077ZM259.057 39.8C259.057 38.56 258.857 37.72 258.457 37.28C258.057 36.84 257.577 36.62 257.017 36.62C256.377 36.62 255.777 36.84 255.217 37.28C254.697 37.68 254.217 38.24 253.777 38.96C253.337 39.64 252.937 40.44 252.577 41.36C252.217 42.24 251.917 43.18 251.677 44.18H258.517C258.597 43.7 258.677 43.2 258.757 42.68C258.837 42.24 258.897 41.76 258.937 41.24C259.017 40.72 259.057 40.24 259.057 39.8ZM289.23 40.76C289.27 40.56 289.31 40.36 289.35 40.16C289.39 39.96 289.41 39.74 289.41 39.5C289.41 38.78 289.27 38.12 288.99 37.52C288.75 36.88 288.25 36.56 287.49 36.56C286.81 36.56 286.13 36.86 285.45 37.46C284.77 38.02 284.43 38.78 284.43 39.74C284.43 40.38 284.59 40.9 284.91 41.3C285.27 41.66 285.73 41.96 286.29 42.2C286.85 42.44 287.47 42.64 288.15 42.8C288.87 42.96 289.57 43.12 290.25 43.28C291.21 43.52 292.11 43.82 292.95 44.18C293.83 44.5 294.61 44.94 295.29 45.5C295.97 46.06 296.51 46.76 296.91 47.6C297.31 48.4 297.51 49.4 297.51 50.6C297.51 52.28 297.11 53.7 296.31 54.86C295.55 55.98 294.47 56.9 293.07 57.62C291.71 58.3 290.09 58.78 288.21 59.06C286.37 59.34 284.39 59.48 282.27 59.48C279.03 59.48 276.35 59.24 274.23 58.76C272.11 58.28 270.63 57.82 269.79 57.38L271.05 51.38H279.15C279.11 51.58 279.09 51.78 279.09 51.98C279.09 52.14 279.09 52.32 279.09 52.52C279.09 53.44 279.29 54.18 279.69 54.74C280.13 55.26 280.87 55.52 281.91 55.52C283.07 55.52 283.89 55.2 284.37 54.56C284.89 53.88 285.15 53.26 285.15 52.7C285.15 52.14 284.93 51.66 284.49 51.26C284.09 50.82 283.57 50.46 282.93 50.18C282.29 49.86 281.57 49.6 280.77 49.4C280.01 49.16 279.27 48.94 278.55 48.74C278.03 48.62 277.43 48.42 276.75 48.14C276.11 47.86 275.49 47.46 274.89 46.94C274.29 46.42 273.79 45.76 273.39 44.96C272.99 44.12 272.79 43.08 272.79 41.84C272.79 40.08 273.21 38.62 274.05 37.46C274.93 36.26 276.05 35.3 277.41 34.58C278.81 33.86 280.37 33.34 282.09 33.02C283.85 32.7 285.61 32.54 287.37 32.54C289.57 32.54 291.65 32.74 293.61 33.14C295.57 33.54 297.17 34.06 298.41 34.7L297.03 40.76H289.23ZM326.453 57.56C324.773 58.24 322.993 58.72 321.113 59C319.273 59.32 317.173 59.48 314.813 59.48C312.733 59.48 310.813 59.28 309.053 58.88C307.333 58.44 305.833 57.76 304.553 56.84C303.273 55.92 302.273 54.74 301.553 53.3C300.833 51.82 300.473 50.04 300.473 47.96C300.473 45.8 300.833 43.8 301.553 41.96C302.313 40.08 303.433 38.44 304.913 37.04C306.433 35.64 308.353 34.54 310.673 33.74C312.993 32.94 315.753 32.54 318.953 32.54C321.553 32.54 323.813 32.76 325.733 33.2C327.653 33.6 329.233 34.54 330.473 36.02L328.793 43.7H320.633C320.673 43.02 320.713 42.42 320.753 41.9C320.793 41.38 320.813 40.8 320.813 40.16C320.813 38.88 320.673 37.98 320.393 37.46C320.113 36.9 319.653 36.62 319.013 36.62C317.893 36.62 316.913 37.18 316.073 38.3C315.233 39.38 314.533 40.7 313.973 42.26C313.453 43.78 313.053 45.4 312.773 47.12C312.533 48.8 312.413 50.24 312.413 51.44C312.413 51.88 312.433 52.34 312.473 52.82C312.513 53.26 312.593 53.68 312.713 54.08C312.873 54.48 313.073 54.8 313.313 55.04C313.553 55.28 313.893 55.4 314.333 55.4C314.733 55.4 315.193 55.28 315.713 55.04C316.233 54.8 316.733 54.44 317.213 53.96C317.693 53.44 318.153 52.78 318.593 51.98C319.033 51.18 319.373 50.22 319.613 49.1H328.193L326.453 57.56ZM335.963 33.2H345.743L346.643 37.7H347.063C347.983 36.26 349.163 35.04 350.603 34.04C352.043 33.04 353.943 32.54 356.303 32.54C356.463 32.54 356.703 32.56 357.023 32.6C357.383 32.6 357.763 32.66 358.163 32.78C358.603 32.86 359.043 33 359.483 33.2C359.963 33.36 360.423 33.6 360.863 33.92L358.223 46.28H351.683C351.603 43.8 351.383 42.08 351.023 41.12C350.663 40.12 350.083 39.62 349.283 39.62C348.883 39.62 348.443 39.72 347.963 39.92C347.523 40.08 347.063 40.46 346.583 41.06L342.743 59H330.503L335.963 33.2ZM371.686 59H359.506L364.966 33.2H377.266L371.686 59ZM378.826 25.34C378.826 26.26 378.626 27.06 378.226 27.74C377.866 28.42 377.366 29 376.726 29.48C376.126 29.96 375.426 30.32 374.626 30.56C373.826 30.8 373.006 30.92 372.166 30.92C370.566 30.92 369.226 30.54 368.146 29.78C367.066 29.02 366.526 27.82 366.526 26.18C366.526 25.3 366.706 24.52 367.066 23.84C367.426 23.12 367.906 22.54 368.506 22.1C369.146 21.62 369.866 21.26 370.666 21.02C371.506 20.78 372.366 20.66 373.246 20.66C374.806 20.66 376.126 21.04 377.206 21.8C378.286 22.56 378.826 23.74 378.826 25.34ZM387.165 69.08H374.925L382.485 33.2H392.265L393.345 37.04H393.705C395.145 35.52 396.745 34.44 398.505 33.8C400.305 33.12 402.065 32.78 403.785 32.78C405.185 32.78 406.345 33 407.265 33.44C408.225 33.84 408.985 34.4 409.545 35.12C410.105 35.84 410.505 36.7 410.745 37.7C410.985 38.7 411.105 39.76 411.105 40.88C411.105 41.44 411.065 42.28 410.985 43.4C410.905 44.52 410.725 45.78 410.445 47.18C410.165 48.54 409.765 49.96 409.245 51.44C408.725 52.88 408.025 54.2 407.145 55.4C406.305 56.6 405.225 57.58 403.905 58.34C402.625 59.1 401.085 59.48 399.285 59.48C398.285 59.48 397.305 59.36 396.345 59.12C395.425 58.88 394.585 58.56 393.825 58.16C393.065 57.76 392.385 57.3 391.785 56.78C391.225 56.22 390.805 55.66 390.525 55.1H390.165L387.165 69.08ZM393.525 53.66C394.485 53.66 395.285 53.16 395.925 52.16C396.565 51.12 397.085 49.92 397.485 48.56C397.885 47.16 398.165 45.78 398.325 44.42C398.525 43.02 398.625 41.98 398.625 41.3C398.625 40.5 398.485 39.84 398.205 39.32C397.965 38.8 397.505 38.54 396.825 38.54C396.065 38.54 395.345 38.82 394.665 39.38C393.985 39.9 393.485 40.36 393.165 40.76L390.825 51.74C391.145 52.18 391.525 52.62 391.965 53.06C392.405 53.46 392.925 53.66 393.525 53.66ZM414.839 33.2C416.319 32.88 417.619 32.52 418.739 32.12C419.859 31.72 420.879 31.22 421.799 30.62C422.759 30.02 423.659 29.28 424.499 28.4C425.379 27.52 426.319 26.44 427.319 25.16H433.499L431.759 33.2H436.439L435.659 37.22H430.919L428.459 48.92C428.259 49.84 428.099 50.66 427.979 51.38C427.859 52.1 427.799 52.66 427.799 53.06C427.799 53.86 428.079 54.36 428.639 54.56C429.239 54.76 430.339 54.86 431.939 54.86L431.039 59C430.759 59.08 430.319 59.14 429.719 59.18C429.159 59.22 428.519 59.26 427.799 59.3C427.119 59.38 426.399 59.42 425.639 59.42C424.919 59.46 424.279 59.48 423.719 59.48C422.719 59.48 421.739 59.4 420.779 59.24C419.819 59.12 418.959 58.86 418.199 58.46C417.439 58.02 416.819 57.4 416.339 56.6C415.899 55.8 415.679 54.72 415.679 53.36C415.679 52.88 415.699 52.28 415.739 51.56C415.819 50.84 415.959 50.04 416.159 49.16L418.679 37.22H413.999L414.839 33.2ZM447.155 59H434.975L440.435 33.2H452.735L447.155 59ZM454.295 25.34C454.295 26.26 454.095 27.06 453.695 27.74C453.335 28.42 452.835 29 452.195 29.48C451.595 29.96 450.895 30.32 450.095 30.56C449.295 30.8 448.475 30.92 447.635 30.92C446.035 30.92 444.695 30.54 443.615 29.78C442.535 29.02 441.995 27.82 441.995 26.18C441.995 25.3 442.175 24.52 442.535 23.84C442.895 23.12 443.375 22.54 443.975 22.1C444.615 21.62 445.335 21.26 446.135 21.02C446.975 20.78 447.835 20.66 448.715 20.66C450.275 20.66 451.595 21.04 452.675 21.8C453.755 22.56 454.295 23.74 454.295 25.34ZM472.053 32.54C476.813 32.54 480.273 33.38 482.433 35.06C484.713 36.82 485.853 39.74 485.853 43.82C485.853 46.34 485.433 48.62 484.593 50.66C483.753 52.66 482.573 54.32 481.053 55.64C478.013 58.2 473.613 59.48 467.853 59.48C462.933 59.48 459.413 58.54 457.293 56.66C455.013 54.7 453.873 51.76 453.873 47.84C453.873 45.24 454.393 42.88 455.433 40.76C456.513 38.64 458.053 36.88 460.053 35.48C462.973 33.52 466.973 32.54 472.053 32.54ZM467.973 55.4C468.973 55.4 469.833 54.84 470.553 53.72C471.313 52.6 471.913 51.24 472.353 49.64C472.793 48 473.113 46.32 473.313 44.6C473.553 42.84 473.673 41.32 473.673 40.04C473.673 38.92 473.553 38.08 473.313 37.52C473.113 36.92 472.653 36.62 471.933 36.62C470.853 36.62 469.913 37.2 469.113 38.36C468.353 39.52 467.733 40.9 467.253 42.5C466.773 44.1 466.413 45.74 466.173 47.42C465.973 49.1 465.873 50.46 465.873 51.5C465.873 54.1 466.573 55.4 467.973 55.4ZM503.745 37.04C504.585 36.24 505.525 35.5 506.565 34.82C507.485 34.26 508.565 33.74 509.805 33.26C511.045 32.78 512.425 32.54 513.945 32.54C516.025 32.54 517.745 33.08 519.105 34.16C520.465 35.2 521.145 36.64 521.145 38.48C521.145 39 521.085 39.64 520.965 40.4C520.845 41.12 520.705 41.88 520.545 42.68C520.385 43.48 520.205 44.3 520.005 45.14C519.845 45.94 519.705 46.66 519.585 47.3L517.065 59H504.885L508.185 43.34C508.265 42.82 508.365 42.3 508.485 41.78C508.605 41.22 508.665 40.72 508.665 40.28C508.665 39.68 508.505 39.2 508.185 38.84C507.905 38.44 507.465 38.24 506.865 38.24C506.145 38.24 505.445 38.5 504.765 39.02C504.125 39.54 503.625 39.98 503.265 40.34L499.305 59H487.065L492.525 33.2H502.305L503.385 37.04H503.745Z" fill="#45625D"/>
<path d="M111.983 92V82H113.983V86H117.983V82H119.983V92H117.983V88H113.983V92H111.983ZM125.983 92V90H123.983V84H125.983V82H129.983V84H131.983V90H129.983V92H125.983ZM125.983 89.92H129.983V84.08H125.983V89.92ZM137.983 92V90H135.983V82H137.983V90H141.983V92H137.983ZM141.983 90V82H143.983V90H141.983ZM149.983 84V82H155.983V84H149.983ZM153.983 90V88H149.983V86H147.983V84H149.983V86H153.983V88H155.983V90H153.983ZM147.983 92V90H153.983V92H147.983ZM161.983 92V84H159.983V82H165.983V84H163.983V92H161.983ZM171.983 92V90H169.983V84H171.983V82H175.983V84H177.983V90H175.983V92H171.983ZM171.983 89.92H175.983V84.08H171.983V89.92ZM181.983 92V82H183.983V84H185.983V86H187.983V88H189.983V82H191.983V92H189.983V90H187.983V88H185.983V86H183.983V92H181.983ZM195.983 88V86H201.983V88H195.983ZM205.983 92V82H211.983V84H213.983V90H211.983V92H205.983ZM207.983 86H211.903V84H207.983V86ZM207.983 90H211.903V88H207.983V90ZM217.983 92V84H219.983V82H223.983V84H225.983V92H223.983V88H219.983V92H217.983ZM219.983 86H223.983V84.08H219.983V86ZM231.983 84V82H237.983V84H231.983ZM235.983 90V88H231.983V86H229.983V84H231.983V86H235.983V88H237.983V90H235.983ZM229.983 92V90H235.983V92H229.983ZM241.983 92V82H247.983V84H243.983V86H247.983V88H243.983V90H247.983V92H241.983ZM251.983 92V82H257.983V84H259.983V90H257.983V92H251.983ZM253.983 90H257.903V84H253.983V90ZM271.983 92V82H273.983V92H271.983ZM279.983 92V84H277.983V82H283.983V84H281.983V92H279.983ZM297.983 84V82H303.983V84H297.983ZM301.983 90V88H297.983V86H295.983V84H297.983V86H301.983V88H303.983V90H301.983ZM295.983 92V90H301.983V92H295.983ZM309.983 92V90H307.983V84H309.983V82H313.983V84H315.983V90H313.983V92H309.983ZM309.983 89.92H313.983V84.08H309.983V89.92ZM319.983 92V82H321.983V90H325.983V92H319.983ZM331.983 92V90H329.983V82H331.983V90H335.983V92H331.983ZM335.983 90V82H337.983V90H335.983ZM343.983 92V84H341.983V82H347.983V84H345.983V92H343.983ZM351.983 92V82H353.983V92H351.983ZM359.983 92V90H357.983V84H359.983V82H363.983V84H365.983V90H363.983V92H359.983ZM359.983 89.92H363.983V84.08H359.983V89.92ZM369.983 92V82H371.983V84H373.983V86H375.983V88H377.983V82H379.983V92H377.983V90H375.983V88H373.983V86H371.983V92H369.983ZM385.983 84V82H391.983V84H385.983ZM389.983 90V88H385.983V86H383.983V84H385.983V86H389.983V88H391.983V90H389.983ZM383.983 92V90H389.983V92H383.983Z" fill="#3F7856"/>
<defs>
<clipPath id="clip0_2_1696">
<rect x="57.0974" y="65.6198" width="51.657" height="22.0243" rx="11.0121" transform="rotate(-148.528 57.0974 65.6198)" fill="white"/>
</clipPath>
</defs>
</svg>
